<?xml version="1.0" encoding="UTF-8"?>
<svg width="104px" height="73px" viewBox="0 0 104 73" version="1.1" xmlns="http://www.w3.org/2000/svg" xmlns:xlink="http://www.w3.org/1999/xlink">
    <!-- Generator: Sketch 52.2 (67145) - http://www.bohemiancoding.com/sketch -->
    <title>Exchange Euro Layout</title>
    <desc>Exchange Euro Layout</desc>
    <g id="exchange" stroke="none" stroke-width="1" fill="none" fill-rule="evenodd">
        <g id="exchange-1920-copy" transform="translate(-1184.000000, -227.000000)">
            <g id="exchange-26" transform="translate(1171.000000, 64.000000)">
                <g id="exchange-4" transform="translate(0.000000, 41.000000)">
                    <g id="Group-57" transform="translate(13.000000, 122.000000)">
                        <g id="Group-54-Copy">
                            <g id="Group-51-Copy">
                                <rect id="Rectangle-13" fill="#ffffff" x="0" y="0" width="104" height="73" rx="0.6"></rect>
                                <rect id="Rectangle-13-Copy" fill="#eeeeee" x="0" y="0" width="104" height="8.44628099" rx="0.6"></rect>
                                <rect id="Rectangle-13-Copy-2" fill="#eeeeee" x="22" y="11" width="60" height="40" rx="1.2"></rect>
                                <rect id="Rectangle-13-Copy-4" fill="#eeeeee" x="22" y="54" width="60" height="10.8595041" rx="1.2"></rect>
                                <rect id="Rectangle-13-Copy-5" fill="#00AC8D" x="25" y="57" width="23.24" height="4.82644628" rx="1.2"></rect>
                                <rect id="Rectangle-13-Copy-6" fill="#CF424E" x="55" y="57" width="23.24" height="4.82644628" rx="1.2"></rect>
                                <rect id="Rectangle-13-Copy-11" fill="#eeeeee" x="4" y="11" width="15" height="56" rx="1.2"></rect>
                                <rect id="Rectangle-13-Copy-11" fill="#eeeeee" x="86" y="11" width="15" height="56" rx="1.2"></rect>
                            </g>
                            <g id="Group-53" transform="translate(27.390000, 22.272727)">
                                <rect id="Rectangle-15" fill="#00AC8D" x="0" y="13.8760331" width="1.66" height="3.61983471" rx="0.120000002"></rect>
                                <rect id="Rectangle-15-Copy" fill="#00AC8D" x="2.49" y="11.4628099" width="1.66" height="4.82644628" rx="0.120000002"></rect>
                                <rect id="Rectangle-15-Copy-8" fill="#00AC8D" x="9.96" y="10.8595041" width="1.66" height="4.2231405" rx="0.120000002"></rect>
                                <rect id="Rectangle-15-Copy-15" fill="#00AC8D" x="12.45" y="9.04958678" width="1.66" height="1.80991736" rx="0.120000002"></rect>
                                <path d="M15.06,10.8595041 L16.48,10.8595041 C16.5462742,10.8595041 16.6,10.91323 16.6,10.9795041 L16.6,13.7560331 C16.6,13.8223072 16.5462742,13.8760331 16.48,13.8760331 L15.06,13.8760331 C14.9937258,13.8760331 14.94,13.8223072 14.94,13.7560331 L14.94,10.9795041 C14.94,10.91323 14.9937258,10.8595041 15.06,10.8595041 Z" id="Rectangle-15-Copy-16" fill="#CF424E"></path>
                                <rect id="Rectangle-15-Copy-17" fill="#00AC8D" x="17.43" y="7.23966942" width="1.66" height="6.63636364" rx="0.120000002"></rect>
                                <rect id="Rectangle-15-Copy-25" fill="#00AC8D" x="24.9" y="9.04958678" width="1.66" height="2.41322314" rx="0.120000002"></rect>
                                <rect id="Rectangle-15-Copy-27" fill="#00AC8D" x="29.88" y="8.44628099" width="1.66" height="2.41322314" rx="0.120000002"></rect>
                                <rect id="Rectangle-15-Copy-31" fill="#00AC8D" x="39.84" y="2.41322314" width="1.66" height="2.41322314" rx="0.120000002"></rect>
                                <rect id="Rectangle-15-Copy-35" fill="#00AC8D" x="47.31" y="0" width="1.66" height="2.41322314" rx="0.120000002"></rect>
                                <rect id="Rectangle-15-Copy-28" fill="#00AC8D" x="32.37" y="4.2231405" width="1.66" height="4.2231405" rx="0.120000002"></rect>
                                <rect id="Rectangle-15-Copy-34" fill="#00AC8D" x="44.82" y="2.41322314" width="1.66" height="4.2231405" rx="0.120000002"></rect>
                                <rect id="Rectangle-15-Copy-30" fill="#00AC8D" x="37.35" y="4.82644628" width="1.66" height="1.80991736" rx="0.120000002"></rect>
                                <rect id="Rectangle-15-Copy-6" fill="#CF424E" x="4.98" y="11.4628099" width="1.66" height="3.01652893" rx="0.120000002"></rect>
                                <rect id="Rectangle-15-Copy-7" fill="#CF424E" x="7.47" y="12.6694215" width="1.66" height="2.41322314" rx="0.120000002"></rect>
                                <rect id="Rectangle-15-Copy-23" fill="#CF424E" x="19.92" y="7.23966942" width="1.66" height="3.01652893" rx="0.120000002"></rect>
                                <rect id="Rectangle-15-Copy-24" fill="#CF424E" x="22.41" y="10.2561983" width="1.66" height="1.20661157" rx="0.120000002"></rect>
                                <rect id="Rectangle-15-Copy-26" fill="#CF424E" x="27.39" y="9.04958678" width="1.66" height="1.80991736" rx="0.120000002"></rect>
                                <rect id="Rectangle-15-Copy-32" fill="#CF424E" x="42.33" y="4.82644628" width="1.66" height="1.80991736" rx="0.120000002"></rect>
                                <rect id="Rectangle-15-Copy-29" fill="#CF424E" x="34.86" y="4.2231405" width="1.66" height="2.41322314" rx="0.120000002"></rect>
                            </g>
                        </g>
                    </g>
                </g>
            </g>
        </g>
    </g>
</svg>
