<svg width="38px" viewBox="0 0 85 85" color="text" xmlns="http://www.w3.org/2000/svg" class="sc-bdfBwQ lkvAzg"><g id="Group_22056" data-name="Group 22056" transform="translate(-1520 -901.076)"><rect id="Rectangle_1" data-name="Rectangle 1" width="85" height="85" rx="42.5" transform="translate(1520 901.076)" fill="#3b52ff"></rect><g id="Group_23" data-name="Group 23" transform="translate(1539.63 920.604)"><g id="Screen_Shot_2021-06-17_at_23" data-name="Screen Shot 2021-06-17 at 23" transform="translate(0)"><g id="_e9374dff" data-name="#e9374dff"><path id="Path_2" data-name="Path 2" d="M100.48,71.609a4.5,4.5,0,0,1,5.009,1.965q9.366,16.136,18.646,32.321c1.49,2.491-.16,6.257-3.13,6.524a4.39,4.39,0,0,1-4.6-2.093c-3.754-6.4-7.409-12.861-11.171-19.255a4.362,4.362,0,0,0-7.078.015c-3.906,6.484-7.536,13.142-11.439,19.624-2.117,3.266-7.807,1.743-7.995-2.14-.257-2.9,2.25-5.073,3.327-7.593,4.174-7.242,8.385-14.464,12.514-21.731C96.5,76.7,97.2,72.762,100.48,71.609Z" transform="translate(-78.705 -71.475)" fill="#fff"></path><path id="Path_3" data-name="Path 3" d="M211.215,275.728a4.575,4.575,0,0,1,5.028,2.342c.974,2.107,2.886,3.953,2.853,6.4a4.568,4.568,0,0,1-4.636,4.381c-1.693,0-3.385.017-5.076-.006a4.661,4.661,0,0,1-4.153-4.559c.037-2.146,1.649-3.81,2.569-5.638A4.868,4.868,0,0,1,211.215,275.728Z" transform="translate(-189.189 -249.737)" fill="#fff"></path></g></g></g></g></svg>