<svg id="icon-02" xmlns="http://www.w3.org/2000/svg" width="27.04" height="27.039" viewBox="0 0 27.04 27.039">
  <path id="Path_7118" data-name="Path 7118" d="M122.051,287.1c-.038-.018-.038-.026,0-.053Z" transform="translate(-118.797 -279.463)" fill="#020201"/>
  <path id="Path_7119" data-name="Path 7119" d="M17.4,18.167c-.147.057-.3.113-.445.166-.088.031-.106.077-.079.17.211.722.413,1.446.624,2.167.029.1,0,.123-.086.146-.4.111-.806.221-1.206.342-.11.033-.14,0-.169-.1-.2-.708-.4-1.413-.6-2.121-.026-.09-.057-.11-.145-.085-.308.089-.617.177-.929.255-.1.026-.112.066-.086.156.167.57.328,1.141.491,1.712.043.152.085.3.129.457.019.067,0,.1-.071.12-.407.112-.814.226-1.218.348-.1.031-.138.008-.166-.09-.2-.7-.4-1.4-.606-2.1-.05-.176-.047-.176-.216-.128q-1.308.37-2.614.74c-.108.031-.149.013-.161-.106-.053-.5-.11-1-.175-1.494-.017-.135.016-.194.153-.226.278-.065.552-.147.826-.227a.555.555,0,0,0,.435-.773q-.867-3.026-1.737-6.05a1.9,1.9,0,0,0-.127-.4.763.763,0,0,0-.892-.37c-.331.072-.654.175-.978.278-.167.053-.17.053-.217-.111-.119-.418-.238-.838-.362-1.254-.031-.1-.01-.147.1-.177.884-.248,1.767-.5,2.651-.753.106-.03.127-.072.1-.178C9.4,7.766,9.2,7.052,9,6.338c-.022-.076-.016-.108.064-.13q.629-.174,1.255-.359c.076-.022.111-.01.132.07.2.694.4,1.387.589,2.082.031.112.07.15.193.109.3-.1.6-.185.9-.273.088-.026.1-.063.077-.151-.2-.692-.4-1.387-.6-2.079-.03-.1,0-.132.091-.157.4-.112.805-.224,1.205-.344.1-.03.13,0,.156.09.2.7.406,1.4.6,2.106.037.135.094.147.213.124a6.521,6.521,0,0,1,1.639-.136,3,3,0,0,1,1.434.4,2.42,2.42,0,0,1,1.006,1.283,2.911,2.911,0,0,1,.2,1.148,2.21,2.21,0,0,1-.621,1.42c-.034.037-.106.07-.085.121s.1.025.146.025a3.08,3.08,0,0,1,1.2.206,2.234,2.234,0,0,1,1.2,1.18,4.329,4.329,0,0,1,.394,1.7,2.891,2.891,0,0,1-1.22,2.444A6.986,6.986,0,0,1,17.4,18.167ZM12.759.021h.017Q13.145,0,13.52,0q.566,0,1.12.046c.03,0,.059.006.089.008h0c.055,0,.11,0,.165.01A13.527,13.527,0,0,1,25.92,8.121,13.364,13.364,0,0,1,27,12.443a.234.234,0,0,1,0,.036h0a.076.076,0,0,0,0,.04q.036.5.036,1a13.456,13.456,0,0,1-1.873,6.871l-.07.117-.065.106-.011.017-.059.1-.039.063-.031.048-.07.107a13.157,13.157,0,0,1-5.714,4.89l-.093.041q-.414.183-.846.344l-.015.006A13.521,13.521,0,1,1,12.453.041a.09.09,0,0,0,.035,0h0Z" transform="translate(0)" fill="#8ec353"/>
  <path id="Path_7120" data-name="Path 7120" d="M268.962,200.769a2.227,2.227,0,0,0-1.2-1.18,3.061,3.061,0,0,0-1.2-.206c-.051,0-.125.026-.146-.025s.051-.084.085-.121a2.21,2.21,0,0,0,.621-1.42,2.915,2.915,0,0,0-.2-1.148,2.42,2.42,0,0,0-1.006-1.283,3,3,0,0,0-1.434-.4,6.511,6.511,0,0,0-1.639.136c-.119.024-.176.011-.213-.124-.193-.7-.4-1.4-.6-2.106-.026-.091-.056-.12-.156-.09-.4.12-.8.232-1.205.344-.088.025-.121.056-.091.157.2.692.4,1.387.6,2.079.026.088.011.125-.077.151-.3.087-.6.173-.9.273-.123.041-.162,0-.193-.109-.194-.695-.394-1.388-.589-2.082-.022-.079-.057-.092-.132-.07q-.626.185-1.255.359c-.081.023-.086.054-.064.13.207.714.407,1.429.615,2.141.031.106.009.149-.1.178-.884.249-1.767.5-2.651.753-.106.03-.128.073-.1.177.125.417.242.836.362,1.254.047.164.05.165.217.111.323-.1.646-.206.978-.278a.764.764,0,0,1,.892.37,1.9,1.9,0,0,1,.127.4q.871,3.024,1.737,6.05a.556.556,0,0,1-.435.773c-.274.079-.548.162-.826.227-.137.032-.17.091-.153.226.065.5.122,1,.175,1.494.012.118.053.136.161.106q1.306-.374,2.614-.74c.168-.048.165-.048.216.128.2.7.407,1.4.606,2.1.028.1.065.121.166.09q.606-.183,1.218-.348c.075-.021.09-.053.071-.12-.044-.152-.085-.3-.129-.457-.163-.571-.325-1.142-.491-1.712-.026-.091-.016-.132.086-.156.311-.079.62-.165.929-.255.088-.026.12-.006.145.085.2.708.4,1.413.6,2.121.029.1.059.132.169.1.4-.121.8-.231,1.206-.342.082-.022.114-.049.086-.146-.211-.722-.414-1.446-.624-2.167-.026-.093-.01-.139.079-.17.149-.053.3-.109.445-.166a7.088,7.088,0,0,0,1.776-.946,2.886,2.886,0,0,0,1.22-2.444A4.329,4.329,0,0,0,268.962,200.769Zm-7.458-.364c-.075.021-.108.011-.132-.071q-.38-1.345-.77-2.687c-.024-.081-.018-.11.071-.138a12.067,12.067,0,0,1,1.463-.395,3.6,3.6,0,0,1,.721-.072,1.884,1.884,0,0,1,.824.146,1.288,1.288,0,0,1,.41,2.023,3.347,3.347,0,0,1-1.279.787A13.482,13.482,0,0,1,261.5,200.405Zm4.545,3.164a3.718,3.718,0,0,1-1.335.876,14.96,14.96,0,0,1-1.868.608c-.086.024-.123,0-.148-.085q-.414-1.461-.837-2.919c-.034-.118-.014-.171.119-.21.524-.153,1.042-.321,1.577-.432a5.788,5.788,0,0,1,1.072-.132,2.372,2.372,0,0,1,1.014.2A1.35,1.35,0,0,1,266.048,203.569Z" transform="translate(-248.963 -187.696)" fill="#fefefd"/>
  <path id="Path_7121" data-name="Path 7121" d="M490.231,513.74a2.372,2.372,0,0,1,1.014.2,1.35,1.35,0,0,1,.4,2.1,3.719,3.719,0,0,1-1.335.876,14.958,14.958,0,0,1-1.868.608c-.086.024-.123,0-.148-.085q-.414-1.461-.837-2.919c-.034-.118-.014-.171.119-.21.524-.153,1.042-.321,1.577-.432A5.831,5.831,0,0,1,490.231,513.74Z" transform="translate(-474.563 -500.161)" fill="#8ec353"/>
  <path id="Path_7122" data-name="Path 7122" d="M442.2,353.6a1.884,1.884,0,0,1,.824.146,1.288,1.288,0,0,1,.41,2.022,3.355,3.355,0,0,1-1.28.787,13.394,13.394,0,0,1-1.308.406c-.075.021-.108.011-.132-.071q-.38-1.345-.77-2.687c-.024-.081-.018-.11.071-.138a12.067,12.067,0,0,1,1.463-.395A3.607,3.607,0,0,1,442.2,353.6Z" transform="translate(-428.303 -344.248)" fill="#8ec353"/>
</svg>
