<svg id="icon-01" xmlns="http://www.w3.org/2000/svg" width="27.047" height="27.04" viewBox="0 0 27.047 27.04">
  <path id="Path_7114" data-name="Path 7114" d="M814.54,1021.9c.026-.041.053-.039.079,0Z" transform="translate(-793.012 -994.861)" fill="#020201"/>
  <path id="Path_7115" data-name="Path 7115" d="M758.56,1022.318v-.019l.026.019Z" transform="translate(-738.511 -995.279)" fill="#020201"/>
  <path id="Path_7116" data-name="Path 7116" d="M22.355,6.418,13.578,15.2,4.8,6.412l-.035.013V17.538c0,.042,0,.085,0,.127,0,.07-.028.1-.1.1-.03,0-.059,0-.089,0-1.234,0-2.468,0-3.7,0a.177.177,0,0,1-.2-.149,13.9,13.9,0,0,1-.621-4.731A13.432,13.432,0,0,1,2.64,5.516,13.186,13.186,0,0,1,4.078,3.855,13.737,13.737,0,0,1,6.916,1.719,13.368,13.368,0,0,1,10.475.331a11.832,11.832,0,0,1,2.3-.324A13.513,13.513,0,0,1,14.166,0c.621.043,1.24.125,1.857.215a10.961,10.961,0,0,1,2.1.557A13.333,13.333,0,0,1,21.29,2.4a13.559,13.559,0,0,1,4.651,5.653,12.155,12.155,0,0,1,.777,2.336c.115.543.2,1.094.278,1.644a11.193,11.193,0,0,1,.074,1.971,12.557,12.557,0,0,1-.307,2.405c-.1.41-.218.814-.324,1.222a.147.147,0,0,1-.168.127q-1.89,0-3.78,0c-.132,0-.14-.058-.14-.16q0-5.478,0-10.955Z" transform="translate(-0.035 0.019)" fill="#f16922"/>
  <path id="Path_7117" data-name="Path 7117" d="M74.39,513.65h5.7v-7.13l5.84,5.844L91.8,506.49v7.154h5.71a13.528,13.528,0,0,1-23.118.007Z" transform="translate(-72.425 -493.102)" fill="#5e5e5e"/>
</svg>
