<svg id="svg" xmlns="http://www.w3.org/2000/svg" xmlns:xlink="http://www.w3.org/1999/xlink" width="400" height="400" viewBox="0, 0, 400,400"><g id="svgg"><path id="path0" d="M167.200 99.628 C 165.407 100.034,161.747 101.362,160.200 102.169 C 159.540 102.513,158.758 102.796,158.462 102.798 C 158.166 102.799,157.446 103.060,156.862 103.378 C 156.278 103.695,153.910 104.879,151.600 106.009 C 146.923 108.296,146.074 108.781,141.200 111.947 C 138.264 113.855,136.948 114.785,134.995 116.333 C 134.773 116.509,134.297 116.822,133.937 117.027 C 131.629 118.346,121.100 128.528,117.212 133.200 C 116.022 134.630,114.858 135.984,114.624 136.209 C 114.391 136.434,114.020 136.918,113.800 137.285 C 113.580 137.652,112.140 139.804,110.600 142.068 C 109.060 144.332,107.583 146.548,107.318 146.992 C 105.252 150.452,102.725 155.571,100.204 161.400 C 99.265 163.572,98.042 166.979,97.764 168.200 C 97.613 168.860,97.340 169.592,97.156 169.827 C 96.973 170.062,96.625 171.232,96.384 172.427 C 96.143 173.622,95.711 175.230,95.424 176.000 C 95.138 176.770,94.773 178.468,94.613 179.774 C 94.454 181.080,94.142 182.610,93.919 183.174 C 92.116 187.749,92.098 217.977,93.897 221.428 C 94.119 221.852,94.429 223.268,94.588 224.574 C 94.746 225.880,95.061 227.410,95.287 227.974 C 95.513 228.538,95.929 230.080,96.213 231.400 C 96.736 233.835,97.684 236.822,98.626 239.000 C 98.912 239.660,99.264 240.650,99.410 241.200 C 99.674 242.198,100.583 244.374,101.999 247.400 C 102.411 248.280,102.853 249.270,102.980 249.600 C 103.107 249.930,104.016 251.640,104.999 253.400 C 105.983 255.160,107.062 257.185,107.399 257.900 C 107.735 258.615,108.185 259.200,108.398 259.200 C 108.611 259.200,108.894 259.637,109.028 260.171 C 109.162 260.704,109.616 261.452,110.036 261.833 C 110.456 262.213,110.800 262.744,110.800 263.013 C 110.800 263.282,111.064 263.721,111.386 263.988 C 111.708 264.256,112.589 265.403,113.344 266.537 C 114.098 267.672,115.140 269.065,115.658 269.633 C 116.176 270.201,117.581 271.821,118.781 273.233 C 123.607 278.914,131.933 286.384,138.272 290.719 C 143.844 294.529,145.905 295.747,151.509 298.538 C 158.509 302.025,161.579 303.358,163.658 303.810 C 164.396 303.971,165.355 304.349,165.789 304.651 C 167.166 305.609,170.210 305.354,171.382 304.182 C 172.387 303.177,172.400 303.083,172.400 296.830 L 172.400 290.496 170.810 288.858 C 169.936 287.958,168.721 287.105,168.110 286.963 C 167.500 286.822,166.280 286.386,165.400 285.995 C 163.145 284.992,158.714 282.843,158.000 282.404 C 157.670 282.202,155.870 281.183,154.000 280.140 C 146.874 276.167,135.713 266.712,130.773 260.463 C 128.766 257.924,128.143 257.142,127.014 255.742 C 126.456 255.050,126.000 254.379,126.000 254.250 C 126.000 254.122,125.281 253.068,124.402 251.908 C 123.523 250.749,122.803 249.634,122.802 249.431 C 122.801 249.229,122.539 248.775,122.220 248.422 C 121.442 247.562,116.400 237.550,116.400 236.865 C 116.400 236.567,116.132 235.846,115.805 235.262 C 115.116 234.030,114.110 231.292,113.506 229.000 C 113.275 228.120,112.751 226.364,112.342 225.098 C 111.934 223.833,111.600 222.370,111.600 221.849 C 111.600 221.327,111.341 220.167,111.025 219.271 C 109.322 214.445,109.207 190.127,110.867 185.897 C 111.105 185.291,111.534 183.581,111.821 182.097 C 112.567 178.235,113.537 174.767,114.215 173.538 C 114.537 172.954,114.800 172.178,114.800 171.814 C 114.800 171.449,115.266 170.127,115.835 168.875 C 116.404 167.624,117.146 165.970,117.484 165.200 C 118.498 162.888,121.154 157.709,121.997 156.400 C 128.489 146.315,137.302 136.156,143.240 131.914 C 143.768 131.537,145.223 130.412,146.473 129.414 C 147.723 128.416,148.850 127.600,148.977 127.600 C 149.104 127.600,150.116 126.962,151.226 126.182 C 152.336 125.402,153.639 124.583,154.122 124.361 C 154.605 124.140,155.720 123.529,156.600 123.003 C 159.332 121.372,166.423 118.000,167.121 118.000 C 167.882 118.000,170.569 116.294,171.486 115.229 C 172.856 113.637,172.862 101.846,171.493 100.563 C 170.378 99.519,169.007 99.220,167.200 99.628 M230.200 99.556 C 227.773 100.297,227.599 100.853,227.614 107.789 C 227.628 113.819,227.681 114.261,228.514 115.229 C 229.431 116.294,232.118 118.000,232.879 118.000 C 233.577 118.000,240.668 121.372,243.400 123.003 C 244.280 123.529,245.395 124.140,245.878 124.361 C 246.361 124.583,247.664 125.402,248.774 126.182 C 249.884 126.962,250.896 127.600,251.023 127.600 C 251.150 127.600,252.277 128.416,253.527 129.414 C 254.777 130.412,256.232 131.537,256.760 131.914 C 262.698 136.156,271.511 146.315,278.003 156.400 C 278.846 157.709,281.502 162.888,282.516 165.200 C 282.854 165.970,283.596 167.624,284.165 168.875 C 284.734 170.127,285.200 171.449,285.200 171.814 C 285.200 172.178,285.463 172.954,285.785 173.538 C 286.463 174.767,287.433 178.235,288.179 182.097 C 288.466 183.581,288.895 185.291,289.133 185.897 C 290.793 190.127,290.678 214.445,288.975 219.271 C 288.659 220.167,288.400 221.327,288.400 221.849 C 288.400 222.370,288.066 223.833,287.658 225.098 C 287.249 226.364,286.725 228.120,286.494 229.000 C 285.890 231.292,284.884 234.030,284.195 235.262 C 283.868 235.846,283.600 236.567,283.600 236.865 C 283.600 237.550,278.558 247.562,277.780 248.422 C 277.461 248.775,277.199 249.229,277.198 249.431 C 277.197 249.634,276.477 250.749,275.598 251.908 C 274.719 253.068,274.000 254.122,274.000 254.250 C 274.000 254.379,273.544 255.050,272.986 255.742 C 271.857 257.142,271.234 257.924,269.227 260.463 C 264.287 266.712,253.126 276.167,246.000 280.140 C 244.130 281.183,242.330 282.202,242.000 282.404 C 240.107 283.566,233.336 286.629,231.958 286.946 C 231.385 287.078,230.170 287.868,229.258 288.702 L 227.600 290.218 227.600 296.691 C 227.600 303.093,227.611 303.175,228.618 304.182 C 229.790 305.354,232.834 305.609,234.211 304.651 C 234.645 304.349,235.604 303.971,236.342 303.810 C 239.768 303.064,251.418 297.422,257.200 293.707 C 266.695 287.608,275.078 280.462,281.219 273.233 C 282.419 271.821,283.824 270.201,284.342 269.633 C 284.860 269.065,285.902 267.672,286.656 266.537 C 287.411 265.403,288.292 264.256,288.614 263.988 C 288.936 263.721,289.200 263.282,289.200 263.013 C 289.200 262.744,289.544 262.213,289.964 261.833 C 290.384 261.452,290.838 260.704,290.972 260.171 C 291.106 259.637,291.389 259.200,291.602 259.200 C 291.815 259.200,292.265 258.615,292.601 257.900 C 292.938 257.185,294.017 255.160,295.001 253.400 C 295.984 251.640,296.893 249.930,297.020 249.600 C 297.147 249.270,297.589 248.280,298.001 247.400 C 299.417 244.374,300.326 242.198,300.590 241.200 C 300.736 240.650,301.088 239.660,301.374 239.000 C 302.316 236.822,303.264 233.835,303.787 231.400 C 304.071 230.080,304.487 228.538,304.713 227.974 C 304.939 227.410,305.254 225.880,305.412 224.574 C 305.571 223.268,305.881 221.852,306.103 221.428 C 307.902 217.977,307.884 187.749,306.081 183.174 C 305.858 182.610,305.546 181.080,305.387 179.774 C 305.227 178.468,304.862 176.770,304.576 176.000 C 304.289 175.230,303.857 173.622,303.616 172.427 C 303.375 171.232,303.027 170.062,302.844 169.827 C 302.660 169.592,302.387 168.860,302.236 168.200 C 301.345 164.295,296.218 152.914,292.682 146.992 C 292.417 146.548,290.940 144.332,289.400 142.068 C 287.860 139.804,286.420 137.652,286.200 137.285 C 285.980 136.918,285.609 136.434,285.376 136.209 C 285.142 135.984,283.978 134.630,282.788 133.200 C 278.900 128.528,268.371 118.346,266.063 117.027 C 265.703 116.822,265.227 116.509,265.005 116.333 C 263.052 114.785,261.736 113.855,258.800 111.947 C 253.926 108.781,253.077 108.296,248.400 106.009 C 246.090 104.879,243.722 103.695,243.138 103.378 C 242.554 103.060,241.854 102.800,241.582 102.800 C 241.310 102.800,240.348 102.462,239.444 102.049 C 234.963 100.003,231.657 99.111,230.200 99.556 M194.067 131.070 C 191.824 131.841,191.815 131.877,191.600 140.159 C 191.388 148.343,191.183 149.200,189.437 149.200 C 188.961 149.200,187.548 149.560,186.296 150.000 C 185.044 150.440,183.696 150.800,183.299 150.800 C 182.902 150.800,182.223 151.046,181.789 151.346 C 181.355 151.646,180.550 152.031,180.000 152.199 C 176.651 153.228,170.710 157.706,167.357 161.728 C 162.785 167.213,160.545 179.341,162.800 186.400 C 163.240 187.777,163.600 189.145,163.600 189.440 C 163.600 190.069,164.999 192.844,166.261 194.718 C 167.590 196.691,171.324 200.237,173.065 201.178 C 173.909 201.635,174.870 202.174,175.200 202.376 C 176.396 203.109,179.438 204.353,181.083 204.782 C 182.009 205.024,182.860 205.373,182.974 205.558 C 183.088 205.743,184.117 206.019,185.260 206.170 C 186.403 206.322,187.654 206.615,188.039 206.821 C 188.424 207.027,190.148 207.382,191.870 207.610 C 193.591 207.837,196.260 208.280,197.800 208.594 C 199.340 208.907,201.680 209.350,203.000 209.578 C 206.486 210.180,210.043 211.142,211.262 211.815 C 211.846 212.137,212.594 212.400,212.926 212.400 C 213.619 212.400,217.508 215.358,218.400 216.564 C 221.434 220.665,222.050 226.827,219.877 231.323 C 215.381 240.628,203.594 244.324,190.292 240.598 C 186.546 239.549,180.400 234.771,180.400 232.908 C 180.400 232.682,180.142 232.284,179.827 232.023 C 179.512 231.761,178.768 229.984,178.173 228.074 C 176.520 222.764,176.340 222.645,169.699 222.480 C 160.304 222.245,159.031 223.066,159.960 228.755 C 162.101 241.865,171.811 251.230,186.544 254.394 C 191.798 255.523,191.600 255.155,191.600 263.782 C 191.600 273.919,191.667 274.000,200.000 274.000 C 208.318 274.000,208.400 273.902,208.400 263.902 C 208.400 255.264,209.260 254.000,215.143 254.000 C 215.530 254.000,216.196 253.736,216.624 253.413 C 217.051 253.090,217.670 252.819,218.000 252.811 C 218.836 252.791,222.539 250.894,225.400 249.019 C 228.100 247.250,228.434 246.979,230.400 244.975 C 231.170 244.190,232.115 243.249,232.500 242.885 C 232.885 242.520,233.200 242.020,233.200 241.773 C 233.200 241.526,233.555 241.002,233.990 240.609 C 234.424 240.216,234.895 239.513,235.037 239.047 C 235.179 238.581,235.507 237.930,235.766 237.600 C 239.299 233.105,240.140 217.364,237.160 211.522 C 236.742 210.703,236.400 209.854,236.400 209.636 C 236.400 206.555,224.300 196.800,220.479 196.800 C 220.174 196.800,219.446 196.554,218.862 196.254 C 217.655 195.633,211.502 194.115,208.800 193.771 C 207.810 193.645,205.740 193.293,204.200 192.988 C 202.660 192.683,200.230 192.256,198.800 192.040 C 194.685 191.417,190.738 190.430,188.974 189.582 C 188.079 189.152,187.233 188.800,187.094 188.800 C 186.954 188.800,186.032 188.255,185.044 187.588 C 179.479 183.832,177.953 175.638,181.721 169.746 C 183.130 167.542,186.877 164.400,188.095 164.400 C 188.385 164.400,189.010 164.128,189.485 163.796 C 192.417 161.742,204.553 162.275,209.473 164.674 C 213.462 166.619,217.874 171.859,218.001 174.800 C 218.192 179.234,234.223 180.081,235.045 175.700 C 235.365 173.996,234.917 170.551,234.204 169.221 C 233.903 168.659,233.476 167.625,233.257 166.923 C 231.082 159.967,221.822 152.433,212.966 150.415 C 211.848 150.161,210.363 149.606,209.666 149.182 L 208.400 148.412 208.400 141.032 C 208.400 132.846,208.221 131.954,206.427 131.211 C 204.808 130.540,195.902 130.439,194.067 131.070 " stroke="none" fill="#f5f8fa" fill-rule="evenodd"></path><path id="path1" d="M176.492 56.000 C 175.802 56.643,175.081 56.800,172.813 56.800 C 170.487 56.800,169.872 56.940,169.307 57.600 C 168.773 58.224,168.127 58.400,166.373 58.400 C 164.632 58.400,163.960 58.581,163.400 59.200 C 162.821 59.840,162.168 60.000,160.138 60.000 C 158.133 60.000,157.432 60.168,156.800 60.800 C 156.267 61.333,155.467 61.600,154.400 61.600 C 153.067 61.600,152.800 61.733,152.800 62.400 C 152.800 63.105,152.533 63.200,150.563 63.200 C 148.662 63.200,148.294 63.320,148.116 64.000 C 147.943 64.662,147.570 64.800,145.957 64.800 C 144.440 64.800,143.896 64.978,143.507 65.600 C 143.169 66.142,142.574 66.400,141.666 66.400 C 140.662 66.400,140.273 66.601,140.116 67.200 C 139.957 67.806,139.570 68.000,138.516 68.000 C 137.462 68.000,137.075 68.194,136.916 68.800 C 136.752 69.427,136.370 69.600,135.153 69.600 C 133.867 69.600,133.600 69.737,133.600 70.400 C 133.600 71.052,133.333 71.200,132.163 71.200 C 131.062 71.200,130.676 71.387,130.516 72.000 C 130.357 72.606,129.970 72.800,128.916 72.800 C 127.884 72.800,127.474 72.997,127.326 73.562 C 127.199 74.048,126.632 74.418,125.763 74.581 C 124.954 74.732,124.400 75.073,124.400 75.418 C 124.400 75.772,124.008 76.000,123.400 76.000 C 122.667 76.000,122.400 76.213,122.400 76.800 C 122.400 77.452,122.133 77.600,120.963 77.600 C 119.862 77.600,119.476 77.787,119.316 78.400 C 119.200 78.843,118.770 79.200,118.353 79.200 C 117.867 79.200,117.600 79.483,117.600 80.000 C 117.600 80.652,117.333 80.800,116.163 80.800 C 115.062 80.800,114.676 80.987,114.516 81.600 C 114.400 82.043,113.970 82.400,113.553 82.400 C 113.067 82.400,112.800 82.683,112.800 83.200 C 112.800 83.733,112.533 84.000,112.000 84.000 C 111.467 84.000,111.200 84.267,111.200 84.800 C 111.200 85.419,110.933 85.600,110.023 85.600 C 109.344 85.600,108.624 85.907,108.323 86.326 C 108.035 86.726,107.485 87.170,107.100 87.314 C 106.715 87.457,106.400 87.851,106.400 88.187 C 106.400 88.533,106.052 88.800,105.600 88.800 C 105.067 88.800,104.800 89.067,104.800 89.600 C 104.800 90.133,104.533 90.400,104.000 90.400 C 103.467 90.400,103.200 90.667,103.200 91.200 C 103.200 91.733,102.933 92.000,102.400 92.000 C 101.867 92.000,101.600 92.267,101.600 92.800 C 101.600 93.333,101.333 93.600,100.800 93.600 C 100.267 93.600,100.000 93.867,100.000 94.400 C 100.000 94.940,99.733 95.200,99.181 95.200 C 98.730 95.200,97.945 95.650,97.435 96.200 C 96.925 96.750,96.312 97.200,96.072 97.200 C 95.832 97.200,95.518 97.830,95.374 98.600 C 95.184 99.613,94.902 100.000,94.355 100.000 C 93.867 100.000,93.600 100.282,93.600 100.800 C 93.600 101.333,93.333 101.600,92.800 101.600 C 92.267 101.600,92.000 101.867,92.000 102.400 C 92.000 102.933,91.733 103.200,91.200 103.200 C 90.667 103.200,90.400 103.467,90.400 104.000 C 90.400 104.533,90.133 104.800,89.600 104.800 C 89.067 104.800,88.800 105.067,88.800 105.600 C 88.800 106.065,88.533 106.400,88.163 106.400 C 87.812 106.400,87.435 106.743,87.326 107.163 C 87.216 107.583,86.783 108.016,86.363 108.126 C 85.883 108.251,85.600 108.677,85.600 109.274 C 85.600 109.796,85.240 110.483,84.800 110.800 C 84.360 111.117,84.000 111.697,84.000 112.088 C 84.000 112.533,83.700 112.800,83.200 112.800 C 82.683 112.800,82.400 113.067,82.400 113.553 C 82.400 113.970,82.043 114.400,81.600 114.516 C 80.987 114.676,80.800 115.062,80.800 116.163 C 80.800 117.333,80.652 117.600,80.000 117.600 C 79.483 117.600,79.200 117.867,79.200 118.353 C 79.200 118.770,78.843 119.200,78.400 119.316 C 77.884 119.451,77.600 119.862,77.600 120.474 C 77.600 120.996,77.240 121.683,76.800 122.000 C 76.360 122.317,76.000 122.876,76.000 123.242 C 76.000 123.607,75.640 124.001,75.200 124.116 C 74.587 124.276,74.400 124.662,74.400 125.763 C 74.400 126.933,74.252 127.200,73.600 127.200 C 73.067 127.200,72.800 127.467,72.800 128.000 C 72.800 128.440,72.440 129.160,72.000 129.600 C 71.560 130.040,71.200 130.720,71.200 131.111 C 71.200 131.502,70.840 132.130,70.400 132.507 C 69.960 132.884,69.600 133.601,69.600 134.100 C 69.600 134.599,69.240 135.232,68.800 135.507 C 68.313 135.811,68.000 136.440,68.000 137.114 C 68.000 137.727,67.643 138.528,67.200 138.907 C 66.701 139.334,66.400 140.087,66.400 140.908 C 66.400 141.765,66.121 142.425,65.600 142.800 C 65.051 143.196,64.800 143.835,64.800 144.842 C 64.800 145.970,64.616 146.355,64.000 146.516 C 63.387 146.676,63.200 147.062,63.200 148.163 C 63.200 149.067,62.903 149.897,62.400 150.400 C 61.781 151.019,61.600 151.733,61.600 153.553 C 61.600 155.570,61.486 155.937,60.800 156.116 C 60.123 156.293,60.000 156.662,60.000 158.516 C 60.000 160.370,59.877 160.739,59.200 160.916 C 58.504 161.098,58.400 161.462,58.400 163.701 C 58.400 165.768,58.242 166.419,57.600 167.000 C 56.910 167.624,56.800 168.232,56.800 171.415 C 56.800 174.770,56.727 175.126,56.000 175.316 C 54.739 175.646,54.739 225.954,56.000 226.284 C 56.727 226.474,56.800 226.830,56.800 230.185 C 56.800 233.368,56.910 233.976,57.600 234.600 C 58.242 235.181,58.400 235.832,58.400 237.899 C 58.400 240.138,58.504 240.502,59.200 240.684 C 59.877 240.861,60.000 241.230,60.000 243.084 C 60.000 244.938,60.123 245.307,60.800 245.484 C 61.486 245.663,61.600 246.030,61.600 248.047 C 61.600 249.867,61.781 250.581,62.400 251.200 C 62.903 251.703,63.200 252.533,63.200 253.437 C 63.200 254.538,63.387 254.924,64.000 255.084 C 64.616 255.245,64.800 255.630,64.800 256.758 C 64.800 257.765,65.051 258.404,65.600 258.800 C 66.121 259.175,66.400 259.835,66.400 260.692 C 66.400 261.513,66.701 262.266,67.200 262.693 C 67.643 263.072,68.000 263.873,68.000 264.486 C 68.000 265.160,68.313 265.789,68.800 266.093 C 69.240 266.368,69.600 267.001,69.600 267.500 C 69.600 267.999,69.960 268.716,70.400 269.093 C 70.840 269.470,71.200 270.098,71.200 270.489 C 71.200 270.880,71.560 271.560,72.000 272.000 C 72.440 272.440,72.800 273.160,72.800 273.600 C 72.800 274.133,73.067 274.400,73.600 274.400 C 74.252 274.400,74.400 274.667,74.400 275.837 C 74.400 276.938,74.587 277.324,75.200 277.484 C 75.640 277.599,76.000 277.993,76.000 278.358 C 76.000 278.724,76.360 279.283,76.800 279.600 C 77.240 279.917,77.600 280.604,77.600 281.126 C 77.600 281.738,77.884 282.149,78.400 282.284 C 78.843 282.400,79.200 282.830,79.200 283.247 C 79.200 283.733,79.483 284.000,80.000 284.000 C 80.652 284.000,80.800 284.267,80.800 285.437 C 80.800 286.538,80.987 286.924,81.600 287.084 C 82.043 287.200,82.400 287.630,82.400 288.047 C 82.400 288.533,82.683 288.800,83.200 288.800 C 83.700 288.800,84.000 289.067,84.000 289.512 C 84.000 289.903,84.360 290.483,84.800 290.800 C 85.240 291.117,85.600 291.804,85.600 292.326 C 85.600 292.923,85.883 293.349,86.363 293.474 C 86.783 293.584,87.216 294.017,87.326 294.437 C 87.435 294.857,87.812 295.200,88.163 295.200 C 88.533 295.200,88.800 295.535,88.800 296.000 C 88.800 296.533,89.067 296.800,89.600 296.800 C 90.133 296.800,90.400 297.067,90.400 297.600 C 90.400 298.133,90.667 298.400,91.200 298.400 C 91.733 298.400,92.000 298.667,92.000 299.200 C 92.000 299.733,92.267 300.000,92.800 300.000 C 93.333 300.000,93.600 300.267,93.600 300.800 C 93.600 301.318,93.867 301.600,94.355 301.600 C 94.902 301.600,95.184 301.987,95.374 303.000 C 95.518 303.770,95.832 304.400,96.072 304.400 C 96.312 304.400,96.925 304.850,97.435 305.400 C 97.945 305.950,98.730 306.400,99.181 306.400 C 99.733 306.400,100.000 306.660,100.000 307.200 C 100.000 307.733,100.267 308.000,100.800 308.000 C 101.333 308.000,101.600 308.267,101.600 308.800 C 101.600 309.333,101.867 309.600,102.400 309.600 C 102.933 309.600,103.200 309.867,103.200 310.400 C 103.200 310.933,103.467 311.200,104.000 311.200 C 104.533 311.200,104.800 311.467,104.800 312.000 C 104.800 312.533,105.067 312.800,105.600 312.800 C 106.052 312.800,106.400 313.067,106.400 313.413 C 106.400 313.749,106.715 314.143,107.100 314.286 C 107.485 314.430,108.035 314.874,108.323 315.274 C 108.624 315.693,109.344 316.000,110.023 316.000 C 110.933 316.000,111.200 316.181,111.200 316.800 C 111.200 317.333,111.467 317.600,112.000 317.600 C 112.533 317.600,112.800 317.867,112.800 318.400 C 112.800 318.917,113.067 319.200,113.553 319.200 C 113.970 319.200,114.400 319.557,114.516 320.000 C 114.676 320.613,115.062 320.800,116.163 320.800 C 117.333 320.800,117.600 320.948,117.600 321.600 C 117.600 322.117,117.867 322.400,118.353 322.400 C 118.770 322.400,119.200 322.757,119.316 323.200 C 119.476 323.813,119.862 324.000,120.963 324.000 C 122.133 324.000,122.400 324.148,122.400 324.800 C 122.400 325.387,122.667 325.600,123.400 325.600 C 124.008 325.600,124.400 325.828,124.400 326.182 C 124.400 326.527,124.954 326.868,125.763 327.019 C 126.632 327.182,127.199 327.552,127.326 328.038 C 127.474 328.603,127.884 328.800,128.916 328.800 C 129.970 328.800,130.357 328.994,130.516 329.600 C 130.676 330.213,131.062 330.400,132.163 330.400 C 133.333 330.400,133.600 330.548,133.600 331.200 C 133.600 331.863,133.867 332.000,135.153 332.000 C 136.370 332.000,136.752 332.173,136.916 332.800 C 137.075 333.406,137.462 333.600,138.516 333.600 C 139.570 333.600,139.957 333.794,140.116 334.400 C 140.273 334.999,140.662 335.200,141.666 335.200 C 142.574 335.200,143.169 335.458,143.507 336.000 C 143.896 336.622,144.440 336.800,145.957 336.800 C 147.570 336.800,147.943 336.938,148.116 337.600 C 148.294 338.280,148.662 338.400,150.563 338.400 C 152.533 338.400,152.800 338.495,152.800 339.200 C 152.800 339.867,153.067 340.000,154.400 340.000 C 155.467 340.000,156.267 340.267,156.800 340.800 C 157.432 341.432,158.133 341.600,160.138 341.600 C 162.168 341.600,162.821 341.760,163.400 342.400 C 163.960 343.019,164.632 343.200,166.373 343.200 C 168.127 343.200,168.773 343.376,169.307 344.000 C 169.872 344.660,170.487 344.800,172.813 344.800 C 175.081 344.800,175.802 344.957,176.492 345.600 C 177.837 346.853,222.163 346.853,223.508 345.600 C 224.198 344.957,224.919 344.800,227.187 344.800 C 229.513 344.800,230.128 344.660,230.693 344.000 C 231.227 343.376,231.873 343.200,233.627 343.200 C 235.368 343.200,236.040 343.019,236.600 342.400 C 237.179 341.760,237.832 341.600,239.862 341.600 C 241.867 341.600,242.568 341.432,243.200 340.800 C 243.733 340.267,244.533 340.000,245.600 340.000 C 246.933 340.000,247.200 339.867,247.200 339.200 C 247.200 338.495,247.467 338.400,249.437 338.400 C 251.338 338.400,251.706 338.280,251.884 337.600 C 252.057 336.938,252.430 336.800,254.043 336.800 C 255.560 336.800,256.104 336.622,256.493 336.000 C 256.831 335.458,257.426 335.200,258.334 335.200 C 259.338 335.200,259.727 334.999,259.884 334.400 C 260.043 333.794,260.430 333.600,261.484 333.600 C 262.538 333.600,262.925 333.406,263.084 332.800 C 263.248 332.173,263.630 332.000,264.847 332.000 C 266.133 332.000,266.400 331.863,266.400 331.200 C 266.400 330.548,266.667 330.400,267.837 330.400 C 268.938 330.400,269.324 330.213,269.484 329.600 C 269.643 328.994,270.030 328.800,271.084 328.800 C 272.116 328.800,272.526 328.603,272.674 328.038 C 272.801 327.552,273.368 327.182,274.237 327.019 C 275.046 326.868,275.600 326.527,275.600 326.182 C 275.600 325.828,275.992 325.600,276.600 325.600 C 277.333 325.600,277.600 325.387,277.600 324.800 C 277.600 324.148,277.867 324.000,279.037 324.000 C 280.138 324.000,280.524 323.813,280.684 323.200 C 280.800 322.757,281.230 322.400,281.647 322.400 C 282.133 322.400,282.400 322.117,282.400 321.600 C 282.400 320.948,282.667 320.800,283.837 320.800 C 284.938 320.800,285.324 320.613,285.484 320.000 C 285.600 319.557,286.030 319.200,286.447 319.200 C 286.933 319.200,287.200 318.917,287.200 318.400 C 287.200 317.867,287.467 317.600,288.000 317.600 C 288.533 317.600,288.800 317.333,288.800 316.800 C 288.800 316.181,289.067 316.000,289.977 316.000 C 290.656 316.000,291.376 315.693,291.677 315.274 C 291.965 314.874,292.515 314.430,292.900 314.286 C 293.285 314.143,293.600 313.749,293.600 313.413 C 293.600 313.067,293.948 312.800,294.400 312.800 C 294.933 312.800,295.200 312.533,295.200 312.000 C 295.200 311.467,295.467 311.200,296.000 311.200 C 296.533 311.200,296.800 310.933,296.800 310.400 C 296.800 309.867,297.067 309.600,297.600 309.600 C 298.133 309.600,298.400 309.333,298.400 308.800 C 298.400 308.267,298.667 308.000,299.200 308.000 C 299.733 308.000,300.000 307.733,300.000 307.200 C 300.000 306.660,300.267 306.400,300.819 306.400 C 301.270 306.400,302.055 305.950,302.565 305.400 C 303.075 304.850,303.688 304.400,303.928 304.400 C 304.168 304.400,304.482 303.770,304.626 303.000 C 304.816 301.987,305.098 301.600,305.645 301.600 C 306.133 301.600,306.400 301.318,306.400 300.800 C 306.400 300.267,306.667 300.000,307.200 300.000 C 307.733 300.000,308.000 299.733,308.000 299.200 C 308.000 298.667,308.267 298.400,308.800 298.400 C 309.333 298.400,309.600 298.133,309.600 297.600 C 309.600 297.067,309.867 296.800,310.400 296.800 C 310.933 296.800,311.200 296.533,311.200 296.000 C 311.200 295.535,311.467 295.200,311.837 295.200 C 312.188 295.200,312.565 294.857,312.674 294.437 C 312.784 294.017,313.217 293.584,313.637 293.474 C 314.117 293.349,314.400 292.923,314.400 292.326 C 314.400 291.804,314.760 291.117,315.200 290.800 C 315.640 290.483,316.000 289.903,316.000 289.512 C 316.000 289.067,316.300 288.800,316.800 288.800 C 317.317 288.800,317.600 288.533,317.600 288.047 C 317.600 287.630,317.957 287.200,318.400 287.084 C 319.013 286.924,319.200 286.538,319.200 285.437 C 319.200 284.267,319.348 284.000,320.000 284.000 C 320.517 284.000,320.800 283.733,320.800 283.247 C 320.800 282.830,321.157 282.400,321.600 282.284 C 322.116 282.149,322.400 281.738,322.400 281.126 C 322.400 280.604,322.760 279.917,323.200 279.600 C 323.640 279.283,324.000 278.724,324.000 278.358 C 324.000 277.993,324.360 277.599,324.800 277.484 C 325.413 277.324,325.600 276.938,325.600 275.837 C 325.600 274.667,325.748 274.400,326.400 274.400 C 326.933 274.400,327.200 274.133,327.200 273.600 C 327.200 273.160,327.560 272.440,328.000 272.000 C 328.440 271.560,328.800 270.880,328.800 270.489 C 328.800 270.098,329.160 269.470,329.600 269.093 C 330.040 268.716,330.400 267.999,330.400 267.500 C 330.400 267.001,330.760 266.368,331.200 266.093 C 331.687 265.789,332.000 265.160,332.000 264.486 C 332.000 263.873,332.357 263.072,332.800 262.693 C 333.299 262.266,333.600 261.513,333.600 260.692 C 333.600 259.835,333.879 259.175,334.400 258.800 C 334.949 258.404,335.200 257.765,335.200 256.758 C 335.200 255.630,335.384 255.245,336.000 255.084 C 336.613 254.924,336.800 254.538,336.800 253.437 C 336.800 252.533,337.097 251.703,337.600 251.200 C 338.219 250.581,338.400 249.867,338.400 248.047 C 338.400 246.030,338.514 245.663,339.200 245.484 C 339.877 245.307,340.000 244.938,340.000 243.084 C 340.000 241.230,340.123 240.861,340.800 240.684 C 341.496 240.502,341.600 240.138,341.600 237.899 C 341.600 235.832,341.758 235.181,342.400 234.600 C 343.090 233.976,343.200 233.368,343.200 230.185 C 343.200 226.830,343.273 226.474,344.000 226.284 C 344.789 226.078,344.800 225.738,344.800 200.800 C 344.800 175.862,344.789 175.522,344.000 175.316 C 343.273 175.126,343.200 174.770,343.200 171.415 C 343.200 168.232,343.090 167.624,342.400 167.000 C 341.758 166.419,341.600 165.768,341.600 163.701 C 341.600 161.462,341.496 161.098,340.800 160.916 C 340.123 160.739,340.000 160.370,340.000 158.516 C 340.000 156.662,339.877 156.293,339.200 156.116 C 338.514 155.937,338.400 155.570,338.400 153.553 C 338.400 151.733,338.219 151.019,337.600 150.400 C 337.097 149.897,336.800 149.067,336.800 148.163 C 336.800 147.062,336.613 146.676,336.000 146.516 C 335.384 146.355,335.200 145.970,335.200 144.842 C 335.200 143.835,334.949 143.196,334.400 142.800 C 333.879 142.425,333.600 141.765,333.600 140.908 C 333.600 140.087,333.299 139.334,332.800 138.907 C 332.357 138.528,332.000 137.727,332.000 137.114 C 332.000 136.440,331.687 135.811,331.200 135.507 C 330.760 135.232,330.400 134.599,330.400 134.100 C 330.400 133.601,330.040 132.884,329.600 132.507 C 329.160 132.130,328.800 131.502,328.800 131.111 C 328.800 130.720,328.440 130.040,328.000 129.600 C 327.560 129.160,327.200 128.440,327.200 128.000 C 327.200 127.467,326.933 127.200,326.400 127.200 C 325.748 127.200,325.600 126.933,325.600 125.763 C 325.600 124.662,325.413 124.276,324.800 124.116 C 324.360 124.001,324.000 123.607,324.000 123.242 C 324.000 122.876,323.640 122.317,323.200 122.000 C 322.760 121.683,322.400 120.996,322.400 120.474 C 322.400 119.862,322.116 119.451,321.600 119.316 C 321.157 119.200,320.800 118.770,320.800 118.353 C 320.800 117.867,320.517 117.600,320.000 117.600 C 319.348 117.600,319.200 117.333,319.200 116.163 C 319.200 115.062,319.013 114.676,318.400 114.516 C 317.957 114.400,317.600 113.970,317.600 113.553 C 317.600 113.067,317.317 112.800,316.800 112.800 C 316.300 112.800,316.000 112.533,316.000 112.088 C 316.000 111.697,315.640 111.117,315.200 110.800 C 314.760 110.483,314.400 109.796,314.400 109.274 C 314.400 108.662,314.116 108.251,313.600 108.116 C 313.160 108.001,312.800 107.641,312.800 107.316 C 312.800 106.991,312.440 106.631,312.000 106.516 C 311.557 106.400,311.200 105.970,311.200 105.553 C 311.200 105.067,310.917 104.800,310.400 104.800 C 309.867 104.800,309.600 104.533,309.600 104.000 C 309.600 103.467,309.333 103.200,308.800 103.200 C 308.267 103.200,308.000 102.933,308.000 102.400 C 308.000 101.867,307.733 101.600,307.200 101.600 C 306.667 101.600,306.400 101.333,306.400 100.800 C 306.400 100.282,306.133 100.000,305.645 100.000 C 305.098 100.000,304.816 99.613,304.626 98.600 C 304.482 97.830,304.168 97.200,303.928 97.200 C 303.688 97.200,303.075 96.750,302.565 96.200 C 302.055 95.650,301.270 95.200,300.819 95.200 C 300.267 95.200,300.000 94.940,300.000 94.400 C 300.000 93.867,299.733 93.600,299.200 93.600 C 298.667 93.600,298.400 93.333,298.400 92.800 C 298.400 92.267,298.133 92.000,297.600 92.000 C 297.067 92.000,296.800 91.733,296.800 91.200 C 296.800 90.667,296.533 90.400,296.000 90.400 C 295.467 90.400,295.200 90.133,295.200 89.600 C 295.200 89.067,294.933 88.800,294.400 88.800 C 293.948 88.800,293.600 88.533,293.600 88.187 C 293.600 87.851,293.285 87.457,292.900 87.314 C 292.515 87.170,291.965 86.726,291.677 86.326 C 291.376 85.907,290.656 85.600,289.977 85.600 C 289.067 85.600,288.800 85.419,288.800 84.800 C 288.800 84.267,288.533 84.000,288.000 84.000 C 287.467 84.000,287.200 83.733,287.200 83.200 C 287.200 82.683,286.933 82.400,286.447 82.400 C 286.030 82.400,285.600 82.043,285.484 81.600 C 285.324 80.987,284.938 80.800,283.837 80.800 C 282.667 80.800,282.400 80.652,282.400 80.000 C 282.400 79.483,282.133 79.200,281.647 79.200 C 281.230 79.200,280.800 78.843,280.684 78.400 C 280.524 77.787,280.138 77.600,279.037 77.600 C 277.867 77.600,277.600 77.452,277.600 76.800 C 277.600 76.213,277.333 76.000,276.600 76.000 C 275.992 76.000,275.600 75.772,275.600 75.418 C 275.600 75.073,275.046 74.732,274.237 74.581 C 273.368 74.418,272.801 74.048,272.674 73.562 C 272.526 72.997,272.116 72.800,271.084 72.800 C 270.030 72.800,269.643 72.606,269.484 72.000 C 269.324 71.387,268.938 71.200,267.837 71.200 C 266.667 71.200,266.400 71.052,266.400 70.400 C 266.400 69.737,266.133 69.600,264.847 69.600 C 263.630 69.600,263.248 69.427,263.084 68.800 C 262.925 68.194,262.538 68.000,261.484 68.000 C 260.430 68.000,260.043 67.806,259.884 67.200 C 259.727 66.601,259.338 66.400,258.334 66.400 C 257.426 66.400,256.831 66.142,256.493 65.600 C 256.104 64.978,255.560 64.800,254.043 64.800 C 252.430 64.800,252.057 64.662,251.884 64.000 C 251.706 63.320,251.338 63.200,249.437 63.200 C 247.467 63.200,247.200 63.105,247.200 62.400 C 247.200 61.733,246.933 61.600,245.600 61.600 C 244.533 61.600,243.733 61.333,243.200 60.800 C 242.568 60.168,241.867 60.000,239.862 60.000 C 237.832 60.000,237.179 59.840,236.600 59.200 C 236.040 58.581,235.368 58.400,233.627 58.400 C 231.873 58.400,231.227 58.224,230.693 57.600 C 230.128 56.940,229.513 56.800,227.187 56.800 C 224.919 56.800,224.198 56.643,223.508 56.000 C 222.670 55.220,222.096 55.200,200.000 55.200 C 177.904 55.200,177.330 55.220,176.492 56.000 M170.378 98.389 C 173.393 99.927,173.600 100.509,173.600 107.467 C 173.600 111.889,173.439 114.010,173.031 114.988 C 172.496 116.268,169.609 118.784,168.640 118.814 C 168.398 118.821,167.480 119.175,166.600 119.600 C 165.720 120.025,164.820 120.381,164.600 120.390 C 164.380 120.400,162.490 121.305,160.400 122.401 C 158.310 123.497,156.147 124.621,155.594 124.897 C 149.089 128.149,130.000 144.659,130.000 147.034 C 130.000 147.174,129.315 148.124,128.478 149.144 C 127.117 150.804,124.613 154.428,123.326 156.600 C 123.065 157.040,121.684 159.740,120.257 162.600 C 117.840 167.442,117.280 168.729,115.995 172.400 C 115.725 173.170,115.179 174.700,114.782 175.800 C 114.384 176.900,113.934 178.610,113.783 179.600 C 113.631 180.590,113.344 181.712,113.144 182.092 C 111.096 185.993,110.223 206.920,111.754 215.400 C 113.281 223.857,115.012 230.435,116.611 233.860 C 116.935 234.554,117.200 235.262,117.200 235.434 C 117.200 236.321,121.995 245.848,123.847 248.641 C 124.591 249.764,125.200 250.804,125.200 250.953 C 125.200 251.102,125.875 252.110,126.700 253.192 C 127.525 254.275,128.703 255.839,129.317 256.667 C 132.297 260.684,138.418 267.138,142.151 270.200 C 143.223 271.080,144.303 271.986,144.551 272.214 C 144.798 272.442,145.900 273.252,147.000 274.014 C 148.100 274.776,149.144 275.625,149.320 275.900 C 149.496 276.175,149.807 276.400,150.012 276.400 C 150.217 276.400,151.423 277.070,152.692 277.889 C 156.970 280.648,162.017 283.182,168.084 285.617 C 169.359 286.129,171.039 287.220,171.884 288.086 L 173.400 289.638 173.400 296.786 C 173.400 304.787,173.148 305.535,170.172 306.357 C 168.895 306.709,164.322 305.942,163.405 305.222 C 163.182 305.047,162.280 304.683,161.400 304.412 C 156.968 303.050,143.682 296.198,139.316 293.024 C 138.390 292.351,136.982 291.350,136.187 290.800 C 135.392 290.250,134.439 289.510,134.071 289.155 C 133.702 288.800,133.196 288.440,132.947 288.355 C 130.063 287.369,112.457 268.679,110.004 264.000 C 109.716 263.450,109.372 262.910,109.239 262.800 C 108.731 262.378,106.800 259.338,106.800 258.958 C 106.800 258.739,106.576 258.336,106.303 258.063 C 105.804 257.564,103.211 253.075,102.339 251.200 C 102.083 250.650,101.280 248.940,100.555 247.400 C 99.829 245.860,98.977 243.880,98.660 243.000 C 98.344 242.120,97.859 240.770,97.582 240.000 C 97.305 239.230,96.746 237.757,96.339 236.726 C 95.933 235.695,95.599 234.525,95.598 234.126 C 95.596 233.727,95.326 232.884,94.998 232.254 C 94.669 231.624,94.400 230.789,94.400 230.398 C 94.400 230.007,93.950 227.956,93.400 225.839 C 92.850 223.722,92.398 221.317,92.395 220.495 C 92.393 219.673,92.120 218.010,91.789 216.800 C 90.894 213.531,90.882 191.207,91.774 187.816 C 92.118 186.505,92.400 184.827,92.400 184.089 C 92.400 182.623,94.165 174.646,94.987 172.400 C 95.269 171.630,95.686 170.280,95.914 169.400 C 96.499 167.141,97.508 164.384,98.205 163.138 C 98.532 162.554,98.800 161.854,98.800 161.582 C 98.800 161.000,99.758 158.884,102.504 153.400 C 105.477 147.461,105.713 147.018,106.013 146.800 C 106.164 146.690,106.589 146.060,106.956 145.400 C 107.707 144.052,108.300 143.130,110.593 139.749 C 112.423 137.051,112.330 137.178,114.242 134.800 C 117.159 131.172,119.469 128.591,122.450 125.630 C 127.035 121.075,128.224 120.023,132.800 116.473 C 138.847 111.782,139.095 111.600,139.432 111.600 C 139.600 111.600,140.067 111.301,140.471 110.936 C 141.226 110.252,142.110 109.695,144.200 108.583 C 144.860 108.232,146.120 107.515,147.000 106.989 C 150.602 104.835,157.842 101.480,162.800 99.666 C 164.010 99.224,165.720 98.595,166.600 98.270 C 168.714 97.487,168.604 97.484,170.378 98.389 M234.088 98.574 C 240.695 100.784,248.227 104.135,253.000 106.989 C 253.880 107.515,255.140 108.232,255.800 108.583 C 257.890 109.695,258.774 110.252,259.529 110.936 C 259.933 111.301,260.400 111.600,260.568 111.600 C 260.905 111.600,261.153 111.782,267.200 116.473 C 271.776 120.023,272.965 121.075,277.550 125.630 C 280.531 128.591,282.841 131.172,285.758 134.800 C 287.670 137.178,287.577 137.051,289.407 139.749 C 291.700 143.130,292.293 144.052,293.044 145.400 C 293.411 146.060,293.836 146.690,293.987 146.800 C 294.287 147.018,294.523 147.461,297.496 153.400 C 300.242 158.884,301.200 161.000,301.200 161.582 C 301.200 161.854,301.468 162.554,301.795 163.138 C 302.492 164.384,303.501 167.141,304.086 169.400 C 304.314 170.280,304.731 171.630,305.013 172.400 C 305.835 174.646,307.600 182.623,307.600 184.089 C 307.600 184.827,307.891 186.505,308.246 187.816 C 309.191 191.306,309.191 213.063,308.246 216.658 C 307.891 218.009,307.600 219.762,307.600 220.553 C 307.600 221.343,307.150 223.722,306.600 225.839 C 306.050 227.956,305.600 230.007,305.600 230.398 C 305.600 230.789,305.331 231.624,305.002 232.254 C 304.674 232.884,304.404 233.727,304.402 234.126 C 304.401 234.525,304.067 235.695,303.661 236.726 C 303.254 237.757,302.695 239.230,302.418 240.000 C 302.141 240.770,301.656 242.120,301.340 243.000 C 301.023 243.880,300.171 245.860,299.445 247.400 C 298.720 248.940,297.917 250.650,297.661 251.200 C 296.789 253.075,294.196 257.564,293.697 258.063 C 293.424 258.336,293.200 258.739,293.200 258.958 C 293.200 259.338,291.269 262.378,290.761 262.800 C 290.628 262.910,290.284 263.450,289.996 264.000 C 287.563 268.643,269.915 287.377,267.053 288.355 C 266.804 288.440,266.298 288.800,265.929 289.155 C 265.561 289.510,264.608 290.250,263.813 290.800 C 263.018 291.350,261.610 292.351,260.684 293.024 C 256.318 296.198,243.032 303.050,238.600 304.412 C 237.720 304.683,236.818 305.047,236.595 305.222 C 235.678 305.942,231.105 306.709,229.828 306.357 C 226.983 305.571,226.615 304.645,226.470 297.892 C 226.278 288.966,226.870 287.641,231.958 285.600 C 237.972 283.188,243.040 280.642,247.308 277.889 C 248.577 277.070,249.783 276.400,249.988 276.400 C 250.193 276.400,250.504 276.175,250.680 275.900 C 250.856 275.625,251.900 274.776,253.000 274.014 C 254.100 273.252,255.202 272.442,255.449 272.214 C 255.697 271.986,256.777 271.080,257.849 270.200 C 261.582 267.138,267.703 260.684,270.683 256.667 C 271.297 255.839,272.475 254.275,273.300 253.192 C 274.125 252.110,274.800 251.102,274.800 250.953 C 274.800 250.804,275.409 249.764,276.153 248.641 C 278.005 245.848,282.800 236.321,282.800 235.434 C 282.800 235.262,283.065 234.554,283.389 233.860 C 284.989 230.432,286.724 223.840,288.245 215.400 C 289.810 206.719,289.163 190.075,286.971 182.600 C 286.648 181.500,286.221 179.790,286.022 178.800 C 285.546 176.430,284.036 172.082,282.204 167.800 C 281.560 166.295,277.301 157.677,276.669 156.600 C 275.443 154.510,272.894 150.817,271.522 149.144 C 270.685 148.124,270.000 147.174,270.000 147.034 C 270.000 144.659,250.911 128.149,244.406 124.897 C 243.853 124.621,241.690 123.497,239.600 122.401 C 237.510 121.305,235.620 120.400,235.400 120.390 C 235.180 120.381,234.280 120.025,233.400 119.600 C 232.520 119.175,231.602 118.821,231.360 118.814 C 230.391 118.784,227.504 116.268,226.969 114.988 C 225.972 112.601,226.171 101.599,227.236 100.245 C 227.871 99.437,230.309 97.775,231.088 97.618 C 231.136 97.608,232.486 98.038,234.088 98.574 M208.115 130.773 L 209.800 132.345 209.810 140.273 L 209.819 148.200 210.810 148.326 C 213.904 148.721,220.257 151.377,223.600 153.673 C 235.007 161.506,240.817 177.474,232.976 179.442 C 227.487 180.820,218.062 178.986,217.344 176.400 C 216.580 173.648,213.892 169.083,212.331 167.886 C 210.346 166.364,208.335 165.200,207.682 165.196 C 207.307 165.193,206.100 164.899,205.000 164.541 C 202.144 163.613,195.009 163.648,191.600 164.606 C 184.395 166.631,181.200 170.442,181.200 177.010 C 181.200 185.931,185.867 188.906,203.800 191.417 C 206.220 191.756,209.128 192.296,210.262 192.617 C 211.395 192.938,212.655 193.197,213.062 193.194 C 214.683 193.181,221.118 195.416,225.594 197.547 C 229.790 199.543,234.779 204.008,236.558 207.358 C 237.130 208.435,237.750 209.515,237.936 209.758 C 240.307 212.862,241.141 227.412,239.257 232.800 C 236.210 241.514,229.132 249.654,222.000 252.645 C 221.670 252.783,220.671 253.234,219.779 253.646 C 217.820 254.551,211.746 256.400,210.730 256.400 C 209.831 256.400,209.868 256.022,209.988 264.047 C 210.144 274.426,209.130 275.600,200.000 275.600 C 190.870 275.600,189.856 274.426,190.012 264.047 C 190.135 255.873,190.206 256.400,188.975 256.400 C 186.894 256.400,178.618 253.748,176.400 252.371 C 176.070 252.166,175.405 251.827,174.922 251.617 C 172.136 250.409,166.433 245.388,164.076 242.069 C 162.816 240.295,159.603 233.949,159.587 233.204 C 159.580 232.872,159.226 231.610,158.800 230.400 C 156.349 223.432,159.384 220.618,169.078 220.868 C 176.240 221.053,178.486 222.457,179.364 227.299 C 179.652 228.885,181.085 232.237,181.895 233.217 C 183.618 235.301,184.511 236.157,186.056 237.204 C 187.015 237.854,188.079 238.389,188.420 238.393 C 188.761 238.397,189.245 238.605,189.495 238.855 C 190.022 239.382,194.949 240.309,199.000 240.644 C 201.829 240.878,209.059 239.728,210.127 238.875 C 210.387 238.668,211.050 238.363,211.600 238.199 C 215.485 237.037,218.766 232.064,219.721 225.892 C 220.799 218.921,215.020 213.079,205.564 211.583 C 204.334 211.388,202.882 211.059,202.338 210.853 C 201.795 210.646,199.561 210.265,197.375 210.005 C 195.189 209.746,192.590 209.295,191.600 209.003 C 190.610 208.710,189.033 208.362,188.096 208.230 C 185.839 207.911,178.265 205.386,175.600 204.064 C 171.861 202.210,164.400 195.713,164.400 194.312 C 164.400 194.065,164.160 193.579,163.866 193.231 C 163.013 192.222,161.196 186.734,161.198 185.173 C 161.199 184.389,161.003 182.682,160.762 181.380 C 159.203 172.943,163.916 161.874,171.707 155.674 C 176.335 151.991,184.317 148.400,187.873 148.400 C 190.139 148.400,190.108 148.518,190.157 139.918 L 190.200 132.343 191.885 130.772 L 193.569 129.200 200.000 129.200 L 206.431 129.200 208.115 130.773 " stroke="none" fill="#2473cc" fill-rule="evenodd"></path><path id="path2" d="M166.600 98.270 C 165.720 98.595,164.010 99.224,162.800 99.666 C 157.842 101.480,150.602 104.835,147.000 106.989 C 146.120 107.515,144.860 108.232,144.200 108.583 C 142.110 109.695,141.226 110.252,140.471 110.936 C 140.067 111.301,139.600 111.600,139.432 111.600 C 139.095 111.600,138.847 111.782,132.800 116.473 C 128.224 120.023,127.035 121.075,122.450 125.630 C 119.469 128.591,117.159 131.172,114.242 134.800 C 112.330 137.178,112.423 137.051,110.593 139.749 C 108.300 143.130,107.707 144.052,106.956 145.400 C 106.589 146.060,106.164 146.690,106.013 146.800 C 105.713 147.018,105.477 147.461,102.504 153.400 C 99.758 158.884,98.800 161.000,98.800 161.582 C 98.800 161.854,98.532 162.554,98.205 163.138 C 97.508 164.384,96.499 167.141,95.914 169.400 C 95.686 170.280,95.269 171.630,94.987 172.400 C 94.165 174.646,92.400 182.623,92.400 184.089 C 92.400 184.827,92.118 186.505,91.774 187.816 C 90.882 191.207,90.894 213.531,91.789 216.800 C 92.120 218.010,92.393 219.673,92.395 220.495 C 92.398 221.317,92.850 223.722,93.400 225.839 C 93.950 227.956,94.400 230.007,94.400 230.398 C 94.400 230.789,94.669 231.624,94.998 232.254 C 95.326 232.884,95.596 233.727,95.598 234.126 C 95.599 234.525,95.933 235.695,96.339 236.726 C 96.746 237.757,97.305 239.230,97.582 240.000 C 97.859 240.770,98.344 242.120,98.660 243.000 C 98.977 243.880,99.829 245.860,100.555 247.400 C 101.280 248.940,102.083 250.650,102.339 251.200 C 103.211 253.075,105.804 257.564,106.303 258.063 C 106.576 258.336,106.800 258.739,106.800 258.958 C 106.800 259.338,108.731 262.378,109.239 262.800 C 109.372 262.910,109.716 263.450,110.004 264.000 C 112.457 268.679,130.063 287.369,132.947 288.355 C 133.196 288.440,133.702 288.800,134.071 289.155 C 134.439 289.510,135.392 290.250,136.187 290.800 C 136.982 291.350,138.390 292.351,139.316 293.024 C 143.682 296.198,156.968 303.050,161.400 304.412 C 162.280 304.683,163.182 305.047,163.405 305.222 C 164.322 305.942,168.895 306.709,170.172 306.357 C 173.148 305.535,173.400 304.787,173.400 296.786 L 173.400 289.638 171.884 288.086 C 171.039 287.220,169.359 286.129,168.084 285.617 C 162.017 283.182,156.970 280.648,152.692 277.889 C 151.423 277.070,150.217 276.400,150.012 276.400 C 149.807 276.400,149.496 276.175,149.320 275.900 C 149.144 275.625,148.100 274.776,147.000 274.014 C 145.900 273.252,144.798 272.442,144.551 272.214 C 144.303 271.986,143.223 271.080,142.151 270.200 C 138.418 267.138,132.297 260.684,129.317 256.667 C 128.703 255.839,127.525 254.275,126.700 253.192 C 125.875 252.110,125.200 251.102,125.200 250.953 C 125.200 250.804,124.591 249.764,123.847 248.641 C 121.995 245.848,117.200 236.321,117.200 235.434 C 117.200 235.262,116.935 234.554,116.611 233.860 C 115.012 230.435,113.281 223.857,111.754 215.400 C 110.223 206.920,111.096 185.993,113.144 182.092 C 113.344 181.712,113.631 180.590,113.783 179.600 C 113.934 178.610,114.384 176.900,114.782 175.800 C 115.179 174.700,115.725 173.170,115.995 172.400 C 117.280 168.729,117.840 167.442,120.257 162.600 C 121.684 159.740,123.065 157.040,123.326 156.600 C 124.613 154.428,127.117 150.804,128.478 149.144 C 129.315 148.124,130.000 147.174,130.000 147.034 C 130.000 144.659,149.089 128.149,155.594 124.897 C 156.147 124.621,158.310 123.497,160.400 122.401 C 162.490 121.305,164.380 120.400,164.600 120.390 C 164.820 120.381,165.720 120.025,166.600 119.600 C 167.480 119.175,168.398 118.821,168.640 118.814 C 169.609 118.784,172.496 116.268,173.031 114.988 C 173.439 114.010,173.600 111.889,173.600 107.467 C 173.600 100.509,173.393 99.927,170.378 98.389 C 168.604 97.484,168.714 97.487,166.600 98.270 M229.536 98.409 C 226.604 99.958,226.400 100.546,226.400 107.467 C 226.400 111.889,226.561 114.010,226.969 114.988 C 227.504 116.268,230.391 118.784,231.360 118.814 C 231.602 118.821,232.520 119.175,233.400 119.600 C 234.280 120.025,235.180 120.381,235.400 120.390 C 235.620 120.400,237.510 121.305,239.600 122.401 C 241.690 123.497,243.853 124.621,244.406 124.897 C 250.911 128.149,270.000 144.659,270.000 147.034 C 270.000 147.174,270.685 148.124,271.522 149.144 C 276.213 154.865,281.611 165.241,284.972 175.000 C 285.350 176.100,285.823 177.810,286.022 178.800 C 286.221 179.790,286.648 181.500,286.971 182.600 C 289.163 190.075,289.810 206.719,288.245 215.400 C 286.724 223.840,284.989 230.432,283.389 233.860 C 283.065 234.554,282.800 235.262,282.800 235.434 C 282.800 236.321,278.005 245.848,276.153 248.641 C 275.409 249.764,274.800 250.804,274.800 250.953 C 274.800 251.102,274.125 252.110,273.300 253.192 C 272.475 254.275,271.297 255.839,270.683 256.667 C 267.703 260.684,261.582 267.138,257.849 270.200 C 256.777 271.080,255.697 271.986,255.449 272.214 C 255.202 272.442,254.100 273.252,253.000 274.014 C 251.900 274.776,250.856 275.625,250.680 275.900 C 250.504 276.175,250.193 276.400,249.988 276.400 C 249.783 276.400,248.577 277.070,247.308 277.889 C 243.040 280.642,237.972 283.188,231.958 285.600 C 226.870 287.641,226.278 288.966,226.470 297.892 C 226.615 304.645,226.983 305.571,229.828 306.357 C 231.105 306.709,235.678 305.942,236.595 305.222 C 236.818 305.047,237.720 304.683,238.600 304.412 C 243.032 303.050,256.318 296.198,260.684 293.024 C 261.610 292.351,263.018 291.350,263.813 290.800 C 264.608 290.250,265.561 289.510,265.929 289.155 C 266.298 288.800,266.804 288.440,267.053 288.355 C 269.915 287.377,287.563 268.643,289.996 264.000 C 290.284 263.450,290.628 262.910,290.761 262.800 C 291.269 262.378,293.200 259.338,293.200 258.958 C 293.200 258.739,293.424 258.336,293.697 258.063 C 294.196 257.564,296.789 253.075,297.661 251.200 C 297.917 250.650,298.720 248.940,299.445 247.400 C 300.171 245.860,301.023 243.880,301.340 243.000 C 301.656 242.120,302.141 240.770,302.418 240.000 C 302.695 239.230,303.254 237.757,303.661 236.726 C 304.067 235.695,304.401 234.525,304.402 234.126 C 304.404 233.727,304.674 232.884,305.002 232.254 C 305.331 231.624,305.600 230.789,305.600 230.398 C 305.600 230.007,306.050 227.956,306.600 225.839 C 307.150 223.722,307.600 221.343,307.600 220.553 C 307.600 219.762,307.891 218.009,308.246 216.658 C 309.191 213.063,309.191 191.306,308.246 187.816 C 307.891 186.505,307.600 184.827,307.600 184.089 C 307.600 182.623,305.835 174.646,305.013 172.400 C 304.731 171.630,304.314 170.280,304.086 169.400 C 303.501 167.141,302.492 164.384,301.795 163.138 C 301.468 162.554,301.200 161.854,301.200 161.582 C 301.200 161.000,300.242 158.884,297.496 153.400 C 294.523 147.461,294.287 147.018,293.987 146.800 C 293.836 146.690,293.411 146.060,293.044 145.400 C 292.293 144.052,291.700 143.130,289.407 139.749 C 287.577 137.051,287.670 137.178,285.758 134.800 C 282.841 131.172,280.531 128.591,277.550 125.630 C 272.965 121.075,271.776 120.023,267.200 116.473 C 261.153 111.782,260.905 111.600,260.568 111.600 C 260.400 111.600,259.933 111.301,259.529 110.936 C 258.774 110.252,257.890 109.695,255.800 108.583 C 255.140 108.232,253.880 107.515,253.000 106.989 C 249.759 105.051,243.592 102.117,239.000 100.327 C 237.030 99.560,231.259 97.583,231.088 97.618 C 231.039 97.627,230.341 97.983,229.536 98.409 M171.900 100.232 L 173.200 101.588 173.200 107.407 C 173.200 115.706,172.653 116.626,166.200 119.181 C 146.532 126.966,129.151 143.197,119.468 162.819 C 118.000 165.792,116.800 168.523,116.800 168.889 C 116.800 169.254,116.647 169.647,116.461 169.762 C 115.804 170.168,112.930 180.054,111.509 186.800 C 110.322 192.431,110.169 211.470,111.271 216.400 C 111.640 218.050,112.058 220.120,112.202 221.000 C 112.639 223.686,114.787 230.755,116.517 235.200 C 122.617 250.868,133.369 264.509,148.600 275.901 C 152.824 279.060,164.714 285.265,169.021 286.557 C 169.472 286.693,170.552 287.531,171.421 288.420 L 173.000 290.037 173.135 296.624 L 173.269 303.211 171.875 304.605 C 170.051 306.429,168.496 306.436,163.548 304.640 C 157.577 302.472,153.881 300.767,146.261 296.666 C 133.065 289.563,118.147 275.602,109.381 262.154 C 107.303 258.965,102.400 250.532,102.400 250.146 C 102.400 250.039,101.663 248.387,100.763 246.476 C 98.895 242.509,95.120 231.376,94.430 227.800 C 94.176 226.480,93.716 224.320,93.408 223.000 C 90.966 212.519,91.056 188.950,93.571 180.600 C 93.770 179.940,94.053 178.680,94.200 177.800 C 94.681 174.924,96.757 168.103,98.642 163.200 C 107.569 139.991,124.893 120.044,147.000 107.519 C 150.006 105.816,156.988 102.400,157.463 102.400 C 157.582 102.400,158.246 102.143,158.940 101.828 C 166.888 98.221,169.646 97.881,171.900 100.232 M233.400 98.986 C 234.623 99.251,238.784 100.795,241.060 101.828 C 241.754 102.143,242.418 102.400,242.537 102.400 C 243.012 102.400,249.994 105.816,253.000 107.519 C 272.419 118.521,288.287 135.353,297.760 155.000 C 301.504 162.767,304.893 172.375,305.800 177.800 C 305.947 178.680,306.230 179.940,306.429 180.600 C 308.944 188.950,309.034 212.519,306.592 223.000 C 306.284 224.320,305.824 226.480,305.570 227.800 C 304.880 231.376,301.105 242.509,299.237 246.476 C 298.337 248.387,297.600 250.039,297.600 250.146 C 297.600 250.501,292.712 258.957,290.863 261.800 C 281.930 275.537,267.089 289.482,253.778 296.645 C 237.901 305.189,230.895 307.375,228.160 304.640 L 226.800 303.280 226.800 296.894 C 226.800 289.364,227.283 288.230,231.200 286.561 C 237.600 283.833,240.448 282.477,244.000 280.465 C 247.335 278.576,250.122 276.857,251.400 275.901 C 266.631 264.509,277.383 250.868,283.483 235.200 C 285.213 230.755,287.361 223.686,287.798 221.000 C 287.942 220.120,288.360 218.050,288.729 216.400 C 290.627 207.911,289.515 189.516,286.420 178.200 C 279.248 151.979,258.845 129.095,233.800 119.181 C 227.350 116.628,226.800 115.704,226.800 107.427 L 226.800 101.628 228.019 100.239 C 229.188 98.908,230.312 98.400,231.600 98.622 C 231.930 98.679,232.740 98.843,233.400 98.986 M191.885 130.772 L 190.200 132.343 190.157 139.918 C 190.108 148.518,190.139 148.400,187.873 148.400 C 184.317 148.400,176.335 151.991,171.707 155.674 C 163.916 161.874,159.203 172.943,160.762 181.380 C 161.003 182.682,161.199 184.389,161.198 185.173 C 161.196 186.734,163.013 192.222,163.866 193.231 C 164.160 193.579,164.400 194.065,164.400 194.312 C 164.400 195.713,171.861 202.210,175.600 204.064 C 178.265 205.386,185.839 207.911,188.096 208.230 C 189.033 208.362,190.610 208.710,191.600 209.003 C 192.590 209.295,195.189 209.746,197.375 210.005 C 199.561 210.265,201.795 210.646,202.338 210.853 C 202.882 211.059,204.334 211.388,205.564 211.583 C 215.020 213.079,220.799 218.921,219.721 225.892 C 218.766 232.064,215.485 237.037,211.600 238.199 C 211.050 238.363,210.387 238.668,210.127 238.875 C 209.059 239.728,201.829 240.878,199.000 240.644 C 194.949 240.309,190.022 239.382,189.495 238.855 C 189.245 238.605,188.761 238.397,188.420 238.393 C 188.079 238.389,187.015 237.854,186.056 237.204 C 184.511 236.157,183.618 235.301,181.895 233.217 C 181.085 232.237,179.652 228.885,179.364 227.299 C 178.486 222.457,176.240 221.053,169.078 220.868 C 159.384 220.618,156.349 223.432,158.800 230.400 C 159.226 231.610,159.580 232.872,159.587 233.204 C 159.603 233.949,162.816 240.295,164.076 242.069 C 166.433 245.388,172.136 250.409,174.922 251.617 C 175.405 251.827,176.070 252.166,176.400 252.371 C 178.618 253.748,186.894 256.400,188.975 256.400 C 190.206 256.400,190.135 255.873,190.012 264.047 C 189.856 274.426,190.870 275.600,200.000 275.600 C 209.130 275.600,210.144 274.426,209.988 264.047 C 209.868 256.022,209.831 256.400,210.730 256.400 C 211.746 256.400,217.820 254.551,219.779 253.646 C 220.671 253.234,221.670 252.783,222.000 252.645 C 229.132 249.654,236.210 241.514,239.257 232.800 C 241.141 227.412,240.307 212.862,237.936 209.758 C 237.750 209.515,237.130 208.435,236.558 207.358 C 234.779 204.008,229.790 199.543,225.594 197.547 C 221.118 195.416,214.683 193.181,213.062 193.194 C 212.655 193.197,211.395 192.938,210.262 192.617 C 209.128 192.296,206.220 191.756,203.800 191.417 C 185.867 188.906,181.200 185.931,181.200 177.010 C 181.200 170.442,184.395 166.631,191.600 164.606 C 195.009 163.648,202.144 163.613,205.000 164.541 C 206.100 164.899,207.307 165.193,207.682 165.196 C 208.335 165.200,210.346 166.364,212.331 167.886 C 213.892 169.083,216.580 173.648,217.344 176.400 C 218.062 178.986,227.487 180.820,232.976 179.442 C 239.577 177.785,236.539 165.399,227.400 156.706 C 223.369 152.871,215.574 148.934,210.810 148.326 L 209.819 148.200 209.810 140.273 L 209.800 132.345 208.115 130.773 L 206.431 129.200 200.000 129.200 L 193.569 129.200 191.885 130.772 M206.321 130.159 C 208.909 131.498,208.981 131.753,209.200 140.326 L 209.400 148.171 210.400 148.659 C 210.950 148.928,212.480 149.444,213.800 149.805 C 223.303 152.408,230.290 158.377,234.163 167.200 C 238.261 176.539,236.626 179.200,226.790 179.200 C 223.700 179.200,221.189 179.016,220.674 178.751 C 219.472 178.134,217.600 176.345,217.600 175.814 C 217.600 174.816,214.810 169.696,213.555 168.390 C 207.251 161.831,190.350 161.488,184.150 167.793 C 180.329 171.679,179.410 179.003,182.156 183.689 C 184.367 187.461,192.304 190.709,202.000 191.807 C 228.307 194.789,239.795 204.398,239.770 223.400 C 239.754 235.074,235.262 243.229,225.000 250.217 C 222.568 251.873,217.478 254.061,214.037 254.928 C 208.888 256.226,209.202 255.617,209.191 264.349 C 209.179 274.562,208.928 274.848,200.000 274.848 C 191.072 274.848,190.821 274.562,190.809 264.349 C 190.798 255.615,191.263 256.416,185.400 255.024 C 171.536 251.732,162.570 243.048,159.211 229.658 C 157.530 222.958,159.709 221.347,170.016 221.668 C 176.806 221.879,177.656 222.511,179.122 228.427 C 183.219 244.962,214.410 245.846,219.608 229.575 C 222.993 218.977,216.144 212.011,200.200 209.837 C 180.075 207.093,168.682 201.721,164.220 192.872 C 158.885 182.290,160.629 168.167,168.333 159.577 C 172.964 154.413,183.292 148.820,188.244 148.794 C 190.560 148.782,190.583 148.706,190.800 140.275 C 191.016 131.891,191.046 131.776,193.400 130.337 C 194.960 129.383,204.565 129.251,206.321 130.159 " stroke="none" fill="#6a9fda" fill-rule="evenodd"></path><path id="path3" d="M172.961 107.600 C 172.961 111.010,173.022 112.405,173.097 110.700 C 173.172 108.995,173.172 106.205,173.097 104.500 C 173.022 102.795,172.961 104.190,172.961 107.600 M226.961 107.600 C 226.961 111.010,227.022 112.405,227.097 110.700 C 227.172 108.995,227.172 106.205,227.097 104.500 C 227.022 102.795,226.961 104.190,226.961 107.600 M197.100 129.897 C 198.695 129.973,201.305 129.973,202.900 129.897 C 204.495 129.821,203.190 129.759,200.000 129.759 C 196.810 129.759,195.505 129.821,197.100 129.897 M141.178 134.300 L 139.800 135.800 141.300 134.422 C 142.125 133.663,142.800 132.988,142.800 132.922 C 142.800 132.616,142.462 132.904,141.178 134.300 M258.400 134.200 C 259.146 134.970,259.847 135.600,259.957 135.600 C 260.067 135.600,259.546 134.970,258.800 134.200 C 258.054 133.430,257.353 132.800,257.243 132.800 C 257.133 132.800,257.654 133.430,258.400 134.200 M125.523 151.900 C 124.818 152.721,124.290 153.600,124.501 153.600 C 124.583 153.600,125.049 153.060,125.537 152.400 C 126.501 151.096,126.492 150.772,125.523 151.900 M274.399 152.300 C 274.922 153.015,275.413 153.600,275.489 153.600 C 275.793 153.600,274.801 152.100,274.145 151.567 C 273.713 151.216,273.810 151.496,274.399 152.300 M170.175 157.700 L 169.000 159.000 170.300 157.825 C 171.015 157.179,171.600 156.594,171.600 156.525 C 171.600 156.216,171.270 156.488,170.175 157.700 M235.968 174.500 C 235.849 175.360,235.910 175.850,236.112 175.648 C 236.305 175.455,236.398 174.781,236.319 174.149 C 236.187 173.091,236.159 173.119,235.968 174.500 M161.346 178.600 C 161.347 180.800,161.414 181.649,161.495 180.487 C 161.576 179.324,161.576 177.524,161.493 176.487 C 161.411 175.449,161.345 176.400,161.346 178.600 M223.900 179.097 C 225.495 179.173,228.105 179.173,229.700 179.097 C 231.295 179.021,229.990 178.959,226.800 178.959 C 223.610 178.959,222.305 179.021,223.900 179.097 M183.967 186.145 C 184.500 186.801,186.000 187.793,186.000 187.489 C 186.000 187.413,185.415 186.922,184.700 186.399 C 183.896 185.810,183.616 185.713,183.967 186.145 M110.493 193.200 C 110.493 193.970,110.575 194.285,110.676 193.900 C 110.776 193.515,110.776 192.885,110.676 192.500 C 110.575 192.115,110.493 192.430,110.493 193.200 M289.293 193.200 C 289.293 193.970,289.375 194.285,289.476 193.900 C 289.576 193.515,289.576 192.885,289.476 192.500 C 289.375 192.115,289.293 192.430,289.293 193.200 M91.693 193.600 C 91.693 194.370,91.775 194.685,91.876 194.300 C 91.976 193.915,91.976 193.285,91.876 192.900 C 91.775 192.515,91.693 192.830,91.693 193.600 M308.093 193.600 C 308.093 194.370,308.175 194.685,308.276 194.300 C 308.376 193.915,308.376 193.285,308.276 192.900 C 308.175 192.515,308.093 192.830,308.093 193.600 M110.161 202.000 C 110.161 205.410,110.222 206.805,110.297 205.100 C 110.372 203.395,110.372 200.605,110.297 198.900 C 110.222 197.195,110.161 198.590,110.161 202.000 M289.761 202.000 C 289.761 205.410,289.822 206.805,289.897 205.100 C 289.972 203.395,289.972 200.605,289.897 198.900 C 289.822 197.195,289.761 198.590,289.761 202.000 M91.693 211.200 C 91.693 211.970,91.775 212.285,91.876 211.900 C 91.976 211.515,91.976 210.885,91.876 210.500 C 91.775 210.115,91.693 210.430,91.693 211.200 M308.093 211.200 C 308.093 211.970,308.175 212.285,308.276 211.900 C 308.376 211.515,308.376 210.885,308.276 210.500 C 308.175 210.115,308.093 210.430,308.093 211.200 M110.493 211.600 C 110.493 212.370,110.575 212.685,110.676 212.300 C 110.776 211.915,110.776 211.285,110.676 210.900 C 110.575 210.515,110.493 210.830,110.493 211.600 M289.293 211.600 C 289.293 212.370,289.375 212.685,289.476 212.300 C 289.576 211.915,289.576 211.285,289.476 210.900 C 289.375 210.515,289.293 210.830,289.293 211.600 M239.701 221.400 C 239.705 222.280,239.787 222.593,239.883 222.095 C 239.979 221.598,239.975 220.878,239.875 220.495 C 239.775 220.113,239.696 220.520,239.701 221.400 M166.117 221.897 C 167.611 221.974,169.951 221.974,171.317 221.896 C 172.682 221.818,171.460 221.755,168.600 221.755 C 165.740 221.756,164.622 221.820,166.117 221.897 M239.693 226.000 C 239.693 226.770,239.775 227.085,239.876 226.700 C 239.976 226.315,239.976 225.685,239.876 225.300 C 239.775 224.915,239.693 225.230,239.693 226.000 M183.200 235.800 C 183.946 236.570,184.647 237.200,184.757 237.200 C 184.867 237.200,184.346 236.570,183.600 235.800 C 182.854 235.030,182.153 234.400,182.043 234.400 C 181.933 234.400,182.454 235.030,183.200 235.800 M198.711 241.493 C 199.651 241.578,201.091 241.577,201.911 241.491 C 202.730 241.405,201.960 241.336,200.200 241.337 C 198.440 241.339,197.770 241.409,198.711 241.493 M164.764 242.333 C 164.980 242.736,165.471 243.321,165.855 243.633 C 166.287 243.984,166.190 243.704,165.601 242.900 C 164.551 241.465,164.157 241.198,164.764 242.333 M136.200 265.600 C 138.171 267.580,139.873 269.200,139.983 269.200 C 140.093 269.200,138.571 267.580,136.600 265.600 C 134.629 263.620,132.927 262.000,132.817 262.000 C 132.707 262.000,134.229 263.620,136.200 265.600 M263.392 265.700 L 259.800 269.400 263.500 265.808 C 265.535 263.833,267.200 262.168,267.200 262.108 C 267.200 261.818,266.728 262.264,263.392 265.700 M226.963 296.800 C 226.963 300.430,227.023 301.915,227.098 300.100 C 227.172 298.285,227.172 295.315,227.098 293.500 C 227.023 291.685,226.963 293.170,226.963 296.800 M172.961 297.200 C 172.961 300.610,173.022 302.005,173.097 300.300 C 173.172 298.595,173.172 295.805,173.097 294.100 C 173.022 292.395,172.961 293.790,172.961 297.200 " stroke="none" fill="#89b4e4" fill-rule="evenodd"></path><path id="path4" d="M166.600 99.093 C 147.633 103.836,122.399 123.002,109.846 142.200 C 108.551 144.180,107.066 146.440,106.546 147.222 C 106.026 148.003,105.600 148.751,105.600 148.883 C 105.600 149.015,104.967 150.243,104.194 151.611 C 88.605 179.191,87.549 217.763,101.565 247.632 C 102.244 249.079,102.800 250.370,102.800 250.500 C 102.800 251.346,110.115 263.174,112.757 266.600 C 113.435 267.480,114.128 268.381,114.295 268.603 C 118.053 273.566,124.135 280.038,128.863 284.104 C 138.110 292.057,147.165 297.580,160.200 303.218 C 166.122 305.780,169.909 306.220,171.653 304.550 L 172.800 303.450 172.800 296.898 C 172.800 288.135,173.056 288.491,164.000 284.647 C 143.465 275.930,124.029 256.037,116.666 236.200 C 114.202 229.564,112.506 223.945,111.724 219.830 C 108.178 201.169,110.276 182.690,117.883 165.600 C 119.587 161.772,124.046 153.751,125.666 151.600 C 130.082 145.738,132.007 143.479,136.349 139.064 C 145.463 129.796,156.004 122.758,166.765 118.754 C 168.324 118.175,170.012 117.160,171.065 116.169 L 172.800 114.537 172.787 107.969 C 172.775 102.299,172.677 101.285,172.070 100.559 C 170.733 98.959,168.996 98.494,166.600 99.093 M229.405 99.261 C 227.343 100.520,227.227 100.981,227.213 107.969 L 227.200 114.537 228.935 116.169 C 229.988 117.160,231.676 118.175,233.235 118.754 C 243.996 122.758,254.537 129.796,263.651 139.064 C 267.993 143.479,269.918 145.738,274.334 151.600 C 275.266 152.838,277.848 157.257,280.293 161.800 C 286.873 174.026,290.480 190.592,289.829 205.600 C 289.319 217.350,287.968 223.718,283.334 236.200 C 275.473 257.379,251.576 280.513,231.283 286.590 C 230.779 286.741,229.654 287.563,228.783 288.416 L 227.200 289.968 227.200 296.709 L 227.200 303.450 228.347 304.550 C 230.091 306.220,233.878 305.780,239.800 303.218 C 255.298 296.515,266.223 289.328,276.613 279.000 C 278.846 276.780,283.821 271.091,285.705 268.603 C 285.872 268.381,286.565 267.480,287.243 266.600 C 289.885 263.174,297.200 251.346,297.200 250.500 C 297.200 250.370,297.756 249.079,298.435 247.632 C 300.229 243.808,301.158 241.480,302.918 236.400 C 309.519 217.342,310.072 193.748,304.404 173.000 C 302.571 166.288,298.800 156.907,295.806 151.611 C 295.033 150.243,294.400 149.015,294.400 148.883 C 294.400 148.751,293.974 148.003,293.454 147.222 C 292.934 146.440,291.449 144.180,290.154 142.200 C 281.374 128.772,268.125 116.428,253.600 108.143 C 242.545 101.837,231.703 97.857,229.405 99.261 M171.493 100.563 C 172.862 101.846,172.856 113.637,171.486 115.229 C 170.569 116.294,167.882 118.000,167.121 118.000 C 166.423 118.000,159.332 121.372,156.600 123.003 C 155.720 123.529,154.605 124.140,154.122 124.361 C 153.639 124.583,152.336 125.402,151.226 126.182 C 150.116 126.962,149.104 127.600,148.977 127.600 C 148.850 127.600,147.723 128.416,146.473 129.414 C 145.223 130.412,143.768 131.537,143.240 131.914 C 137.302 136.156,128.489 146.315,121.997 156.400 C 121.154 157.709,118.498 162.888,117.484 165.200 C 117.146 165.970,116.404 167.624,115.835 168.875 C 115.266 170.127,114.800 171.449,114.800 171.814 C 114.800 172.178,114.537 172.954,114.215 173.538 C 113.537 174.767,112.567 178.235,111.821 182.097 C 111.534 183.581,111.105 185.291,110.867 185.897 C 109.207 190.127,109.322 214.445,111.025 219.271 C 111.341 220.167,111.600 221.327,111.600 221.849 C 111.600 222.370,111.934 223.833,112.342 225.098 C 112.751 226.364,113.275 228.120,113.506 229.000 C 114.110 231.292,115.116 234.030,115.805 235.262 C 116.132 235.846,116.400 236.567,116.400 236.865 C 116.400 237.550,121.442 247.562,122.220 248.422 C 122.539 248.775,122.801 249.229,122.802 249.431 C 122.803 249.634,123.523 250.749,124.402 251.908 C 125.281 253.068,126.000 254.122,126.000 254.250 C 126.000 254.379,126.456 255.050,127.014 255.742 C 128.143 257.142,128.766 257.924,130.773 260.463 C 135.713 266.712,146.874 276.167,154.000 280.140 C 155.870 281.183,157.670 282.202,158.000 282.404 C 158.714 282.843,163.145 284.992,165.400 285.995 C 166.280 286.386,167.500 286.822,168.110 286.963 C 168.721 287.105,169.936 287.958,170.810 288.858 L 172.400 290.496 172.400 296.830 C 172.400 303.083,172.387 303.177,171.382 304.182 C 170.210 305.354,167.166 305.609,165.789 304.651 C 165.355 304.349,164.396 303.971,163.658 303.810 C 160.232 303.064,148.582 297.422,142.800 293.707 C 133.305 287.608,124.922 280.462,118.781 273.233 C 117.581 271.821,116.176 270.201,115.658 269.633 C 115.140 269.065,114.098 267.672,113.344 266.537 C 112.589 265.403,111.708 264.256,111.386 263.988 C 111.064 263.721,110.800 263.282,110.800 263.013 C 110.800 262.744,110.456 262.213,110.036 261.833 C 109.616 261.452,109.162 260.704,109.028 260.171 C 108.894 259.637,108.611 259.200,108.398 259.200 C 108.185 259.200,107.735 258.615,107.399 257.900 C 107.062 257.185,105.983 255.160,104.999 253.400 C 104.016 251.640,103.107 249.930,102.980 249.600 C 102.853 249.270,102.411 248.280,101.999 247.400 C 100.583 244.374,99.674 242.198,99.410 241.200 C 99.264 240.650,98.912 239.660,98.626 239.000 C 97.684 236.822,96.736 233.835,96.213 231.400 C 95.929 230.080,95.513 228.538,95.287 227.974 C 95.061 227.410,94.746 225.880,94.588 224.574 C 94.429 223.268,94.119 221.852,93.897 221.428 C 92.098 217.977,92.116 187.749,93.919 183.174 C 94.142 182.610,94.454 181.080,94.613 179.774 C 94.773 178.468,95.138 176.770,95.424 176.000 C 95.711 175.230,96.143 173.622,96.384 172.427 C 96.625 171.232,96.973 170.062,97.156 169.827 C 97.340 169.592,97.613 168.860,97.764 168.200 C 98.655 164.295,103.782 152.914,107.318 146.992 C 107.583 146.548,109.060 144.332,110.600 142.068 C 112.140 139.804,113.580 137.652,113.800 137.285 C 114.020 136.918,114.391 136.434,114.624 136.209 C 114.858 135.984,116.022 134.630,117.212 133.200 C 121.100 128.528,131.629 118.346,133.937 117.027 C 134.297 116.822,134.773 116.509,134.995 116.333 C 136.948 114.785,138.264 113.855,141.200 111.947 C 146.074 108.781,146.923 108.296,151.600 106.009 C 153.910 104.879,156.278 103.695,156.862 103.378 C 157.446 103.060,158.166 102.799,158.462 102.798 C 158.758 102.796,159.540 102.513,160.200 102.169 C 165.431 99.439,169.653 98.839,171.493 100.563 M235.600 100.488 C 236.810 100.934,238.540 101.636,239.444 102.049 C 240.348 102.462,241.310 102.800,241.582 102.800 C 241.854 102.800,242.554 103.060,243.138 103.378 C 243.722 103.695,246.090 104.879,248.400 106.009 C 253.077 108.296,253.926 108.781,258.800 111.947 C 261.736 113.855,263.052 114.785,265.005 116.333 C 265.227 116.509,265.703 116.822,266.063 117.027 C 268.371 118.346,278.900 128.528,282.788 133.200 C 283.978 134.630,285.142 135.984,285.376 136.209 C 285.609 136.434,285.980 136.918,286.200 137.285 C 286.420 137.652,287.860 139.804,289.400 142.068 C 290.940 144.332,292.417 146.548,292.682 146.992 C 294.748 150.452,297.275 155.571,299.796 161.400 C 300.735 163.572,301.958 166.979,302.236 168.200 C 302.387 168.860,302.660 169.592,302.844 169.827 C 303.027 170.062,303.375 171.232,303.616 172.427 C 303.857 173.622,304.289 175.230,304.576 176.000 C 304.862 176.770,305.227 178.468,305.387 179.774 C 305.546 181.080,305.858 182.610,306.081 183.174 C 307.884 187.749,307.902 217.977,306.103 221.428 C 305.881 221.852,305.571 223.268,305.412 224.574 C 305.254 225.880,304.939 227.410,304.713 227.974 C 304.487 228.538,304.071 230.080,303.787 231.400 C 303.264 233.835,302.316 236.822,301.374 239.000 C 301.088 239.660,300.736 240.650,300.590 241.200 C 300.326 242.198,299.417 244.374,298.001 247.400 C 297.589 248.280,297.147 249.270,297.020 249.600 C 296.893 249.930,295.984 251.640,295.001 253.400 C 294.017 255.160,292.938 257.185,292.601 257.900 C 292.265 258.615,291.815 259.200,291.602 259.200 C 291.389 259.200,291.106 259.637,290.972 260.171 C 290.838 260.704,290.384 261.452,289.964 261.833 C 289.544 262.213,289.200 262.744,289.200 263.013 C 289.200 263.282,288.936 263.721,288.614 263.988 C 288.292 264.256,287.411 265.403,286.656 266.537 C 285.902 267.672,284.860 269.065,284.342 269.633 C 283.824 270.201,282.419 271.821,281.219 273.233 C 276.393 278.914,268.067 286.384,261.728 290.719 C 256.156 294.529,254.095 295.747,248.491 298.538 C 241.491 302.025,238.421 303.358,236.342 303.810 C 235.604 303.971,234.645 304.349,234.211 304.651 C 232.834 305.609,229.790 305.354,228.618 304.182 C 227.611 303.175,227.600 303.093,227.600 296.691 L 227.600 290.218 229.258 288.702 C 230.170 287.868,231.385 287.078,231.958 286.946 C 233.336 286.629,240.107 283.566,242.000 282.404 C 242.330 282.202,244.130 281.183,246.000 280.140 C 253.126 276.167,264.287 266.712,269.227 260.463 C 271.234 257.924,271.857 257.142,272.986 255.742 C 273.544 255.050,274.000 254.379,274.000 254.250 C 274.000 254.122,274.719 253.068,275.598 251.908 C 276.477 250.749,277.197 249.634,277.198 249.431 C 277.199 249.229,277.461 248.775,277.780 248.422 C 278.558 247.562,283.600 237.550,283.600 236.865 C 283.600 236.567,283.868 235.846,284.195 235.262 C 284.884 234.030,285.890 231.292,286.494 229.000 C 286.725 228.120,287.249 226.364,287.658 225.098 C 288.066 223.833,288.400 222.370,288.400 221.849 C 288.400 221.327,288.659 220.167,288.975 219.271 C 290.678 214.445,290.793 190.127,289.133 185.897 C 288.895 185.291,288.466 183.581,288.179 182.097 C 287.433 178.235,286.463 174.767,285.785 173.538 C 285.463 172.954,285.200 172.178,285.200 171.814 C 285.200 171.449,284.734 170.127,284.165 168.875 C 283.596 167.624,282.854 165.970,282.516 165.200 C 281.502 162.888,278.846 157.709,278.003 156.400 C 271.511 146.315,262.698 136.156,256.760 131.914 C 256.232 131.537,254.777 130.412,253.527 129.414 C 252.277 128.416,251.150 127.600,251.023 127.600 C 250.896 127.600,249.884 126.962,248.774 126.182 C 247.664 125.402,246.361 124.583,245.878 124.361 C 245.395 124.140,244.280 123.529,243.400 123.003 C 240.668 121.372,233.577 118.000,232.879 118.000 C 232.118 118.000,229.431 116.294,228.514 115.229 C 227.136 113.628,227.125 101.794,228.500 100.589 C 230.225 99.077,231.714 99.056,235.600 100.488 M193.172 130.698 C 191.046 131.991,190.800 133.033,190.800 140.752 C 190.800 148.200,190.665 148.800,188.987 148.800 C 183.149 148.800,171.572 155.434,167.058 161.366 C 160.853 169.520,159.601 182.475,164.099 191.989 C 168.319 200.915,177.386 205.786,195.400 208.805 C 215.498 212.173,220.444 215.389,220.444 225.087 C 220.444 234.909,212.399 241.375,200.200 241.358 C 188.215 241.341,181.596 237.104,178.631 227.551 C 176.957 222.158,177.038 222.200,168.339 222.200 L 161.143 222.200 159.982 223.600 C 158.591 225.279,158.549 226.078,159.631 230.445 C 162.964 243.913,172.963 252.552,188.600 255.476 C 190.791 255.886,190.800 255.922,190.800 263.863 C 190.800 274.152,191.345 274.800,200.000 274.800 C 208.655 274.800,209.200 274.152,209.200 263.863 C 209.200 255.449,208.965 255.997,213.000 255.020 C 231.997 250.421,242.915 233.921,238.994 215.736 C 236.491 204.126,226.370 196.072,211.200 193.620 C 209.550 193.353,207.570 192.978,206.800 192.786 C 206.030 192.594,203.870 192.249,202.000 192.019 C 186.411 190.102,180.628 186.095,180.609 177.200 C 180.588 167.326,186.874 162.826,200.000 163.318 C 210.124 163.696,214.341 166.630,217.945 175.800 C 219.538 179.853,233.363 180.339,235.393 176.413 C 236.407 174.452,234.892 167.686,232.773 164.716 C 232.348 164.120,232.000 163.528,232.000 163.400 C 232.000 161.303,222.871 153.188,219.077 151.913 C 218.375 151.677,217.620 151.347,217.400 151.179 C 217.023 150.891,213.402 149.802,211.200 149.314 C 209.229 148.877,209.200 148.756,209.200 140.983 C 209.200 132.915,208.971 131.972,206.699 130.668 C 205.069 129.732,194.723 129.755,193.172 130.698 M206.427 131.211 C 208.221 131.954,208.400 132.846,208.400 141.032 L 208.400 148.412 209.666 149.182 C 210.363 149.606,211.848 150.161,212.966 150.415 C 221.822 152.433,231.082 159.967,233.257 166.923 C 233.476 167.625,233.903 168.659,234.204 169.221 C 234.917 170.551,235.365 173.996,235.045 175.700 C 234.223 180.081,218.192 179.234,218.001 174.800 C 217.874 171.859,213.462 166.619,209.473 164.674 C 204.553 162.275,192.417 161.742,189.485 163.796 C 189.010 164.128,188.385 164.400,188.095 164.400 C 186.877 164.400,183.130 167.542,181.721 169.746 C 177.953 175.638,179.479 183.832,185.044 187.588 C 186.032 188.255,186.954 188.800,187.094 188.800 C 187.233 188.800,188.079 189.152,188.974 189.582 C 190.738 190.430,194.685 191.417,198.800 192.040 C 200.230 192.256,202.660 192.683,204.200 192.988 C 205.740 193.293,207.810 193.645,208.800 193.771 C 211.502 194.115,217.655 195.633,218.862 196.254 C 219.446 196.554,220.174 196.800,220.479 196.800 C 224.300 196.800,236.400 206.555,236.400 209.636 C 236.400 209.854,236.742 210.703,237.160 211.522 C 240.140 217.364,239.299 233.105,235.766 237.600 C 235.507 237.930,235.179 238.581,235.037 239.047 C 234.895 239.513,234.424 240.216,233.990 240.609 C 233.555 241.002,233.200 241.526,233.200 241.773 C 233.200 242.020,232.885 242.520,232.500 242.885 C 232.115 243.249,231.170 244.190,230.400 244.975 C 228.434 246.979,228.100 247.250,225.400 249.019 C 222.539 250.894,218.836 252.791,218.000 252.811 C 217.670 252.819,217.051 253.090,216.624 253.413 C 216.196 253.736,215.530 254.000,215.143 254.000 C 209.260 254.000,208.400 255.264,208.400 263.902 C 208.400 273.902,208.318 274.000,200.000 274.000 C 191.667 274.000,191.600 273.919,191.600 263.782 C 191.600 255.155,191.798 255.523,186.544 254.394 C 171.811 251.230,162.101 241.865,159.960 228.755 C 159.031 223.066,160.304 222.245,169.699 222.480 C 176.340 222.645,176.520 222.764,178.173 228.074 C 178.768 229.984,179.512 231.761,179.827 232.023 C 180.142 232.284,180.400 232.682,180.400 232.908 C 180.400 233.773,183.374 236.890,185.628 238.387 C 191.316 242.165,202.017 243.180,209.200 240.622 C 220.085 236.746,224.598 224.943,218.400 216.564 C 217.508 215.358,213.619 212.400,212.926 212.400 C 212.594 212.400,211.846 212.137,211.262 211.815 C 210.043 211.142,206.486 210.180,203.000 209.578 C 201.680 209.350,199.340 208.907,197.800 208.594 C 196.260 208.280,193.591 207.837,191.870 207.610 C 190.148 207.382,188.424 207.027,188.039 206.821 C 187.654 206.615,186.403 206.322,185.260 206.170 C 184.117 206.019,183.088 205.743,182.974 205.558 C 182.860 205.373,182.009 205.024,181.083 204.782 C 179.438 204.353,176.396 203.109,175.200 202.376 C 174.870 202.174,173.909 201.635,173.065 201.178 C 171.324 200.237,167.590 196.691,166.261 194.718 C 164.999 192.844,163.600 190.069,163.600 189.440 C 163.600 189.145,163.240 187.777,162.800 186.400 C 160.545 179.341,162.785 167.213,167.357 161.728 C 170.710 157.706,176.651 153.228,180.000 152.199 C 180.550 152.031,181.355 151.646,181.789 151.346 C 182.223 151.046,182.902 150.800,183.299 150.800 C 183.696 150.800,185.044 150.440,186.296 150.000 C 187.548 149.560,188.961 149.200,189.437 149.200 C 191.183 149.200,191.388 148.343,191.600 140.159 C 191.815 131.877,191.824 131.841,194.067 131.070 C 195.902 130.439,204.808 130.540,206.427 131.211 " stroke="none" fill="#96bce4" fill-rule="evenodd"></path></g></svg>