<svg xmlns="http://www.w3.org/2000/svg" width="32.679" height="39.941" viewBox="0 0 32.679 39.941">
  <g id="Group_2472" data-name="Group 2472" transform="translate(754.2 -148.75)">
    <path id="Path_13061" data-name="Path 13061" d="M-313.252,713.435l2.718-2.718-2.718,2.718Z" transform="translate(-415.556 -529.606)" fill="none"/>
    <path id="Path_13062" data-name="Path 13062" d="M-305.963,166.345v8.432a4.26,4.26,0,0,1-1.248,3.013l-6.039,6.039V148.75h4.471a2.785,2.785,0,0,1,1.975.818,2.785,2.785,0,0,1,.818,1.975V161.66h0v4.685Z" transform="translate(-415.558)" fill="#589bff"/>
    <path id="Path_13063" data-name="Path 13063" d="M-746.978,148.75v35.013l-5.974-5.974a4.26,4.26,0,0,1-1.243-2.8c0-.07-.005-.141-.005-.212V151.542a2.793,2.793,0,0,1,2.649-2.789h.007c.045,0,.09,0,.135,0h4.43Z" transform="translate(0)" fill="#589bff"/>
    <path id="Path_13064" data-name="Path 13064" d="M-610.62,148.75v35.079L-615,188.205l-.044.043-.046.041c-.015.014-.031.026-.047.039l-.048.037q-.066.048-.135.09l-.065.036-.014.007c-.021.012-.042.022-.064.032l-.055.025-.009,0-.036.014-.051.019-.062.021h0l-.049.014c-.036.01-.072.018-.108.026l-.036.007-.03.005-.044.006-.073.009-.062,0h-.014l-.075,0h-1.509v-19.5h-4.061v19.5h-1.441a1.66,1.66,0,0,1-.7-.156c-.033-.016-.066-.033-.1-.051l-.048-.028a1.666,1.666,0,0,1-.32-.25l-4.442-4.442V148.75h7.054v14.322h3.976v.083h.022v-.083h.063V148.75Z" transform="translate(-118.188)" fill="#3083ff" opacity="0.05"/>
    <path id="Path_13065" data-name="Path 13065" d="M-435.755,842.35" transform="translate(-300.107 -653.659)" fill="#3083ff"/>
    <g id="Group_2470" data-name="Group 2470" transform="translate(-739.924 148.75)">
      <g id="Group_2469" data-name="Group 2469" transform="translate(0 0)">
        <path id="Path_13066" data-name="Path 13066" d="M-502.309,163.072v.083h.022v-.083h.063V148.75h-4.061v14.322h3.976Z" transform="translate(506.285 -148.75)" fill="#589bff"/>
        <path id="Path_13067" data-name="Path 13067" d="M-502.224,523.228v-19.5h-4.061v19.5" transform="translate(506.285 -483.289)" fill="#589bff"/>
      </g>
    </g>
  </g>
</svg>
