<?xml version="1.0" encoding="UTF-8"?>
<svg width="32px" height="32px" viewBox="0 0 32 32" version="1.1" xmlns="http://www.w3.org/2000/svg" xmlns:xlink="http://www.w3.org/1999/xlink">
    <!-- Generator: Sketch 53.2 (72643) - https://sketchapp.com -->
    <title>Group-37 Copy 2</title>
    <desc>Created with Sketch.</desc>
    <g id="Page-1" stroke="none" stroke-width="1" fill="none" fill-rule="evenodd">
        <g id="弹出框" transform="translate(-590.000000, -234.000000)">
            <g id="Group-17-Copy" transform="translate(182.000000, 126.000000)">
                <g id="分组-20-copy-2">
                    <g id="Group-3" transform="translate(24.000000, 80.000000)">
                        <g id="Group-37-Copy-2" transform="translate(400.000000, 44.000000) rotate(-90.000000) translate(-400.000000, -44.000000) translate(384.000000, 28.000000)">
                            <path d="M16,0.5 C7.43958638,0.5 0.5,7.43958638 0.5,16 C0.5,24.5604136 7.43958638,31.5 16,31.5 C24.5604136,31.5 31.5,24.5604136 31.5,16 C31.5,7.43958638 24.5604136,0.5 16,0.5 Z" id="Rectangle-10" stroke="#CAD7E0" fill="#FFFFFF"></path>
                            <g id="Group-24" transform="translate(9.000000, 9.500000)" fill="#357CE1" fill-rule="nonzero">
                                <path d="M14,3.67242878 L14,4.5 C14,4.77614237 13.7761424,5 13.5,5 L0.226696803,5 C0.116239853,5 0.0266968033,4.91045695 0.0266968033,4.8 C0.0266968033,4.74040073 0.0532770566,4.68390665 0.0991948581,4.64591154 L4.46108293,1.03662627 C4.54618364,0.966208885 4.67225596,0.978112074 4.74267334,1.06321278 C4.77234842,1.09907566 4.78858488,1.1441663 4.78858488,1.19071473 L4.78858488,2.97242878 C4.78858488,3.08288573 4.87812793,3.17242878 4.98858488,3.17242878 L13.5,3.17242878 C13.7761424,3.17242878 14,3.39628641 14,3.67242878 Z" id="Combined-Shape"></path>
                                <path d="M13.9733032,10.6817195 L13.9733032,11.5092907 C13.9733032,11.785433 13.7494456,12.0092907 13.4733032,12.0092907 L0.2,12.0092907 C0.08954305,12.0092907 3.59110091e-13,11.9197476 3.60322883e-13,11.8092907 C3.60977269e-13,11.7496914 0.0265802533,11.6931973 0.0724980548,11.6552022 L4.43438613,8.04591693 C4.51948684,7.97549955 4.64555916,7.98740274 4.71597654,8.07250345 C4.74565161,8.10836633 4.76188808,8.15345697 4.76188808,8.20000539 L4.76188808,9.98171945 C4.76188808,10.0921764 4.85143113,10.1817195 4.96188808,10.1817195 L13.4733032,10.1817195 C13.7494456,10.1817195 13.9733032,10.4055771 13.9733032,10.6817195 Z" id="Combined-Shape-Copy-3" transform="translate(6.986652, 10.004645) scale(-1, -1) translate(-6.986652, -10.004645) "></path>
                            </g>
                        </g>
                    </g>
                </g>
            </g>
        </g>
    </g>
</svg>