<svg xmlns="http://www.w3.org/2000/svg" width="297" height="96" viewBox="0 0 297 96">
  <g id="Group_2314" data-name="Group 2314" transform="translate(-472 -346)" opacity="0.5">
    <path id="Rectangle_34" data-name="Rectangle 34" d="M3,0H9a3,3,0,0,1,3,3V64a0,0,0,0,1,0,0H0a0,0,0,0,1,0,0V3A3,3,0,0,1,3,0Z" transform="translate(757 378)" fill="#1c76ce"/>
    <path id="Rectangle_35" data-name="Rectangle 35" d="M3,0H9a3,3,0,0,1,3,3V72a0,0,0,0,1,0,0H0a0,0,0,0,1,0,0V3A3,3,0,0,1,3,0Z" transform="translate(742 370)" fill="#1c76ce"/>
    <path id="Rectangle_36" data-name="Rectangle 36" d="M3,0H9a3,3,0,0,1,3,3V83a0,0,0,0,1,0,0H0a0,0,0,0,1,0,0V3A3,3,0,0,1,3,0Z" transform="translate(727 359)" fill="#1c76ce"/>
    <path id="Rectangle_40" data-name="Rectangle 40" d="M3,0H9a3,3,0,0,1,3,3V51a0,0,0,0,1,0,0H0a0,0,0,0,1,0,0V3A3,3,0,0,1,3,0Z" transform="translate(682 391)" fill="#1c76ce"/>
    <path id="Rectangle_50" data-name="Rectangle 50" d="M3,0H9a3,3,0,0,1,3,3V51a0,0,0,0,1,0,0H0a0,0,0,0,1,0,0V3A3,3,0,0,1,3,0Z" transform="translate(517 391)" fill="#1c76ce"/>
    <path id="Rectangle_51" data-name="Rectangle 51" d="M3,0H9a3,3,0,0,1,3,3v8a0,0,0,0,1,0,0H0a0,0,0,0,1,0,0V3A3,3,0,0,1,3,0Z" transform="translate(472 431)" fill="#1c76ce"/>
    <path id="Rectangle_42" data-name="Rectangle 42" d="M3,0H9a3,3,0,0,1,3,3V51a0,0,0,0,1,0,0H0a0,0,0,0,1,0,0V3A3,3,0,0,1,3,0Z" transform="translate(607 391)" fill="#1c76ce"/>
    <path id="Rectangle_45" data-name="Rectangle 45" d="M3,0H9a3,3,0,0,1,3,3V51a0,0,0,0,1,0,0H0a0,0,0,0,1,0,0V3A3,3,0,0,1,3,0Z" transform="translate(592 391)" fill="#1c76ce"/>
    <path id="Rectangle_37" data-name="Rectangle 37" d="M3,0H9a3,3,0,0,1,3,3V72a0,0,0,0,1,0,0H0a0,0,0,0,1,0,0V3A3,3,0,0,1,3,0Z" transform="translate(712 370)" fill="#1c76ce"/>
    <path id="Rectangle_44" data-name="Rectangle 44" d="M3,0H9a3,3,0,0,1,3,3V72a0,0,0,0,1,0,0H0a0,0,0,0,1,0,0V3A3,3,0,0,1,3,0Z" transform="translate(637 370)" fill="#1c76ce"/>
    <path id="Rectangle_46" data-name="Rectangle 46" d="M3,0H9a3,3,0,0,1,3,3V72a0,0,0,0,1,0,0H0a0,0,0,0,1,0,0V3A3,3,0,0,1,3,0Z" transform="translate(562 370)" fill="#1c76ce"/>
    <path id="Rectangle_39" data-name="Rectangle 39" d="M3,0H9a3,3,0,0,1,3,3V72a0,0,0,0,1,0,0H0a0,0,0,0,1,0,0V3A3,3,0,0,1,3,0Z" transform="translate(667 370)" fill="#1c76ce"/>
    <path id="Rectangle_49" data-name="Rectangle 49" d="M3,0H9a3,3,0,0,1,3,3V72a0,0,0,0,1,0,0H0a0,0,0,0,1,0,0V3A3,3,0,0,1,3,0Z" transform="translate(532 370)" fill="#1c76ce"/>
    <path id="Rectangle_52" data-name="Rectangle 52" d="M3,0H9a3,3,0,0,1,3,3V20a0,0,0,0,1,0,0H0a0,0,0,0,1,0,0V3A3,3,0,0,1,3,0Z" transform="translate(487 422)" fill="#1c76ce"/>
    <path id="Rectangle_38" data-name="Rectangle 38" d="M3,0H9a3,3,0,0,1,3,3V96a0,0,0,0,1,0,0H0a0,0,0,0,1,0,0V3A3,3,0,0,1,3,0Z" transform="translate(697 346)" fill="#1c76ce"/>
    <path id="Rectangle_43" data-name="Rectangle 43" d="M3,0H9a3,3,0,0,1,3,3V96a0,0,0,0,1,0,0H0a0,0,0,0,1,0,0V3A3,3,0,0,1,3,0Z" transform="translate(622 346)" fill="#1c76ce"/>
    <path id="Rectangle_47" data-name="Rectangle 47" d="M3,0H9a3,3,0,0,1,3,3V64a0,0,0,0,1,0,0H0a0,0,0,0,1,0,0V3A3,3,0,0,1,3,0Z" transform="translate(577 378)" fill="#1c76ce"/>
    <path id="Rectangle_41" data-name="Rectangle 41" d="M3,0H9a3,3,0,0,1,3,3V64a0,0,0,0,1,0,0H0a0,0,0,0,1,0,0V3A3,3,0,0,1,3,0Z" transform="translate(652 378)" fill="#1c76ce"/>
    <path id="Rectangle_48" data-name="Rectangle 48" d="M3,0H9a3,3,0,0,1,3,3V88a0,0,0,0,1,0,0H0a0,0,0,0,1,0,0V3A3,3,0,0,1,3,0Z" transform="translate(547 354)" fill="#1c76ce"/>
    <path id="Rectangle_53" data-name="Rectangle 53" d="M3,0H9a3,3,0,0,1,3,3V32a0,0,0,0,1,0,0H0a0,0,0,0,1,0,0V3A3,3,0,0,1,3,0Z" transform="translate(502 410)" fill="#1c76ce"/>
  </g>
</svg>
