<svg xmlns="http://www.w3.org/2000/svg" width="297" height="96" viewBox="0 0 297 96">
  <g id="Group_2312" data-name="Group 2312" transform="translate(-821 -346)" opacity="0.47">
    <path id="Rectangle_34" data-name="Rectangle 34" d="M3,0H9a3,3,0,0,1,3,3V64a0,0,0,0,1,0,0H0a0,0,0,0,1,0,0V3A3,3,0,0,1,3,0Z" transform="translate(821 378)" fill="#f16922"/>
    <path id="Rectangle_35" data-name="Rectangle 35" d="M3,0H9a3,3,0,0,1,3,3V72a0,0,0,0,1,0,0H0a0,0,0,0,1,0,0V3A3,3,0,0,1,3,0Z" transform="translate(836 370)" fill="#f16922"/>
    <path id="Rectangle_36" data-name="Rectangle 36" d="M3,0H9a3,3,0,0,1,3,3V83a0,0,0,0,1,0,0H0a0,0,0,0,1,0,0V3A3,3,0,0,1,3,0Z" transform="translate(851 359)" fill="#f16922"/>
    <path id="Rectangle_40" data-name="Rectangle 40" d="M3,0H9a3,3,0,0,1,3,3V51a0,0,0,0,1,0,0H0a0,0,0,0,1,0,0V3A3,3,0,0,1,3,0Z" transform="translate(896 391)" fill="#f16922"/>
    <path id="Rectangle_50" data-name="Rectangle 50" d="M3,0H9a3,3,0,0,1,3,3V51a0,0,0,0,1,0,0H0a0,0,0,0,1,0,0V3A3,3,0,0,1,3,0Z" transform="translate(1061 391)" fill="#f16922"/>
    <path id="Rectangle_51" data-name="Rectangle 51" d="M3,0H9a3,3,0,0,1,3,3v8a0,0,0,0,1,0,0H0a0,0,0,0,1,0,0V3A3,3,0,0,1,3,0Z" transform="translate(1106 431)" fill="#f16922"/>
    <path id="Rectangle_42" data-name="Rectangle 42" d="M3,0H9a3,3,0,0,1,3,3V51a0,0,0,0,1,0,0H0a0,0,0,0,1,0,0V3A3,3,0,0,1,3,0Z" transform="translate(971 391)" fill="#f16922"/>
    <path id="Rectangle_45" data-name="Rectangle 45" d="M3,0H9a3,3,0,0,1,3,3V51a0,0,0,0,1,0,0H0a0,0,0,0,1,0,0V3A3,3,0,0,1,3,0Z" transform="translate(986 391)" fill="#f16922"/>
    <path id="Rectangle_37" data-name="Rectangle 37" d="M3,0H9a3,3,0,0,1,3,3V72a0,0,0,0,1,0,0H0a0,0,0,0,1,0,0V3A3,3,0,0,1,3,0Z" transform="translate(866 370)" fill="#f16922"/>
    <path id="Rectangle_44" data-name="Rectangle 44" d="M3,0H9a3,3,0,0,1,3,3V72a0,0,0,0,1,0,0H0a0,0,0,0,1,0,0V3A3,3,0,0,1,3,0Z" transform="translate(941 370)" fill="#f16922"/>
    <path id="Rectangle_46" data-name="Rectangle 46" d="M3,0H9a3,3,0,0,1,3,3V72a0,0,0,0,1,0,0H0a0,0,0,0,1,0,0V3A3,3,0,0,1,3,0Z" transform="translate(1016 370)" fill="#f16922"/>
    <path id="Rectangle_39" data-name="Rectangle 39" d="M3,0H9a3,3,0,0,1,3,3V72a0,0,0,0,1,0,0H0a0,0,0,0,1,0,0V3A3,3,0,0,1,3,0Z" transform="translate(911 370)" fill="#f16922"/>
    <path id="Rectangle_49" data-name="Rectangle 49" d="M3,0H9a3,3,0,0,1,3,3V72a0,0,0,0,1,0,0H0a0,0,0,0,1,0,0V3A3,3,0,0,1,3,0Z" transform="translate(1046 370)" fill="#f16922"/>
    <path id="Rectangle_52" data-name="Rectangle 52" d="M3,0H9a3,3,0,0,1,3,3V20a0,0,0,0,1,0,0H0a0,0,0,0,1,0,0V3A3,3,0,0,1,3,0Z" transform="translate(1091 422)" fill="#f16922"/>
    <path id="Rectangle_38" data-name="Rectangle 38" d="M3,0H9a3,3,0,0,1,3,3V96a0,0,0,0,1,0,0H0a0,0,0,0,1,0,0V3A3,3,0,0,1,3,0Z" transform="translate(881 346)" fill="#f16922"/>
    <path id="Rectangle_43" data-name="Rectangle 43" d="M3,0H9a3,3,0,0,1,3,3V96a0,0,0,0,1,0,0H0a0,0,0,0,1,0,0V3A3,3,0,0,1,3,0Z" transform="translate(956 346)" fill="#f16922"/>
    <path id="Rectangle_47" data-name="Rectangle 47" d="M3,0H9a3,3,0,0,1,3,3V64a0,0,0,0,1,0,0H0a0,0,0,0,1,0,0V3A3,3,0,0,1,3,0Z" transform="translate(1001 378)" fill="#f16922"/>
    <path id="Rectangle_41" data-name="Rectangle 41" d="M3,0H9a3,3,0,0,1,3,3V64a0,0,0,0,1,0,0H0a0,0,0,0,1,0,0V3A3,3,0,0,1,3,0Z" transform="translate(926 378)" fill="#f16922"/>
    <path id="Rectangle_48" data-name="Rectangle 48" d="M3,0H9a3,3,0,0,1,3,3V88a0,0,0,0,1,0,0H0a0,0,0,0,1,0,0V3A3,3,0,0,1,3,0Z" transform="translate(1031 354)" fill="#f16922"/>
    <path id="Rectangle_53" data-name="Rectangle 53" d="M3,0H9a3,3,0,0,1,3,3V32a0,0,0,0,1,0,0H0a0,0,0,0,1,0,0V3A3,3,0,0,1,3,0Z" transform="translate(1076 410)" fill="#f16922"/>
  </g>
</svg>
