<svg xmlns="http://www.w3.org/2000/svg" xmlns:xlink="http://www.w3.org/1999/xlink" width="253.057" height="333.767" viewBox="0 0 253.057 333.767">
  <defs>
    <radialGradient id="radial-gradient" cx="0.5" cy="0.5" r="2.247" gradientTransform="translate(0.389 -11.846) scale(0.223 0.222)" gradientUnits="objectBoundingBox">
      <stop offset="0" stop-color="#be9dea"/>
      <stop offset="0.388" stop-color="#e0bff5"/>
      <stop offset="1" stop-color="#fff"/>
    </radialGradient>
    <linearGradient id="linear-gradient" x1="0.332" y1="1.003" x2="0.541" y2="0.035" gradientUnits="objectBoundingBox">
      <stop offset="0" stop-color="#cbc1f7"/>
      <stop offset="1" stop-color="#e8dcf7"/>
    </linearGradient>
    <linearGradient id="linear-gradient-2" x1="0.417" y1="0.956" x2="0.568" y2="-0.122" gradientUnits="objectBoundingBox">
      <stop offset="0" stop-color="#a242ea"/>
      <stop offset="1" stop-color="#fe117e"/>
    </linearGradient>
    <linearGradient id="linear-gradient-3" y1="0.5" x2="1" y2="0.5" gradientUnits="objectBoundingBox">
      <stop offset="0" stop-color="#8879ea"/>
      <stop offset="1" stop-color="#9e8cef"/>
    </linearGradient>
    <linearGradient id="linear-gradient-4" x1="0.5" y1="1" x2="0.5" gradientUnits="objectBoundingBox">
      <stop offset="0" stop-color="#9d68c2"/>
      <stop offset="1" stop-color="#ccedff"/>
    </linearGradient>
    <linearGradient id="linear-gradient-5" x1="0.418" y1="1.039" x2="0.565" y2="-0.049" gradientUnits="objectBoundingBox">
      <stop offset="0" stop-color="#cbc1f7"/>
      <stop offset="1" stop-color="#d4bef1"/>
    </linearGradient>
    <linearGradient id="linear-gradient-6" x1="0.58" y1="0.99" x2="0.434" y2="-0.003" gradientUnits="objectBoundingBox">
      <stop offset="0" stop-color="#be9dea"/>
      <stop offset="1" stop-color="#9e8cef"/>
    </linearGradient>
    <linearGradient id="linear-gradient-8" x1="0.5" y1="1" x2="0.5" gradientUnits="objectBoundingBox">
      <stop offset="0" stop-color="#45ffcd"/>
      <stop offset="1" stop-color="#22e0ff"/>
    </linearGradient>
    <linearGradient id="linear-gradient-9" x1="0.5" y1="1" x2="0.5" gradientUnits="objectBoundingBox">
      <stop offset="0" stop-color="#b9acf4"/>
      <stop offset="1" stop-color="#e1d1f5"/>
    </linearGradient>
    <linearGradient id="linear-gradient-10" x1="0.457" y1="1.023" x2="0.569" y2="0.004" xlink:href="#linear-gradient"/>
    <linearGradient id="linear-gradient-13" x1="0.5" y1="1" x2="0.5" gradientUnits="objectBoundingBox">
      <stop offset="0" stop-color="#8da4e5"/>
      <stop offset="1" stop-color="#755cbb"/>
    </linearGradient>
    <linearGradient id="linear-gradient-14" x1="0.603" y1="0.427" x2="0.627" y2="-0.538" gradientUnits="objectBoundingBox">
      <stop offset="0" stop-color="#5e36cc"/>
      <stop offset="1" stop-color="#6c4a96"/>
    </linearGradient>
    <linearGradient id="linear-gradient-15" x1="0.5" y1="1" x2="0.5" gradientUnits="objectBoundingBox">
      <stop offset="0" stop-color="#0665bd"/>
      <stop offset="1" stop-color="#1a1f77"/>
    </linearGradient>
    <linearGradient id="linear-gradient-16" x1="0.428" y1="1.002" x2="0.615" y2="0" xlink:href="#linear-gradient"/>
    <linearGradient id="linear-gradient-19" x1="0.5" y1="1" x2="0.5" y2="0" xlink:href="#linear-gradient-6"/>
    <linearGradient id="linear-gradient-21" x1="0" y1="0.5" x2="1" y2="0.5" xlink:href="#linear-gradient-6"/>
    <radialGradient id="radial-gradient-2" cx="0.517" cy="0.845" r="0.623" gradientTransform="translate(-0.106) scale(1.212 1)" xlink:href="#linear-gradient-8"/>
    <linearGradient id="linear-gradient-23" x1="0.377" y1="0.979" x2="0.613" y2="0.034" xlink:href="#linear-gradient"/>
    <linearGradient id="linear-gradient-24" x1="0.41" y1="0.971" x2="0.643" y2="-0.017" xlink:href="#linear-gradient"/>
    <linearGradient id="linear-gradient-26" x1="0.448" y1="1.044" x2="0.537" y2="-0.037" xlink:href="#linear-gradient"/>
    <linearGradient id="linear-gradient-27" x1="0.424" y1="0.968" x2="0.585" y2="0.006" gradientUnits="objectBoundingBox">
      <stop offset="0" stop-color="#d93de3"/>
      <stop offset="1" stop-color="#ff6dba"/>
    </linearGradient>
    <linearGradient id="linear-gradient-28" x1="0.527" y1="1.093" x2="0.466" y2="-0.05" xlink:href="#linear-gradient-6"/>
    <linearGradient id="linear-gradient-29" x1="0.404" y1="1.021" x2="0.579" y2="-0.04" xlink:href="#linear-gradient-6"/>
    <linearGradient id="linear-gradient-30" x1="0.114" y1="-4.191" x2="0.114" y2="-5.252" gradientUnits="objectBoundingBox">
      <stop offset="0" stop-color="#dd1a8f"/>
      <stop offset="1" stop-color="#fe117e"/>
    </linearGradient>
    <linearGradient id="linear-gradient-31" x1="0.933" y1="0.172" x2="0.933" y2="-0.633" xlink:href="#linear-gradient-27"/>
    <linearGradient id="linear-gradient-34" y1="0.5" x2="1" y2="0.5" gradientUnits="objectBoundingBox">
      <stop offset="0"/>
      <stop offset="1" stop-color="#6a9bff"/>
    </linearGradient>
    <linearGradient id="linear-gradient-36" x1="0.5" y1="1" x2="0.5" y2="0" xlink:href="#linear-gradient-34"/>
    <linearGradient id="linear-gradient-37" x1="0.5" y1="1" x2="0.5" gradientUnits="objectBoundingBox">
      <stop offset="0" stop-color="#d4e2ff"/>
      <stop offset="1"/>
    </linearGradient>
    <linearGradient id="linear-gradient-38" y1="0.5" x2="1" y2="0.5" gradientUnits="objectBoundingBox">
      <stop offset="0"/>
      <stop offset="1" stop-color="#d4e2ff"/>
    </linearGradient>
    <linearGradient id="linear-gradient-41" x1="10.54" y1="0.847" x2="10.796" y2="-0.15" xlink:href="#linear-gradient"/>
    <linearGradient id="linear-gradient-42" x1="20.828" y1="0.837" x2="20.828" y2="-0.187" xlink:href="#linear-gradient-6"/>
    <linearGradient id="linear-gradient-43" x1="26.201" y1="0.556" x2="26.201" y2="-0.406" xlink:href="#linear-gradient-13"/>
    <linearGradient id="linear-gradient-44" x1="22.079" y1="0.711" x2="22.376" y2="-0.275" xlink:href="#linear-gradient"/>
    <linearGradient id="linear-gradient-48" x1="0.419" y1="1.071" x2="0.682" y2="-0.05" xlink:href="#linear-gradient-2"/>
    <linearGradient id="linear-gradient-49" x1="0.474" y1="1.009" x2="0.516" y2="0.111" xlink:href="#linear-gradient-13"/>
    <linearGradient id="linear-gradient-50" x1="-2.017" y1="2.687" x2="-1.065" y2="2.687" xlink:href="#linear-gradient-13"/>
    <radialGradient id="radial-gradient-3" cx="0.516" cy="0.436" r="0.561" gradientTransform="matrix(0.71, 0.527, -0.44, 0.85, 0.73, 1.238)" xlink:href="#linear-gradient-8"/>
    <linearGradient id="linear-gradient-51" x1="0.488" y1="1.097" x2="0.547" y2="-0.015" xlink:href="#linear-gradient"/>
    <linearGradient id="linear-gradient-52" x1="0.532" y1="0.934" x2="0.458" y2="0.052" xlink:href="#linear-gradient-6"/>
    <linearGradient id="linear-gradient-53" x1="0.45" y1="0.979" x2="0.548" y2="-0.039" xlink:href="#linear-gradient-13"/>
    <radialGradient id="radial-gradient-4" cx="0.5" cy="0.5" r="0.561" gradientTransform="translate(0.094) scale(0.812 1)" xlink:href="#linear-gradient-8"/>
    <linearGradient id="linear-gradient-54" x1="0.446" y1="0.977" x2="0.539" y2="-0.082" xlink:href="#linear-gradient-4"/>
  </defs>
  <g id="Group_2325" data-name="Group 2325" transform="translate(0 -22.049)">
    <ellipse id="Ellipse_2" data-name="Ellipse 2" cx="67.965" cy="15.124" rx="67.965" ry="15.124" transform="translate(93.198 325.567)" opacity="0.5" fill="url(#radial-gradient)" style="mix-blend-mode: multiply;isolation: isolate"/>
    <g id="Group_2324" data-name="Group 2324" transform="translate(0 22.049)">
      <path id="Path_7646" data-name="Path 7646" d="M395.835,227.5c-.59,7.281-12.13,30.592-21.169,36.926-.013.013-.013.013-.013.027-1.745,1.208-3.395,1.8-4.849,1.511-6.5-1.25-9.63-32.379-9.934-49.908-.108-6.772.207-11.5.908-11.692C366.684,202.8,396.522,218.827,395.835,227.5Z" transform="translate(-240.356 28.772)" fill="url(#linear-gradient)"/>
      <path id="Path_7647" data-name="Path 7647" d="M381.695,191.244l-.082.082c-21.582,24.906-39.853,65.611-39.853,65.611l-53.617-17.872,11.787-6.031Z" transform="translate(-288.143 20.102)" fill="url(#linear-gradient-2)"/>
      <path id="Path_7648" data-name="Path 7648" d="M395.563,229.953s-7.982,4.338-20.45-1.91c-9.745-4.881-16.251-20.782-14.6-23.6S400.071,218.656,395.563,229.953Z" transform="translate(-240.085 28.692)" fill="url(#linear-gradient-3)"/>
      <path id="Path_7649" data-name="Path 7649" d="M395.835,227.5c-.59,7.281-12.13,30.592-21.169,36.926,6.786-7.8,7.019-23.712,2.693-30.992-3.256-5.523-12.955-13.725-17.489-17.378-.108-6.772.207-11.5.908-11.692C366.684,202.8,396.522,218.827,395.835,227.5Z" transform="translate(-240.356 28.772)" opacity="0.3" fill="url(#linear-gradient-4)" style="mix-blend-mode: multiply;isolation: isolate"/>
      <path id="Path_7650" data-name="Path 7650" d="M385.383,197.725s-34.275,19.452-42.339,18.669-4.478-19.109-4.478-19.109c1.072-1.263,2.266-2.568,3.544-3.914l.013-.015c12.885-13.6,34.878-30.936,47.517-39.193l.015-.013c5.316-3.475,8.984-5.343,9.6-4.643C403.942,154.713,385.383,197.725,385.383,197.725Z" transform="translate(-255.069 -7.809)" fill="url(#linear-gradient-5)"/>
      <path id="Path_7651" data-name="Path 7651" d="M339,178.657s4.478-3.766,10.03,1.295-.173,17.208-5.553,17.814S334.869,186.531,339,178.657Z" transform="translate(-255.501 10.816)" fill="url(#linear-gradient-6)"/>
      <path id="Path_7652" data-name="Path 7652" d="M385.383,197.725s-34.275,19.452-42.339,18.669-4.478-19.109-4.478-19.109c1.072-1.263,2.266-2.568,3.544-3.914l.013-.015s8.379,4.946,23.82,2.583,23.7-41.776,23.7-41.776l.015-.013c5.316-3.475,8.984-5.343,9.6-4.643C403.942,154.713,385.383,197.725,385.383,197.725Z" transform="translate(-255.069 -7.809)" opacity="0.3" fill="url(#linear-gradient-4)" style="mix-blend-mode: multiply;isolation: isolate"/>
      <path id="Path_7653" data-name="Path 7653" d="M357.185,75.888S345.617,88.1,344.33,110.658s24.846-10.029,24.846-10.029Z" transform="translate(-250.729 -56.775)" fill="url(#linear-gradient-8)"/>
      <path id="Path_7654" data-name="Path 7654" d="M347.533,105.322s5.243-27.8,13.87-33.7,24.17-.56,24.17-.56Z" transform="translate(-248.564 -61.467)" fill="url(#linear-gradient-9)"/>
      <path id="Path_7655" data-name="Path 7655" d="M486.579,172.14c-19.589,30.8-116.6,35.688-133.266,20.3-6.636-6.127-10.88-14.2-12.982-23.313V169.1c-8.957-38.988,21.347-96.945,71.627-102.619,34.069-3.833,62.546,24.343,74.429,54.414C493.834,139.692,494.8,159.227,486.579,172.14Z" transform="translate(-254.404 -63.275)" fill="url(#linear-gradient-10)"/>
      <path id="Path_7656" data-name="Path 7656" d="M456.18,144.238a180.336,180.336,0,0,1-42.132,11.828c-22.528,2.995-39.1,2.638-48.658.22h-.013c-6.292-1.593-9.547-4.053-9.52-7.034.013-1.813,4.231-3.969,11.017-6.182,19.961-6.442,62.135-13.228,85.406-12.83,2.006.042,3.875.123,5.564.275.37.027.713.068,1.056.11a.938.938,0,0,1,.193.013c4.066.44,7.019,1.25,8.449,2.528a2.931,2.931,0,0,1,.8,1.03C469.588,137.025,464.286,140.693,456.18,144.238Z" transform="translate(-243.017 -20.564)" fill="url(#linear-gradient-3)"/>
      <path id="Path_7657" data-name="Path 7657" d="M485.955,154.079c-19.589,30.8-116.6,35.688-133.266,20.3-6.636-6.127-10.88-14.2-12.982-23.313v-.027s8.1,11.68,27.9,11.447,76.211-10.687,86.6-20.755.737-48.5.737-48.5l30.827,9.6C493.209,121.63,494.17,141.166,485.955,154.079Z" transform="translate(-253.779 -45.213)" opacity="0.3" fill="url(#linear-gradient-4)" style="mix-blend-mode: multiply;isolation: isolate"/>
      <path id="Path_7658" data-name="Path 7658" d="M456.18,144.238c-10.275-2.926-40.1-10.069-62.135-1.923-27.035,9.974-28.656,13.971-28.656,13.971h-.013c-6.292-1.593-9.547-4.053-9.52-7.034.013-1.813,4.231-3.969,11.017-6.182,19.961-6.442,62.135-13.228,85.406-12.83,2.445.11,4.658.233,6.621.385a.938.938,0,0,1,.193.013c4.066.44,7.019,1.25,8.449,2.528a2.931,2.931,0,0,1,.8,1.03C469.588,137.025,464.286,140.693,456.18,144.238Z" transform="translate(-243.017 -20.564)" opacity="0.5" fill="url(#linear-gradient-13)" style="mix-blend-mode: multiply;isolation: isolate"/>
      <path id="Path_7659" data-name="Path 7659" d="M453.44,130.511c-4.641,5.8-29.582,13.621-44.14,15.556-26.093,3.453-42.492,1.461-46.832-3C384.137,136.075,432.043,128.663,453.44,130.511Z" transform="translate(-238.611 -20.564)" fill="url(#linear-gradient-14)"/>
      <path id="Path_7660" data-name="Path 7660" d="M340.682,168.433c5.664,11.348,88.981,4.623,107.375-18.976S437.3,59.225,394.369,71.371C353.443,82.953,330.42,147.87,340.682,168.433Z" transform="translate(-254.751 -60.762)" fill="#dfe3fb"/>
      <path id="Path_7661" data-name="Path 7661" d="M340.682,167.326c5.664,11.348,88.981,4.623,107.375-18.974S437.3,58.12,394.369,70.266C353.443,81.846,330.42,146.764,340.682,167.326Z" transform="translate(-254.751 -61.498)" fill="url(#linear-gradient-15)"/>
      <path id="Path_7662" data-name="Path 7662" d="M444.844,233.627c-5.866,26.733-21.169,38.2-48.59,37.833-26.87-.372-43.382-29.494-34.713-63.688,5.536-21.829,11.965-41.2,23.408-53.246l.013-.013.013-.028a39.71,39.71,0,0,1,24.975-12.5c8.229-.977,15.056,3.448,20.5,10.962C444.611,172.522,449.35,213.02,444.844,233.627Z" transform="translate(-240.775 -12.815)" fill="url(#linear-gradient-16)"/>
      <path id="Path_7663" data-name="Path 7663" d="M406.766,79.086s-4.511,41.063,20.824,55.584c0,0,12.435,1.338,19.666-6.211,0,0-11.257,10.58-23.13-.438s-9.015-41.386,0-51.278,22.03-7.287,22.03-7.287l-5.2-4.686S421.776,60.867,406.766,79.086Z" transform="translate(-209.296 -64.418)" fill="url(#linear-gradient-9)"/>
      <path id="Path_7664" data-name="Path 7664" d="M404.859,166.8s2.861,20.852,2.861,34.753c0,16.491-10.13,30.982-10.13,30.982l20.567-11.048s3.838-10.785,2.865-21.82-1.87-16.078-1.87-16.078Z" transform="translate(-215.204 3.812)" opacity="0.3" fill="url(#linear-gradient-4)" style="mix-blend-mode: multiply;isolation: isolate"/>
      <path id="Path_7665" data-name="Path 7665" d="M438.7,64.639s-14.1-1.3-23.947,15.056c-10.462,17.371-2.856,47.4,9.85,51.961s25.548-44.024,25.548-44.024L442.772,68.3A8.737,8.737,0,0,0,438.7,64.639Z" transform="translate(-207.045 -64.288)" fill="url(#linear-gradient-19)"/>
      <path id="Path_7666" data-name="Path 7666" d="M455.921,104.829c-1.813,9.384-5.633,17.049-10.742,21.9l-.042.027-1.428,1.265h-.015a18.541,18.541,0,0,1-14.313,4.258c-17.159-2.185-19.467-27.035-17.448-41.116,2.35-16.264,16.266-26.033,27.338-24.6C452.447,68.26,459.479,86.463,455.921,104.829Z" transform="translate(-206.052 -63.085)" fill="url(#linear-gradient-8)"/>
      <path id="Path_7667" data-name="Path 7667" d="M360.073,192.138s6.242-20.2,25.558-20.2c23.143,0,38.741,25.583,37.353,42.936s-6.692,33.612-28.558,34.3C394.427,249.17,353.482,248.256,360.073,192.138Z" transform="translate(-240.685 7.236)" fill="url(#linear-gradient-21)"/>
      <path id="Path_7668" data-name="Path 7668" d="M360.073,193.487s6.242-20.2,25.558-20.2c23.143,0,38.741,25.585,37.353,42.937s-6.692,33.612-28.558,34.3C394.427,250.519,353.482,249.6,360.073,193.487Z" transform="translate(-240.685 8.134)" fill="url(#radial-gradient-2)"/>
      <path id="Path_7669" data-name="Path 7669" d="M413.735,198.21c-1,0-2.073-.838-3.16-2.281-4.849-6.456-9.945-25.1-9.89-35.457.027-4.011.825-6.786,2.72-7.116,3.091-.535,9.369,9.89,12.418,24.548C417.583,186.436,418.021,198.21,413.735,198.21Z" transform="translate(-213.142 -5.161)" fill="url(#linear-gradient-3)"/>
      <path id="Path_7670" data-name="Path 7670" d="M410.575,193.075c-4.849-6.456-9.945-25.1-9.89-35.457,3.036,3.929,6.594,11.925,8.669,21.9A55.921,55.921,0,0,1,410.575,193.075Z" transform="translate(-213.142 -2.307)" fill="#6340a2"/>
      <path id="Path_7671" data-name="Path 7671" d="M456.758,240.959c-3.133,10.069-14.933,11.113-18.381,8.682-3.01-2.116-11.32-11.87-19.261-29.729-.013-.013-.013-.027-.027-.04q-1.752-3.937-3.463-8.407c-8.86-23.258-15.523-66.091-6.359-64.429a.1.1,0,0,1,.04.013C435.9,151.913,459.876,230.9,456.758,240.959Z" transform="translate(-210.35 -9.391)" fill="url(#linear-gradient-23)"/>
      <path id="Path_7672" data-name="Path 7672" d="M424.714,276.833c-1.813.88-4.341-.042-7.212-2.156a62.052,62.052,0,0,1-10.22-10.414l-.028-.027-.04-.042c-9.837-12.117-19.426-28.918-18.944-32.682,1.69-13.021,19.384-24.328,29.892-29.314,4.108-1.951,7.116-2.926,7.637-2.68C427.682,200.426,434.082,272.287,424.714,276.833Z" transform="translate(-221.428 25.592)" fill="url(#linear-gradient-24)"/>
      <path id="Path_7673" data-name="Path 7673" d="M421.5,210.091s.15-9.272,8.346-12.53,16.1,7.676,16.1,7.676.077,10.412-11.029,10.585S421.5,210.091,421.5,210.091Z" transform="translate(-199.271 23.908)" fill="url(#linear-gradient-19)"/>
      <path id="Path_7674" data-name="Path 7674" d="M361.755,187.619S354.988,198.291,347.7,203.5s-21.605,7.444-21.605,7.444-10.15-4.686-10.15-11.662c0,0,10.932-5.546,15.1-14.33,0,0,14.2-5.059,20.377-3.408A24.373,24.373,0,0,1,361.755,187.619Z" transform="translate(-269.615 13.415)" fill="url(#linear-gradient-26)"/>
      <path id="Path_7675" data-name="Path 7675" d="M381.695,197.93l-.082.082c-1.663,1.8-28.548,30.924-41.157,61.97L288.143,245.75a193.665,193.665,0,0,1,21.21-33.135c.028-.027.042-.04.042-.053l.013-.015a181.958,181.958,0,0,1,31.047-31.334A113.837,113.837,0,0,1,381.695,197.93Z" transform="translate(-288.143 13.417)" fill="url(#linear-gradient-27)"/>
      <path id="Path_7676" data-name="Path 7676" d="M332.453,183.057l11.6,7.663-14.729-6.34Z" transform="translate(-260.699 14.646)" fill="url(#linear-gradient-28)"/>
      <path id="Path_7677" data-name="Path 7677" d="M349.18,121.385A62.992,62.992,0,0,0,328.554,137.6c-9.37,11.277-10.15,22.99,3.385,19.346l5.641-4.961s-7.984,2.731-8.505-5.826,20.105-23.188,20.105-23.188Z" transform="translate(-265.827 -26.454)" fill="url(#linear-gradient-29)"/>
      <path id="Path_7678" data-name="Path 7678" d="M325.864,142.69c-3.32,4.983,5.458,7.241,12.412,7.047,7.806-.217,21.274-3.669,19.386-11.3S333.644,131.011,325.864,142.69Z" transform="translate(-263.487 -18.564)" fill="url(#linear-gradient-30)"/>
      <path id="Path_7679" data-name="Path 7679" d="M325.953,143.227c-.06,1.3,27.433-2.158,27.413-7.1S326.415,133.182,325.953,143.227Z" transform="translate(-262.945 -18.355)" fill="url(#linear-gradient-31)"/>
      <path id="Path_7680" data-name="Path 7680" d="M346.012,123.316c1.965,6.411,15.213,4.669,18.721-5.374s-.253-22.8-7.021-23.318S342.119,110.623,346.012,123.316Z" transform="translate(-250.214 -44.296)" fill="url(#linear-gradient-8)"/>
      <path id="Path_7681" data-name="Path 7681" d="M377.8,102.7c-.432.915,9.465-8.549,28.806-5.033C408.517,98.016,386.306,84.655,377.8,102.7Z" transform="translate(-228.4 -45.216)" fill="url(#linear-gradient-8)"/>
      <path id="Path_7682" data-name="Path 7682" d="M366.135,127.825s18.567-4.859,26.723-19.609C392.858,108.216,389.735,128.172,366.135,127.825Z" transform="translate(-236.167 -35.23)" fill="#2f95cd"/>
      <path id="Path_7683" data-name="Path 7683" d="M347.611,112.158c2.4,2.445,16.3-8.567,33.642-10.13s39.178,11.543,52.712,6.777c10.743-3.783-11.52-40.751-40.378-38.871S345.233,109.731,347.611,112.158Z" transform="translate(-248.642 -60.789)" opacity="0.5" fill="url(#linear-gradient-34)" style="mix-blend-mode: screen;isolation: isolate"/>
      <path id="Path_7684" data-name="Path 7684" d="M350.725,132.3a121.464,121.464,0,0,1,39.134-9.885c22.332-1.775,26.306-.137,26.306,2s-15.1,9.422-35.573,11.157S350.725,132.3,350.725,132.3Z" transform="translate(-246.436 -26.273)" opacity="0.5" fill="url(#linear-gradient-34)" style="mix-blend-mode: screen;isolation: isolate"/>
      <path id="Path_7685" data-name="Path 7685" d="M340.266,142.993s-5.211-14.975,4.493-39.464c0,0,2.326-4,3.933-3.026S339.433,119.965,340.266,142.993Z" transform="translate(-254.338 -40.472)" opacity="0.5" fill="url(#linear-gradient-36)" style="mix-blend-mode: screen;isolation: isolate"/>
      <path id="Path_7686" data-name="Path 7686" d="M413.367,93.167s1.821,15.243,13.015,18.537,20.3-4.8,23.165-16.238c0,0-3.515,9.865-18.091,7.341S413.367,93.167,413.367,93.167Z" transform="translate(-204.69 -45.259)" opacity="0.72" fill="url(#linear-gradient-37)" style="mix-blend-mode: screen;isolation: isolate"/>
      <path id="Path_7687" data-name="Path 7687" d="M414.606,81.454c.13,2.841,20.682-3.058,27.218-2.19s9.312,8.885,10.354,8.694-1.735-18.932-13.881-20.32S414.515,79.481,414.606,81.454Z" transform="translate(-203.864 -62.341)" opacity="0.72" fill="url(#linear-gradient-38)" style="mix-blend-mode: screen;isolation: isolate"/>
      <path id="Path_7688" data-name="Path 7688" d="M420.526,152.946s-28.3,10.66-39.153,9.437c-10.537-1.181-6.579-7.5-6.346-7.857l.013-.013.013-.028a39.71,39.71,0,0,1,24.975-12.5C408.258,141.008,415.085,145.433,420.526,152.946Z" transform="translate(-230.853 -12.815)" opacity="0.5" fill="url(#linear-gradient-13)" style="mix-blend-mode: multiply;isolation: isolate"/>
      <path id="Path_7689" data-name="Path 7689" d="M454.985,240.935c-3.133,10.069-14.933,11.113-18.381,8.682-3.01-2.116-11.32-11.87-19.261-29.729.783,1.511,6.607,12.378,11.828,12.378,5.619-.013,16.444-15.619,5.494-48.342-10.59-31.721-26.17-36.625-27.131-36.9C434.131,151.889,458.1,230.878,454.985,240.935Z" transform="translate(-208.576 -9.367)" opacity="0.3" fill="url(#linear-gradient-4)" style="mix-blend-mode: multiply;isolation: isolate"/>
      <path id="Path_7690" data-name="Path 7690" d="M429.615,200.261c4.656-1.255,11.988,2.476,14.543,6.236s8.927,19.607,5.283,40.083c0,0-6.941,9.2-14.746,7.177-5.927-1.533-7.342-19.172-8.94-31.711S421.948,202.329,429.615,200.261Z" transform="translate(-197.483 25.946)" fill="url(#linear-gradient-41)"/>
      <path id="Path_7691" data-name="Path 7691" d="M436.7,251.648s2.868-41.043-13.826-47.665c0,0-.085,6.662,3.253,22.079S432.87,250.695,436.7,251.648Z" transform="translate(-198.353 28.592)" fill="url(#linear-gradient-42)"/>
      <path id="Path_7692" data-name="Path 7692" d="M434.936,223.6s-3.47,6.371-6.154,7.626a7.044,7.044,0,0,1-4.964.453l8.424-19.357S434.848,219.4,434.936,223.6Z" transform="translate(-197.725 34.147)" opacity="0.5" fill="url(#linear-gradient-43)" style="mix-blend-mode: multiply;isolation: isolate"/>
      <path id="Path_7693" data-name="Path 7693" d="M434.264,217.51s-3.4-10.943-10.422-12.983c0,0-5.641,6.822-1.6,30.687,0,0,3.971,4.258,8.434-.858A60.686,60.686,0,0,0,434.264,217.51Z" transform="translate(-199.747 28.954)" fill="url(#linear-gradient-44)"/>
      <path id="Path_7694" data-name="Path 7694" d="M427.112,210.192c2.291-.233-.16,10.267-1.378,10.15S425.2,210.387,427.112,210.192Z" transform="translate(-196.854 32.727)" fill="#fff"/>
      <path id="Path_7695" data-name="Path 7695" d="M361.434,190.946c2.913,5.551,13.768-1.561,27.316,0s20.837,8.73,24.741,6.767-8.365-22.225-29.186-23.037C367.68,174.026,360.441,189.056,361.434,190.946Z" transform="translate(-239.359 9.047)" opacity="0.72" fill="url(#linear-gradient-38)" style="mix-blend-mode: screen;isolation: isolate"/>
      <path id="Path_7696" data-name="Path 7696" d="M370.36,214.549a23.753,23.753,0,0,0,15.088,6.087c9.41.335,12.533-4.219,12.533-4.219s-4.164-1.823-10.8-.52A29.373,29.373,0,0,1,370.36,214.549Z" transform="translate(-233.351 35.633)" opacity="0.72" fill="url(#linear-gradient-37)" style="mix-blend-mode: screen;isolation: isolate"/>
      <path id="Path_7697" data-name="Path 7697" d="M417.1,276.833c-1.813.88-4.341-.042-7.212-2.156l-10.22-10.414c.988.907,12.4,10.812,14.561-9.864,2.266-21.622-4.671-50.828-4.671-50.828l.99-1.373c4.108-1.951,7.116-2.926,7.637-2.68C420.071,200.426,426.472,272.287,417.1,276.833Z" transform="translate(-213.817 25.592)" opacity="0.3" fill="url(#linear-gradient-4)" style="mix-blend-mode: multiply;isolation: isolate"/>
      <path id="Path_7698" data-name="Path 7698" d="M410.964,169.516c-4.026,2.371,4.281,19.124,6.232,19.546S413.71,167.9,410.964,169.516Z" transform="translate(-207.016 5.564)" fill="#fff"/>
      <path id="Path_7699" data-name="Path 7699" d="M415.12,182.871c-.848.092.087,4.006.718,4.534a2.251,2.251,0,0,0,2.32.263C418.527,187.3,416.086,182.766,415.12,182.871Z" transform="translate(-203.748 14.521)" fill="#fff"/>
      <path id="Path_7700" data-name="Path 7700" d="M392.465,158.442c-1.642.043-4.518,16.039-3.2,16.573s3.1-2.86,4.4-8.1S394.048,158.4,392.465,158.442Z" transform="translate(-220.974 -1.758)" fill="#fff"/>
      <path id="Path_7701" data-name="Path 7701" d="M347.739,173.11c.362,1.175,8.435-2.47,8.461-5.954S347.219,171.419,347.739,173.11Z" transform="translate(-248.441 3.456)" fill="#fff"/>
      <path id="Path_7702" data-name="Path 7702" d="M395.467,218.312c-3.574.795,1.6,9.542,2.418,9.87s1.478-3.353.853-5.988C398.18,219.849,396.725,218.034,395.467,218.312Z" transform="translate(-217.449 38.123)" fill="#fff"/>
      <path id="Path_7703" data-name="Path 7703" d="M366.087,222.444c-1.988-.453-1.473,5.183-1.138,5.544s1.543-1.335,1.858-2.81C367.085,223.864,366.787,222.6,366.087,222.444Z" transform="translate(-237.17 40.878)" fill="#fff"/>
      <path id="Path_7704" data-name="Path 7704" d="M396.984,224.907c-.677.542.928,3.258,1.511,2.681a2.267,2.267,0,0,0,.065-2.443A1.355,1.355,0,0,0,396.984,224.907Z" transform="translate(-215.717 42.433)" fill="#fff"/>
      <path id="Path_7705" data-name="Path 7705" d="M343.641,179.966s1.883,24.447-2.628,38.848c0,0-35.645,13.38-52.268,27.253l54.176-26.731S346.617,194.911,343.641,179.966Z" transform="translate(-287.742 12.586)" fill="url(#linear-gradient-48)"/>
      <path id="Path_7706" data-name="Path 7706" d="M314.8,187.121s4.081,6.957,15.968,6.871,15.28-6.006,15.28-6.006l-7.039-3.03-18.477-2.765S315.164,186.8,314.8,187.121Z" transform="translate(-270.38 14.07)" opacity="0.5" fill="url(#linear-gradient-49)" style="mix-blend-mode: multiply;isolation: isolate"/>
      <path id="Path_7707" data-name="Path 7707" d="M313.914,205.4c.052,4.266,6.527,10.62,12.885,8.849,7.939-2.211,8.569-13.586,3.956-15.514s-5.869.928-8.305,1.073S313.851,200.2,313.914,205.4Z" transform="translate(-270.969 24.652)" opacity="0.5" fill="url(#linear-gradient-50)" style="mix-blend-mode: multiply;isolation: isolate"/>
      <path id="Path_7708" data-name="Path 7708" d="M313.914,204.465c.052,4.268,6.527,10.622,12.885,8.85,7.939-2.213,8.569-13.588,3.956-15.514s-5.869.928-8.305,1.072S313.851,199.259,313.914,204.465Z" transform="translate(-270.969 24.029)" fill="url(#radial-gradient-3)"/>
      <path id="Path_7709" data-name="Path 7709" d="M356.792,182.82s-7.292-7.659-13.408-8.129-21.642,6.232-26.346,14.995c0,0,.707,2.1,6.038,3.353s17.564-4.391,17.564-4.391l20.387,3.449S361.027,187.55,356.792,182.82Z" transform="translate(-268.886 9.055)" fill="url(#linear-gradient-51)"/>
      <path id="Path_7710" data-name="Path 7710" d="M331.2,187.177s9.84-2.98,10.948-10.3l1.565,1.19S342.309,185.669,331.2,187.177Z" transform="translate(-259.448 10.526)" fill="url(#linear-gradient-52)"/>
      <path id="Path_7711" data-name="Path 7711" d="M320.788,183.5c.1,1.535,10.932-3.483,10.932-5.3S320.615,180.908,320.788,183.5Z" transform="translate(-266.389 11.126)" fill="#fff"/>
      <path id="Path_7712" data-name="Path 7712" d="M323.854,210.213a8.853,8.853,0,0,1-2-.357c-2.35-.647-3.861-2.143-5.413-3.806-1.951-2.075-2.486-3.736-.838-5.1,2.528-2.116,8.709-2.515,10.8-2.843,1.47-.22,2.376.453,3.12,2.251a20.614,20.614,0,0,1,.852,2.831C331.273,207.095,327.44,210.474,323.854,210.213Z" transform="translate(-270.498 24.652)" opacity="0.5" fill="url(#linear-gradient-53)" style="mix-blend-mode: multiply;isolation: isolate"/>
      <path id="Path_7713" data-name="Path 7713" d="M322.36,209.3a8.854,8.854,0,0,1-2-.357,23.235,23.235,0,0,1-1.663-1.635c-1.965-2.088-2.5-3.738-.852-5.111,2.321-1.923,7.692-2.431,10.18-2.748a20.624,20.624,0,0,1,.852,2.831C329.779,206.178,325.946,209.558,322.36,209.3Z" transform="translate(-269.004 25.568)" fill="url(#radial-gradient-4)"/>
      <path id="Path_7714" data-name="Path 7714" d="M381.613,191.293C360.031,216.2,341.76,256.9,341.76,256.9l-53.617-17.872a193.666,193.666,0,0,1,21.21-33.135c-.823,1.306-13.12,20.73-16,26.28l6.581.825,43.78,5.523S366.117,205.938,381.613,191.293Z" transform="translate(-288.143 20.135)" opacity="0.3" fill="url(#linear-gradient-54)" style="mix-blend-mode: multiply;isolation: isolate"/>
    </g>
  </g>
</svg>
