<svg xmlns="http://www.w3.org/2000/svg" xmlns:xlink="http://www.w3.org/1999/xlink" width="258.681" height="463.644" viewBox="0 0 258.681 463.644">
  <defs>
    <radialGradient id="radial-gradient" cx="0.5" cy="0.5" r="2.247" gradientTransform="translate(0.389 -11.846) scale(0.223 0.222)" gradientUnits="objectBoundingBox">
      <stop offset="0" stop-color="#be9dea"/>
      <stop offset="0.388" stop-color="#e0bff5"/>
      <stop offset="1" stop-color="#fff"/>
    </radialGradient>
    <linearGradient id="linear-gradient" x1="0.104" y1="1" x2="0.535" y2="0.088" gradientUnits="objectBoundingBox">
      <stop offset="0" stop-color="#cbc1f7"/>
      <stop offset="1" stop-color="#d4bef1"/>
    </linearGradient>
    <linearGradient id="linear-gradient-2" x1="0.5" y1="1" x2="0.5" gradientUnits="objectBoundingBox">
      <stop offset="0" stop-color="#8da4e5"/>
      <stop offset="1" stop-color="#755cbb"/>
    </linearGradient>
    <linearGradient id="linear-gradient-3" x1="0.405" y1="0.969" x2="0.61" y2="0.032" xlink:href="#linear-gradient"/>
    <linearGradient id="linear-gradient-4" x1="1.332" y1="1.384" x2="1.196" y2="0.429" gradientUnits="objectBoundingBox">
      <stop offset="0" stop-color="#be9dea"/>
      <stop offset="1" stop-color="#9e8cef"/>
    </linearGradient>
    <linearGradient id="linear-gradient-5" x1="0.5" y1="1" x2="0.5" gradientUnits="objectBoundingBox">
      <stop offset="0" stop-color="#9d68c2"/>
      <stop offset="1" stop-color="#ccedff"/>
    </linearGradient>
    <linearGradient id="linear-gradient-6" x1="-2.161" y1="0.942" x2="-1.974" y2="-0.049" gradientUnits="objectBoundingBox">
      <stop offset="0" stop-color="#cbc1f7"/>
      <stop offset="1" stop-color="#e8dcf7"/>
    </linearGradient>
    <linearGradient id="linear-gradient-7" x1="-5.654" y1="0.989" x2="-5.654" y2="-0.017" xlink:href="#linear-gradient-5"/>
    <linearGradient id="linear-gradient-8" x1="-3.616" y1="0.373" x2="-2.676" y2="0.373" xlink:href="#linear-gradient-4"/>
    <radialGradient id="radial-gradient-2" cx="0.375" cy="0.843" r="0.649" gradientTransform="matrix(-1.061, -0.247, -0.271, 0.969, -6.236, -0.75)" gradientUnits="objectBoundingBox">
      <stop offset="0" stop-color="#45ffcd"/>
      <stop offset="1" stop-color="#22e0ff"/>
    </radialGradient>
    <linearGradient id="linear-gradient-9" x1="-6.732" y1="0.509" x2="-6.062" y2="0.509" gradientUnits="objectBoundingBox">
      <stop offset="0" stop-color="#8879ea"/>
      <stop offset="1" stop-color="#9e8cef"/>
    </linearGradient>
    <linearGradient id="linear-gradient-10" x1="-4.814" y1="0.028" x2="-3.813" y2="0.028" gradientUnits="objectBoundingBox">
      <stop offset="0"/>
      <stop offset="1" stop-color="#d4e2ff"/>
    </linearGradient>
    <linearGradient id="linear-gradient-11" x1="-8.224" y1="-0.056" x2="-8.224" y2="-0.837" gradientUnits="objectBoundingBox">
      <stop offset="0" stop-color="#d4e2ff"/>
      <stop offset="1"/>
    </linearGradient>
    <linearGradient id="linear-gradient-12" x1="0.344" y1="0.955" x2="0.821" y2="0.08" xlink:href="#linear-gradient-6"/>
    <linearGradient id="linear-gradient-13" x1="0.452" y1="1.009" x2="0.531" y2="-0.08" xlink:href="#linear-gradient-6"/>
    <linearGradient id="linear-gradient-14" x1="0.459" y1="1.013" x2="0.562" y2="-0.103" xlink:href="#linear-gradient-2"/>
    <linearGradient id="linear-gradient-15" x1="8.374" y1="1.3" x2="8.374" y2="0.225" gradientTransform="matrix(1, 0, 0, 1, 0, 0)" xlink:href="#radial-gradient-2"/>
    <linearGradient id="linear-gradient-16" x1="7.235" y1="1.312" x2="7.235" y2="0.216" gradientUnits="objectBoundingBox">
      <stop offset="0" stop-color="#b9acf4"/>
      <stop offset="1" stop-color="#e1d1f5"/>
    </linearGradient>
    <linearGradient id="linear-gradient-17" x1="0.446" y1="1.02" x2="0.564" y2="0.012" xlink:href="#linear-gradient-6"/>
    <linearGradient id="linear-gradient-19" x1="0.5" y1="1" x2="0.5" gradientUnits="objectBoundingBox">
      <stop offset="0" stop-color="#0665bd"/>
      <stop offset="1" stop-color="#1a1f77"/>
    </linearGradient>
    <linearGradient id="linear-gradient-20" x1="0.46" y1="0.961" x2="0.561" y2="0.064" gradientUnits="objectBoundingBox">
      <stop offset="0"/>
      <stop offset="1" stop-color="#6a9bff"/>
    </linearGradient>
    <linearGradient id="linear-gradient-21" x1="-5.001" y1="1" x2="-5.001" y2="0" xlink:href="#linear-gradient-16"/>
    <linearGradient id="linear-gradient-22" x1="-4.799" y1="1" x2="-4.799" y2="0" xlink:href="#linear-gradient-4"/>
    <linearGradient id="linear-gradient-23" x1="-3.971" y1="1" x2="-3.971" y2="0" gradientTransform="matrix(1, 0, 0, 1, 0, 0)" xlink:href="#radial-gradient-2"/>
    <linearGradient id="linear-gradient-24" x1="-5.195" y1="1" x2="-5.195" y2="0" xlink:href="#linear-gradient-11"/>
    <linearGradient id="linear-gradient-25" x1="-5.303" y1="0.5" x2="-4.303" y2="0.5" xlink:href="#linear-gradient-10"/>
    <linearGradient id="linear-gradient-26" x1="1.771" y1="2.059" x2="1.771" y2="1.03" gradientTransform="matrix(1, 0, 0, 1, 0, 0)" xlink:href="#radial-gradient-2"/>
    <linearGradient id="linear-gradient-27" x1="0.603" y1="0.719" x2="0.603" y2="-0.26" gradientTransform="matrix(1, 0, 0, 1, 0, 0)" xlink:href="#radial-gradient-2"/>
    <linearGradient id="linear-gradient-28" x1="0" y1="0.5" x2="1" y2="0.5" xlink:href="#linear-gradient-20"/>
    <linearGradient id="linear-gradient-29" x1="0.273" y1="0.962" x2="0.42" y2="0.036" xlink:href="#linear-gradient-4"/>
    <linearGradient id="linear-gradient-30" x1="-0.308" y1="-13.377" x2="-0.308" y2="-14.354" gradientUnits="objectBoundingBox">
      <stop offset="0" stop-color="#dd1a8f"/>
      <stop offset="1" stop-color="#fe117e"/>
    </linearGradient>
    <linearGradient id="linear-gradient-31" x1="1.26" y1="0.849" x2="1.26" y2="0.215" gradientUnits="objectBoundingBox">
      <stop offset="0" stop-color="#d93de3"/>
      <stop offset="1" stop-color="#ff6dba"/>
    </linearGradient>
    <linearGradient id="linear-gradient-32" x1="0.535" y1="1.039" x2="0.41" y2="0.022" xlink:href="#linear-gradient-4"/>
    <linearGradient id="linear-gradient-33" x1="0.366" y1="0.999" x2="0.652" y2="-0.015" xlink:href="#linear-gradient-31"/>
    <linearGradient id="linear-gradient-34" x1="0.344" y1="0.993" x2="0.663" y2="0.004" gradientUnits="objectBoundingBox">
      <stop offset="0" stop-color="#a242ea"/>
      <stop offset="1" stop-color="#fe117e"/>
    </linearGradient>
    <linearGradient id="linear-gradient-35" x1="0" y1="0.5" x2="1" y2="0.5" xlink:href="#linear-gradient-2"/>
    <linearGradient id="linear-gradient-36" x1="-0.283" y1="0.562" x2="-0.394" y2="-0.481" xlink:href="#linear-gradient-4"/>
    <linearGradient id="linear-gradient-37" x1="-0.394" y1="0.563" x2="-0.271" y2="-0.545" xlink:href="#linear-gradient-6"/>
    <linearGradient id="linear-gradient-38" x1="0.226" y1="0.977" x2="0.778" y2="0.017" xlink:href="#linear-gradient-31"/>
    <linearGradient id="linear-gradient-39" x1="0.415" y1="0.993" x2="0.589" y2="0.003" gradientUnits="objectBoundingBox">
      <stop offset="0" stop-color="#b31a8f"/>
      <stop offset="1" stop-color="#92117e"/>
    </linearGradient>
    <linearGradient id="linear-gradient-40" x1="1.681" y1="1.814" x2="1.775" y2="0.809" gradientUnits="objectBoundingBox">
      <stop offset="0" stop-color="#b31a8f"/>
      <stop offset="1" stop-color="#fe117e"/>
    </linearGradient>
    <radialGradient id="radial-gradient-3" cx="0.5" cy="0.5" r="0.443" gradientTransform="matrix(1.297, -0.195, 0.257, 0.981, -1.015, 0.434)" xlink:href="#radial-gradient-2"/>
    <linearGradient id="linear-gradient-41" x1="0" y1="0.5" x2="1" y2="0.5" xlink:href="#linear-gradient-39"/>
    <linearGradient id="linear-gradient-42" x1="0.5" y1="1" x2="0.5" y2="0" xlink:href="#linear-gradient-20"/>
    <linearGradient id="linear-gradient-43" x1="0.458" y1="1.103" x2="0.542" y2="-0.098" xlink:href="#linear-gradient-20"/>
    <linearGradient id="linear-gradient-44" x1="0.5" y1="1" x2="0.5" y2="-0.001" xlink:href="#linear-gradient-5"/>
    <linearGradient id="linear-gradient-45" x1="0.654" y1="1.036" x2="0.654" y2="0.015" xlink:href="#linear-gradient-5"/>
    <linearGradient id="linear-gradient-46" x1="0.5" y1="1" x2="0.5" y2="0" xlink:href="#linear-gradient-6"/>
    <linearGradient id="linear-gradient-47" x1="-2.268" y1="1.15" x2="-2.085" y2="0.106" xlink:href="#linear-gradient-6"/>
    <linearGradient id="linear-gradient-48" x1="-2.279" y1="1.113" x2="-2.43" y2="0.144" xlink:href="#linear-gradient-4"/>
    <linearGradient id="linear-gradient-49" x1="-7.519" y1="1.227" x2="-7.774" y2="0.238" xlink:href="#linear-gradient-2"/>
    <linearGradient id="linear-gradient-50" x1="-4.878" y1="1.175" x2="-4.569" y2="0.16" xlink:href="#linear-gradient-6"/>
  </defs>
  <g id="Group_2331" data-name="Group 2331" transform="translate(-73.332)">
    <ellipse id="Ellipse_3" data-name="Ellipse 3" cx="90.662" cy="20.175" rx="90.662" ry="20.175" transform="translate(95.492 423.294)" opacity="0.5" fill="url(#radial-gradient)" style="mix-blend-mode: multiply;isolation: isolate"/>
    <g id="Group_2330" data-name="Group 2330" transform="translate(73.332)">
      <path id="Path_7883" data-name="Path 7883" d="M899.936,221.8s-4.141,6.269-9.712,14.293c-9.016,13.031-21.771,30.694-26.608,33.738-2.327,1.465-3.684-3.941-4.417-12.259-1.758-19.609-.164-55.433-.164-55.433S889.215,208.585,899.936,221.8Z" transform="translate(-739.831 122.415)" fill="url(#linear-gradient)"/>
      <path id="Path_7884" data-name="Path 7884" d="M899.936,221.8s-4.141,6.269-9.712,14.293c0,0-8.192-1.318-22.009,6.964-5.239,3.152-7.843,8.758-9.016,14.514-1.758-19.609-.164-55.433-.164-55.433S889.215,208.585,899.936,221.8Z" transform="translate(-739.831 122.415)" opacity="0.5" fill="url(#linear-gradient-2)" style="mix-blend-mode: multiply;isolation: isolate"/>
      <path id="Path_7885" data-name="Path 7885" d="M931.826,260.678l-.093-.018c-8.741-2.383-19.644-10.923-28.018-23.365-18.106-26.882-37.274-83.067-14.258-94.595,2.274-1.136,13.2,12.609,24.886,30.914,13.762,21.569,28.6,49.478,31.684,66.942C949.087,257.855,941.923,263.39,931.826,260.678Z" transform="translate(-714.73 49.651)" fill="url(#linear-gradient-3)"/>
      <path id="Path_7886" data-name="Path 7886" d="M897.329,209.273s7.876-30.25,17.4-29.7,10.944,28.331,4.693,33.924S900.819,212.766,897.329,209.273Z" transform="translate(-692.19 94.82)" fill="url(#linear-gradient-4)"/>
      <path id="Path_7887" data-name="Path 7887" d="M931.826,260.678l-.093-.018c-8.741-2.383-19.644-10.923-28.018-23.365-18.106-26.882-37.274-83.067-14.258-94.595,2.274-1.136,13.2,12.609,24.886,30.914v.02s-5.391,40.251-1.523,54.564c3.866,14.329,16.714,23.079,16.714,23.079Z" transform="translate(-714.73 49.651)" opacity="0.3" fill="url(#linear-gradient-5)" style="mix-blend-mode: multiply;isolation: isolate"/>
      <path id="Path_7888" data-name="Path 7888" d="M840.416,243.933c-1.241,36.487,14.753,56.363,50.314,64.932,34.854,8.389,65.806-23.8,65.886-70.856.049-30.041-1.867-57.2-12.682-76.547l-.013-.022-.009-.04A52.978,52.978,0,0,0,915.758,137c-10.314-3.977-20.6-.511-30.11,7.4C860.882,165.035,841.392,215.813,840.416,243.933Z" transform="translate(-761.873 40.736)" fill="url(#linear-gradient-6)"/>
      <path id="Path_7889" data-name="Path 7889" d="M875.651,157.146s-10.579,26.008-15.165,43.976c-5.444,21.314,2.125,45.008,2.125,45.008l-20.276-6.422s-5.459-29.256,1.578-45.415c5.9-13.549,7.722-20.162,7.722-20.162Z" transform="translate(-761.912 67.398)" opacity="0.3" fill="url(#linear-gradient-7)" style="mix-blend-mode: multiply;isolation: isolate"/>
      <path id="Path_7890" data-name="Path 7890" d="M942.541,204.015s-1.4-28.171-26.366-34.547c-29.914-7.636-58.517,20.282-62.449,43.167s-2.443,45.652,25.59,53.755C879.317,266.391,932.54,278.717,942.541,204.015Z" transform="translate(-747.474 80.895)" fill="url(#linear-gradient-8)"/>
      <path id="Path_7891" data-name="Path 7891" d="M942.207,205.32s-1.4-28.171-26.366-34.544c-29.912-7.638-58.517,20.28-62.449,43.165s-2.441,45.652,25.593,53.755C878.985,267.7,932.206,280.022,942.207,205.32Z" transform="translate(-747.882 82.493)" fill="url(#radial-gradient-2)"/>
      <path id="Path_7892" data-name="Path 7892" d="M847.927,198.677c1.3.331,2.959-.4,4.837-1.905,8.4-6.744,21.138-29.156,24.486-42.563,1.287-5.193,1.174-9.043-1.167-10.094-3.819-1.712-15.374,9.692-24.155,27.631C846.842,182.192,842.387,197.263,847.927,198.677Z" transform="translate(-755.731 51.255)" fill="url(#linear-gradient-9)"/>
      <path id="Path_7893" data-name="Path 7893" d="M848.7,191.126c8.4-6.744,21.138-29.156,24.486-42.563-5.222,4.077-12.46,13.235-18.43,25.442A74.584,74.584,0,0,0,848.7,191.126Z" transform="translate(-751.664 56.901)" fill="#6340a2"/>
      <path id="Path_7894" data-name="Path 7894" d="M929.691,200.516c-5.6,6.213-17.279-6.562-35.3-9.014s-29.814,4.406-34.211.58,18.144-25.964,45.323-20.142C927.2,176.589,931.6,198.4,929.691,200.516Z" transform="translate(-738.301 84.305)" opacity="0.72" fill="url(#linear-gradient-10)" style="mix-blend-mode: screen;isolation: isolate"/>
      <path id="Path_7895" data-name="Path 7895" d="M894.988,214.975a31.674,31.674,0,0,1-21.509,2.888c-12.273-2.672-14.807-9.59-14.807-9.59s5.984-.98,14.133,2.892S889.06,215.906,894.988,214.975Z" transform="translate(-739.465 129.787)" opacity="0.72" fill="url(#linear-gradient-11)" style="mix-blend-mode: screen;isolation: isolate"/>
      <path id="Path_7896" data-name="Path 7896" d="M869.144,157.183c2.107.6,1.463,17.915-.42,18.166s-5.257-.547-5.208-7.754S867.11,156.607,869.144,157.183Z" transform="translate(-733.542 67.372)" fill="#fff"/>
      <path id="Path_7897" data-name="Path 7897" d="M885.125,311.8c-11.546.293-59.57-105.787-48.04-114.155,19.638-14.258,46.451,14.276,56.449,30.472,2.294,3.73,3.708,6.811,3.932,8.561C898.631,246,896.688,311.508,885.125,311.8Z" transform="translate(-768.034 112.197)" fill="url(#linear-gradient-12)"/>
      <path id="Path_7898" data-name="Path 7898" d="M905.915,149.125c6.462,6.515-12.14,42.46-28.307,48.442s-51.057-1.354-56.614-3.646-7.638-20.947-2.43-28.111S897.09,140.226,905.915,149.125Z" transform="translate(-792.176 54.679)" fill="url(#linear-gradient-13)"/>
      <path id="Path_7899" data-name="Path 7899" d="M844.413,157.6s24.964,19.751,61.607,17.795,39.3-13.693,39.3-13.693-12.086-17.777-21.894-20.844c-3.866-1.211-44.188-8.389-57.379,15.474C857.415,156.374,844.413,157.6,844.413,157.6Z" transform="translate(-756.903 45.094)" opacity="0.5" fill="url(#linear-gradient-14)" style="mix-blend-mode: multiply;isolation: isolate"/>
      <path id="Path_7900" data-name="Path 7900" d="M888.525,60.36s18.624,12.52,26.884,41.507-35.271-5.8-35.271-5.8Z" transform="translate(-713.213 -50.966)" fill="url(#linear-gradient-15)"/>
      <path id="Path_7901" data-name="Path 7901" d="M916.1,100.844s-5.075-38.659-18.026-43.821-29.758,13.831-29.758,13.831Z" transform="translate(-727.676 -56.134)" fill="url(#linear-gradient-16)"/>
      <path id="Path_7902" data-name="Path 7902" d="M869.293,73c-58.092,35.282-54.916,123.462-32.637,155.43,25.917,37.19,162.025,13.809,181.243-47.255C1037.342,119.393,941.511,29.135,869.293,73Z" transform="translate(-784.572 -49.7)" fill="url(#linear-gradient-17)"/>
      <path id="Path_7903" data-name="Path 7903" d="M851.5,108.134s-7.065,31.841-25.27,39.844c0,0-4.319-15.607-4.319-25.328S851.5,108.134,851.5,108.134Z" transform="translate(-784.416 7.459)" opacity="0.5" fill="url(#linear-gradient-2)" style="mix-blend-mode: multiply;isolation: isolate"/>
      <path id="Path_7904" data-name="Path 7904" d="M880.552,73.808c-44.883,22.392-51.759,113.007-21.9,143.108s131.109-1.741,138.213-55.558C1003.2,113.387,934.265,47.008,880.552,73.808Z" transform="translate(-761.645 -42.06)" fill="url(#linear-gradient-19)"/>
      <path id="Path_7905" data-name="Path 7905" d="M882.794,153.093s-21.254,3.368-30.63-9.163-5.048-22.2-2.087-22.945,12.506,18.079,20.071,24.706S882.794,153.093,882.794,153.093Z" transform="translate(-754.402 23.149)" opacity="0.5" fill="url(#linear-gradient-20)" style="mix-blend-mode: screen;isolation: isolate"/>
      <path id="Path_7906" data-name="Path 7906" d="M869.789,93.166s6.02,54.775-27.776,74.146c0,0-16.59,1.785-26.235-8.285,0,0,15.018,14.113,30.854-.585s12.026-55.207,0-68.4-29.387-9.721-29.387-9.721l6.945-6.251S849.767,68.861,869.789,93.166Z" transform="translate(-791.921 -34.774)" fill="url(#linear-gradient-21)"/>
      <path id="Path_7907" data-name="Path 7907" d="M827.967,73.829s18.8-1.736,31.944,20.084c13.953,23.172,3.81,63.229-13.142,69.313s-34.08-58.726-34.08-58.726l9.848-25.784A11.654,11.654,0,0,1,827.967,73.829Z" transform="translate(-795.699 -34.534)" fill="url(#linear-gradient-22)"/>
      <path id="Path_7908" data-name="Path 7908" d="M809.305,126.837c2.419,12.517,7.514,22.743,14.331,29.212l.053.036,1.907,1.687h.018a24.735,24.735,0,0,0,19.1,5.68c22.887-2.914,25.966-36.063,23.272-54.847-3.132-21.7-21.7-34.727-36.467-32.819C813.942,78.057,804.559,102.338,809.305,126.837Z" transform="translate(-801.336 -32.327)" fill="url(#linear-gradient-23)"/>
      <path id="Path_7909" data-name="Path 7909" d="M859.9,102.349s-2.43,20.333-17.359,24.728-27.084-6.4-30.9-21.66c0,0,4.688,13.16,24.132,9.792S859.9,102.349,859.9,102.349Z" transform="translate(-796.983 0.384)" opacity="0.72" fill="url(#linear-gradient-24)" style="mix-blend-mode: screen;isolation: isolate"/>
      <path id="Path_7910" data-name="Path 7910" d="M859.833,95.284c-.176,3.79-27.589-4.079-36.309-2.921s-12.422,11.853-13.811,11.6,2.316-25.255,18.519-27.107S859.953,92.652,859.833,95.284Z" transform="translate(-799.667 -30.961)" opacity="0.72" fill="url(#linear-gradient-25)" style="mix-blend-mode: screen;isolation: isolate"/>
      <path id="Path_7911" data-name="Path 7911" d="M901.923,124.58c9.325,5.153,22.914-6.335,19.509-20.113S902.005,79.646,894.067,84,886.42,116.015,901.923,124.58Z" transform="translate(-702.457 -23.232)" fill="url(#linear-gradient-26)"/>
      <path id="Path_7912" data-name="Path 7912" d="M862.372,141.781c14.687,10.161,30.559-6.544,30.392-21.376s-13.836-29.4-27.4-25.688C850.51,98.785,847.285,131.345,862.372,141.781Z" transform="translate(-746.988 -9.665)" fill="url(#linear-gradient-27)"/>
      <path id="Path_7913" data-name="Path 7913" d="M877.145,126.567c-1.367,2.461,16.379,14.48,24.9,10.977,9.985-4.1,8.432-25.237,6.58-26.673S879.461,122.4,877.145,126.567Z" transform="translate(-716.965 10.671)" fill="#2f95cd"/>
      <path id="Path_7914" data-name="Path 7914" d="M845.508,149.623c8.014,10.917,30.756-26.537,55.311-39.119,28.007-14.349,68.718.851,71.465-3.581s-31.968-43.541-76.831-36.585S838.114,139.549,845.508,149.623Z" transform="translate(-757.997 -39.774)" opacity="0.5" fill="url(#linear-gradient-28)" style="mix-blend-mode: screen;isolation: isolate"/>
      <path id="Path_7915" data-name="Path 7915" d="M816.768,121.541s-1.612-10.83,5.293-14.48c0,0,10.388-.551,12.98,9.5,0,0-20.489,65.623-3.743,76.129,15.592,9.783,56.685-10.306,56.685-10.306l3.319,2.7s-34.862,21.8-56.914,15.045S816.768,121.541,816.768,121.541Z" transform="translate(-791.157 6.14)" fill="url(#linear-gradient-29)"/>
      <path id="Path_7916" data-name="Path 7916" d="M844.309,150.422c-3.5,7.176,9.061,10.492,18.221,9,10.279-1.676,26.913-10.528,23.061-20.282S852.518,133.6,844.309,150.422Z" transform="translate(-757.765 39.057)" fill="url(#linear-gradient-30)"/>
      <path id="Path_7917" data-name="Path 7917" d="M844.429,150.933c.153,1.727,35.885-7.731,34.978-14.26S843.255,137.571,844.429,150.933Z" transform="translate(-756.918 39.42)" fill="url(#linear-gradient-31)"/>
      <g id="Group_2329" data-name="Group 2329" transform="translate(0 164.695)">
        <path id="Path_7918" data-name="Path 7918" d="M805.046,155.788s1.389-4.713,7.418-6.827l3.694,13.4Z" transform="translate(-805.046 -107.308)" fill="url(#linear-gradient-32)"/>
        <path id="Path_7919" data-name="Path 7919" d="M805.671,142.418s18.946-11.573,58.777-10.648c0,0,16.594,60.584,18.724,104.131,0,0-23.334,6.462-48.8,5.562A564.347,564.347,0,0,1,805.671,142.418Z" transform="translate(-804.282 -128.396)" fill="url(#linear-gradient-33)"/>
        <path id="Path_7920" data-name="Path 7920" d="M832.112,133.6l9.058-3.374s13.644,60.873,14.569,106.2l-4.9,1.309Z" transform="translate(-771.946 -130.223)" fill="url(#linear-gradient-34)"/>
        <path id="Path_7921" data-name="Path 7921" d="M813.4,176.634l4.815,13.422s13.324-16.223,11.864-31.681Z" transform="translate(-794.825 -95.795)" opacity="0.5" fill="url(#linear-gradient-35)" style="mix-blend-mode: multiply;isolation: isolate"/>
        <path id="Path_7922" data-name="Path 7922" d="M805.671,144.245s13.916-11.379,67.835-14.022l-9.058,3.374S839.929,133.135,805.671,144.245Z" transform="translate(-804.282 -130.223)" fill="#ff91ff"/>
        <path id="Path_7923" data-name="Path 7923" d="M807.063,157.98s1.114,23.114,9.788,28.076c0,0,24.855-14,21.374-28.449C835.772,147.429,807.063,157.98,807.063,157.98Z" transform="translate(-802.579 -102.15)" fill="url(#linear-gradient-36)"/>
        <path id="Path_7924" data-name="Path 7924" d="M805.046,152.237s0,18.986,10.921,30.712c0,0,14.52-5.8,19.4-11.7,7.851-9.479,4.613-14.914,1.967-17.114C833.113,150.618,805.046,152.237,805.046,152.237Z" transform="translate(-805.046 -103.756)" fill="url(#linear-gradient-37)"/>
        <path id="Path_7925" data-name="Path 7925" d="M834.932,140.9s2.759-2.454,5.546-1.949c0,0,5.333,15.034,4.175,27.327l-4.175,1.154Z" transform="translate(-768.497 -119.639)" fill="url(#linear-gradient-38)"/>
        <path id="Path_7926" data-name="Path 7926" d="M834.932,140.858s6.484,14.651,7.611,25.959l3.7-1.387s-2.705-19.386-5.762-26.522C840.478,138.908,836.784,138.83,834.932,140.858Z" transform="translate(-768.497 -119.602)" fill="url(#linear-gradient-39)"/>
        <path id="Path_7927" data-name="Path 7927" d="M831.815,148.349c1.087,5.486-1.314,10.583-5.362,11.386s-8.216-2.992-9.3-8.476,1.312-10.581,5.362-11.386S830.726,142.865,831.815,148.349Z" transform="translate(-790.564 -118.553)" fill="url(#linear-gradient-40)"/>
        <path id="Path_7928" data-name="Path 7928" d="M829.689,147.448c.847,4.27-1.023,8.238-4.175,8.863s-6.393-2.33-7.24-6.6,1.023-8.236,4.175-8.863S828.842,143.18,829.689,147.448Z" transform="translate(-789.118 -117.329)" fill="url(#radial-gradient-3)"/>
        <path id="Path_7929" data-name="Path 7929" d="M821.571,183.117v-4.775l26.975-3.668,1.952,4.248A270.42,270.42,0,0,1,821.571,183.117Z" transform="translate(-784.837 -75.862)" fill="url(#linear-gradient-41)"/>
        <path id="Path_7930" data-name="Path 7930" d="M853.383,135.158,815.835,221l3.428,9.381s30.459-19.166,43.363-42.36C862.626,188.024,854.75,142.754,853.383,135.158Z" transform="translate(-791.852 -124.188)" opacity="0.5" fill="url(#linear-gradient-42)" style="mix-blend-mode: color-dodge;isolation: isolate"/>
      </g>
      <path id="Path_7931" data-name="Path 7931" d="M877.072,154.4s18.85-4.11,31.681-20.644,30.274-13.829,30.274-13.829S914.691,154.39,877.072,154.4Z" transform="translate(-716.963 21.681)" opacity="0.5" fill="url(#linear-gradient-43)" style="mix-blend-mode: screen;isolation: isolate"/>
      <path id="Path_7932" data-name="Path 7932" d="M840.535,83.578c-.062,3.637,22.15-14.38,19.371-15.872S840.606,79.412,840.535,83.578Z" transform="translate(-761.645 -42.124)" fill="#fff"/>
      <path id="Path_7933" data-name="Path 7933" d="M858.982,191.022l-.567-1.08C858.524,190.124,858.726,190.491,858.982,191.022Z" transform="translate(-739.779 107.505)" opacity="0.3" fill="url(#linear-gradient-44)" style="mix-blend-mode: multiply;isolation: isolate"/>
      <path id="Path_7934" data-name="Path 7934" d="M885.125,309.675c-11.546.293-59.57-105.787-48.04-114.155,0,0,14.34,66.575,31.826,83.8,17.468,17.223,28.787-27.929,25.706-47.564-.309-1.983-.671-3.91-1.082-5.76,2.294,3.73,3.708,6.811,3.932,8.561C898.631,243.867,896.688,309.379,885.125,309.675Z" transform="translate(-768.034 114.327)" opacity="0.3" fill="url(#linear-gradient-45)" style="mix-blend-mode: multiply;isolation: isolate"/>
      <path id="Path_7935" data-name="Path 7935" d="M845.589,203.745c-1.751,2.879,2.719,20.329,5.151,19.98s2.963-9.55,1.741-12.5S845.981,203.1,845.589,203.745Z" transform="translate(-755.949 124.318)" fill="#fff"/>
      <path id="Path_7936" data-name="Path 7936" d="M848.351,214.057c-2.043,1.034.407,6.3,1.854,6.122S850.205,213.119,848.351,214.057Z" transform="translate(-753.041 136.889)" fill="#fff"/>
      <path id="Path_7937" data-name="Path 7937" d="M873.954,63.841c1.389,2.894,10.632-3.165,9.259-5.671S872.565,60.949,873.954,63.841Z" transform="translate(-720.949 -54.446)" fill="#fff"/>
      <path id="Path_7938" data-name="Path 7938" d="M806.192,155.521c0,1.754,9.259-.242,8.565-1.716S806.192,152.606,806.192,155.521Z" transform="translate(-803.645 62.243)" fill="#fff"/>
      <path id="Path_7939" data-name="Path 7939" d="M819.3,111.027c-2.416-.8-3.523,32.968-1.563,33.431S823.04,112.269,819.3,111.027Z" transform="translate(-790.761 10.979)" fill="url(#linear-gradient-46)"/>
      <path id="Path_7940" data-name="Path 7940" d="M935.628,194.684s-7.825-10.025-18.481-10.906-14.314,2.234-15.99,9.765,14.643,33.886,34.273,53.4c8.083.282,10.041-9.725,10.9-16.13C946.067,225.252,943.618,207.315,935.628,194.684Z" transform="translate(-687.653 99.79)" fill="url(#linear-gradient-47)"/>
      <path id="Path_7941" data-name="Path 7941" d="M908.84,184.049s21.2,26.64,28.258,42.229c3.808,8.407,6.024,13.942,6.024,13.942s-4.537,13.322-13.624,2.788c-12.871-14.92-30.245-37.452-27.827-48.811C903.718,184.576,905.306,182.7,908.84,184.049Z" transform="translate(-687.158 99.822)" fill="url(#linear-gradient-48)"/>
      <path id="Path_7942" data-name="Path 7942" d="M920.534,204.7s-2.068,14.847-10.864,17.47l-3.1-35.265S917.654,200.282,920.534,204.7Z" transform="translate(-680.886 103.787)" opacity="0.5" fill="url(#linear-gradient-49)" style="mix-blend-mode: multiply;isolation: isolate"/>
      <path id="Path_7943" data-name="Path 7943" d="M918.293,198.51c1.494,3.346-.011,25.713-2.319,28.347s-8.107-1.356-9.876-5.791-9.937-28.663-1.325-36.963C904.773,184.1,912.064,184.557,918.293,198.51Z" transform="translate(-687.828 100.364)" fill="url(#linear-gradient-50)"/>
      <path id="Path_7944" data-name="Path 7944" d="M908,192.019c1,.133,2.47,7.7,1.714,9.11s-2.405,1.327-3.268-.358S906.491,191.817,908,192.019Z" transform="translate(-681.448 110.04)" fill="#fff"/>
    </g>
  </g>
</svg>
