<svg xmlns="http://www.w3.org/2000/svg" xmlns:xlink="http://www.w3.org/1999/xlink" width="369.609" height="476.885" viewBox="0 0 369.609 476.885">
  <defs>
    <radialGradient id="radial-gradient" cx="0.5" cy="0.5" r="2.247" gradientTransform="translate(0.389 -11.846) scale(0.223 0.222)" gradientUnits="objectBoundingBox">
      <stop offset="0" stop-color="#be9dea"/>
      <stop offset="0.388" stop-color="#e0bff5"/>
      <stop offset="1" stop-color="#fff"/>
    </radialGradient>
    <linearGradient id="linear-gradient" x1="0.442" y1="1.006" x2="0.543" y2="-0.018" gradientUnits="objectBoundingBox">
      <stop offset="0" stop-color="#a242ea"/>
      <stop offset="1" stop-color="#fe117e"/>
    </linearGradient>
    <linearGradient id="linear-gradient-2" x1="0.346" y1="0.984" x2="0.532" y2="0.038" gradientUnits="objectBoundingBox">
      <stop offset="0" stop-color="#cbc1f7"/>
      <stop offset="1" stop-color="#e8dcf7"/>
    </linearGradient>
    <linearGradient id="linear-gradient-3" x1="0.321" y1="0.985" x2="0.557" y2="-0.029" xlink:href="#linear-gradient-2"/>
    <linearGradient id="linear-gradient-4" x1="0.5" y1="1" x2="0.5" gradientUnits="objectBoundingBox">
      <stop offset="0" stop-color="#be9dea"/>
      <stop offset="1" stop-color="#9e8cef"/>
    </linearGradient>
    <linearGradient id="linear-gradient-6" x1="0.5" y1="1" x2="0.5" gradientUnits="objectBoundingBox">
      <stop offset="0" stop-color="#9d68c2"/>
      <stop offset="1" stop-color="#ccedff"/>
    </linearGradient>
    <linearGradient id="linear-gradient-8" x1="0.399" y1="1.015" x2="0.646" y2="-0.022" xlink:href="#linear-gradient-2"/>
    <linearGradient id="linear-gradient-11" x1="0.347" y1="1" x2="0.597" y2="0.003" xlink:href="#linear-gradient-2"/>
    <linearGradient id="linear-gradient-13" x1="0.5" y1="1" x2="0.5" gradientUnits="objectBoundingBox">
      <stop offset="0" stop-color="#8da4e5"/>
      <stop offset="1" stop-color="#755cbb"/>
    </linearGradient>
    <linearGradient id="linear-gradient-14" x1="0.403" y1="0.986" x2="0.689" y2="0.002" xlink:href="#linear-gradient-2"/>
    <linearGradient id="linear-gradient-15" x1="-0.932" y1="1" x2="-0.932" gradientUnits="objectBoundingBox">
      <stop offset="0" stop-color="#b9acf4"/>
      <stop offset="1" stop-color="#e1d1f5"/>
    </linearGradient>
    <linearGradient id="linear-gradient-17" x1="0.5" y1="1" x2="0.5" y2="0" xlink:href="#linear-gradient-15"/>
    <linearGradient id="linear-gradient-19" x1="0.5" y1="1" x2="0.5" gradientUnits="objectBoundingBox">
      <stop offset="0" stop-color="#45ffcd"/>
      <stop offset="1" stop-color="#22e0ff"/>
    </linearGradient>
    <linearGradient id="linear-gradient-20" x1="-0.437" y1="1" x2="-0.437" y2="0" xlink:href="#linear-gradient-19"/>
    <linearGradient id="linear-gradient-21" x1="0.459" y1="1.009" x2="0.574" y2="0.009" xlink:href="#linear-gradient-2"/>
    <linearGradient id="linear-gradient-22" x1="0.5" y1="1" x2="0.5" gradientUnits="objectBoundingBox">
      <stop offset="0" stop-color="#0665bd"/>
      <stop offset="1" stop-color="#1a1f77"/>
    </linearGradient>
    <linearGradient id="linear-gradient-24" y1="0.5" x2="1" y2="0.5" gradientUnits="objectBoundingBox">
      <stop offset="0" stop-color="#8879ea"/>
      <stop offset="1" stop-color="#9e8cef"/>
    </linearGradient>
    <linearGradient id="linear-gradient-26" x1="0.485" y1="1.11" x2="0.508" y2="-0.231" gradientUnits="objectBoundingBox">
      <stop offset="0" stop-color="#5e36cc"/>
      <stop offset="1" stop-color="#6c4a96"/>
    </linearGradient>
    <linearGradient id="linear-gradient-27" x1="0.429" y1="0.998" x2="0.603" y2="0.007" xlink:href="#linear-gradient-2"/>
    <linearGradient id="linear-gradient-29" x1="0.424" y1="1.025" x2="0.561" y2="-0.03" xlink:href="#linear-gradient-2"/>
    <linearGradient id="linear-gradient-33" x1="2.891" y1="1" x2="2.891" y2="0" xlink:href="#linear-gradient-19"/>
    <linearGradient id="linear-gradient-34" x1="0.479" y1="1.014" x2="0.646" y2="0.002" xlink:href="#linear-gradient-4"/>
    <linearGradient id="linear-gradient-35" y1="1.67" x2="0" y2="0.567" gradientUnits="objectBoundingBox">
      <stop offset="0" stop-color="#dd1a8f"/>
      <stop offset="1" stop-color="#fe117e"/>
    </linearGradient>
    <linearGradient id="linear-gradient-36" y1="0.5" x2="1" y2="0.5" gradientUnits="objectBoundingBox">
      <stop offset="0"/>
      <stop offset="1" stop-color="#6a9bff"/>
    </linearGradient>
    <linearGradient id="linear-gradient-38" x1="0.5" y1="1" x2="0.5" y2="0" xlink:href="#linear-gradient-6"/>
    <radialGradient id="radial-gradient-2" cx="0.517" cy="0.845" r="0.763" gradientTransform="translate(0.017) scale(0.966 1)" xlink:href="#linear-gradient-19"/>
    <linearGradient id="linear-gradient-42" x1="0.5" y1="1" x2="0.5" gradientUnits="objectBoundingBox">
      <stop offset="0" stop-color="#d4e2ff"/>
      <stop offset="1"/>
    </linearGradient>
    <linearGradient id="linear-gradient-44" x1="0.387" y1="1.009" x2="0.615" y2="-0.008" xlink:href="#linear-gradient-2"/>
    <linearGradient id="linear-gradient-47" x1="0.304" y1="1.005" x2="0.639" y2="0.009" xlink:href="#linear-gradient-2"/>
    <linearGradient id="linear-gradient-49" x1="0.5" y1="1" x2="0.5" gradientUnits="objectBoundingBox">
      <stop offset="0" stop-color="#d93de3"/>
      <stop offset="1" stop-color="#ff6dba"/>
    </linearGradient>
    <linearGradient id="linear-gradient-50" x1="-0.076" y1="1.068" x2="-0.076" y2="0.069" gradientUnits="objectBoundingBox">
      <stop offset="0"/>
      <stop offset="1" stop-color="#00e3ff"/>
    </linearGradient>
    <linearGradient id="linear-gradient-51" y1="0.5" x2="1" y2="0.5" gradientUnits="objectBoundingBox">
      <stop offset="0"/>
      <stop offset="1" stop-color="#d4e2ff"/>
    </linearGradient>
    <linearGradient id="linear-gradient-52" x1="0.42" y1="0.993" x2="0.503" y2="-0.01" xlink:href="#linear-gradient-49"/>
    <linearGradient id="linear-gradient-54" x1="0" y1="0.5" x2="1" y2="0.5" xlink:href="#linear-gradient-42"/>
    <linearGradient id="linear-gradient-55" x1="0.381" y1="1.004" x2="0.381" y2="-0.009" xlink:href="#linear-gradient-2"/>
  </defs>
  <g id="Group_2343" data-name="Group 2343" transform="translate(-40.205)">
    <ellipse id="Ellipse_5" data-name="Ellipse 5" cx="88.488" cy="19.691" rx="88.488" ry="19.691" transform="translate(109.057 437.503)" opacity="0.5" fill="url(#radial-gradient)" style="mix-blend-mode: multiply;isolation: isolate"/>
    <g id="Group_2342" data-name="Group 2342" transform="translate(40.205)">
      <path id="Path_8345" data-name="Path 8345" d="M268.816,46.11l6.326,2.711-6.326,70.825-5.422,2.424-29.822,2.986-2.259,12.452-21.7-17.861Z" transform="translate(94.467 -43.499)" fill="url(#linear-gradient)"/>
      <path id="Path_8346" data-name="Path 8346" d="M161.3,238.416c-2.577,15.059-14.024,49.847-24.289,46.181-2.22-.788-4.543-3.6-6.852-7.726-7.01-12.556-13.914-37.257-17.331-53.961-1.859-9.1-2.7-15.847-1.948-16.938,4.578-6.778,48.057,22.608,50.652,25.882C162.01,232.478,161.9,234.91,161.3,238.416Z" transform="translate(-21.342 142.297)" fill="url(#linear-gradient-2)"/>
      <path id="Path_8347" data-name="Path 8347" d="M192.862,221.035c-.161,1.4-.356,2.844-.553,4.346-3.077,22.877-9.425,56.465-16.257,68.682-1.629,2.933-3.291,4.632-4.938,4.667a3.792,3.792,0,0,1-1.323-.2,11.347,11.347,0,0,1-4.83-3.56v-.017c-10.356-11.625-22.052-46.931-22.464-57.467a4.8,4.8,0,0,1,.395-2.682c5.9-8.012,48.667-35.361,51.045-32.106C194.563,203.578,194.1,210.859,192.862,221.035Z" transform="translate(15.95 139.342)" fill="url(#linear-gradient-3)"/>
      <path id="Path_8348" data-name="Path 8348" d="M110.946,206.113c-4.812,6.29,34.406,34.755,50.945,27.318C161.891,233.431,117.34,197.754,110.946,206.113Z" transform="translate(-21.414 142.162)" fill="url(#linear-gradient-4)"/>
      <path id="Path_8349" data-name="Path 8349" d="M142.5,237.333c-1.3,3.207,43.987-4.148,51.436-34.773C193.94,202.56,154.783,207.14,142.5,237.333Z" transform="translate(15.941 139.49)" fill="url(#linear-gradient-4)"/>
      <path id="Path_8350" data-name="Path 8350" d="M128.027,232.406c-2.2,2.719.521,37.953,8.98,52.191-2.22-.788-4.543-3.6-6.852-7.726-1.376-6.17-3.415-15.328-5.346-24.467-2.469-11.77-8.765-23.842-11.985-29.494-1.859-9.1-2.7-15.847-1.948-16.938,4.578-6.778,48.057,22.608,50.652,25.882.482.625.375,3.057-.232,6.563C161.3,238.416,130.227,229.7,128.027,232.406Z" transform="translate(-21.342 142.297)" opacity="0.3" fill="url(#linear-gradient-6)" style="mix-blend-mode: multiply;isolation: isolate"/>
      <path id="Path_8351" data-name="Path 8351" d="M154.723,223.539c-1.849.571-2.278,15.324.8,16.14S159,222.222,154.723,223.539Z" transform="translate(28.569 163.948)" fill="#fff"/>
      <path id="Path_8352" data-name="Path 8352" d="M192.862,221.035s-24.771,7.333-30.494,19.084c-5.723,11.733-3.578,39.635,2.593,54.838-10.356-11.625-22.052-46.931-22.464-57.467a4.8,4.8,0,0,1,.395-2.682c5.9-8.012,48.667-35.361,51.045-32.106C194.563,203.578,194.1,210.859,192.862,221.035Z" transform="translate(15.95 139.342)" opacity="0.3" fill="url(#linear-gradient-6)" style="mix-blend-mode: multiply;isolation: isolate"/>
      <path id="Path_8353" data-name="Path 8353" d="M152.166,166.221c-.052,13.074-1.877,31.98-7.815,47.255-9.82,25.289-24.575,57.127-25.022,58.129l-.017.017c-9.015,5.491-19.8,5.2-26.667,4.2a46.644,46.644,0,0,1-6.886-1.484s3.057-28.975,18.976-61.8a252.3,252.3,0,0,1,26.973-43.139.969.969,0,0,0,.124-.161c.091-.143.215-.286.323-.43.072-.091.124-.161.178-.234a.75.75,0,0,0,.161-.215c.091-.106.163-.2.234-.284.017-.02.035-.037.035-.054l.037-.037c8.924-11.321,16.168-18.188,17.689-17.348C151.4,151.144,152.2,157.332,152.166,166.221Z" transform="translate(-50.4 78.685)" fill="url(#linear-gradient-8)"/>
      <path id="Path_8354" data-name="Path 8354" d="M85.82,216.2S97.43,197.05,109.4,199.536s9.826,15.079,9.826,15.079S103.919,225.693,85.82,216.2Z" transform="translate(-50.328 135.693)" fill="url(#linear-gradient-4)"/>
      <path id="Path_8355" data-name="Path 8355" d="M152.166,157.786c-.052,13.074-1.877,31.98-7.815,47.255-9.82,25.289-24.575,57.127-25.022,58.129l-.017.017-26.667,4.2a46.644,46.644,0,0,1-6.886-1.484s3.057-28.975,18.976-61.8a252.3,252.3,0,0,1,26.973-43.139c-5.027,6.635-26.059,35.521-31.711,60.06-6.439,27.919,19.531,17.171,30.154,0,10.607-17.171,21.7-63.245,21.7-63.245Z" transform="translate(-50.4 87.121)" opacity="0.3" fill="url(#linear-gradient-6)" style="mix-blend-mode: multiply;isolation: isolate"/>
      <path id="Path_8356" data-name="Path 8356" d="M103.135,192.239c-2.115-.792,8.811-25.528,12.2-25.754S104.943,192.918,103.135,192.239Z" transform="translate(-30.39 97.295)" fill="#fff"/>
      <path id="Path_8357" data-name="Path 8357" d="M103.74,179.632c-1.668-.885-3.244,3.743-1.718,4.42S105.627,180.633,103.74,179.632Z" transform="translate(-32.101 112.542)" fill="#fff"/>
      <path id="Path_8358" data-name="Path 8358" d="M105.871,202.139c-6.2-1.011-15.2,4.791-18.014,10s-4.27,35.2,2.812,59.977c0,0,10,2.708,17.494,0s12.7-24.573,13.12-41.026S116.075,203.806,105.871,202.139Z" transform="translate(-50.661 138.863)" fill="url(#linear-gradient-11)"/>
      <path id="Path_8359" data-name="Path 8359" d="M95.56,268.979s-9.13-52.781,11.621-63.564c0,0,6.173,10.46,3.882,30.867S105.256,267.1,95.56,268.979Z" transform="translate(-41.274 142.829)" fill="url(#linear-gradient-4)"/>
      <path id="Path_8360" data-name="Path 8360" d="M93.822,229.279s5.335,7.793,8.978,9.067a9.175,9.175,0,0,0,6.489-.069L95.824,214.315S93.381,223.835,93.822,229.279Z" transform="translate(-41.031 153.239)" opacity="0.5" fill="url(#linear-gradient-13)" style="mix-blend-mode: multiply;isolation: isolate"/>
      <path id="Path_8361" data-name="Path 8361" d="M94.716,224.122S97.673,209.5,106.5,205.93c0,0,8.2,8.093,6.123,39.539,0,0-4.582,6.038-11.039,0C101.587,245.469,96.174,234.743,94.716,224.122Z" transform="translate(-39.922 143.432)" fill="url(#linear-gradient-14)"/>
      <path id="Path_8362" data-name="Path 8362" d="M97.581,211.94c-3,0,1.562,13.276,3.124,12.964S100.081,211.94,97.581,211.94Z" transform="translate(-37.739 150.461)" fill="#fff"/>
      <path id="Path_8363" data-name="Path 8363" d="M135.88,79.533S122.309,67.824,105.7,65.791c0,0-5.086,2.484-10.959,20.785s4.968,54.447,4.968,54.447Z" transform="translate(-41.931 -20.48)" fill="url(#linear-gradient-15)"/>
      <path id="Path_8364" data-name="Path 8364" d="M95.886,74.914s2.662-6.186,6.439-9.123c0,0,13.66,12.61,13.124,42.735l-3.94,4.077Z" transform="translate(-38.554 -20.48)" fill="url(#linear-gradient-4)"/>
      <path id="Path_8365" data-name="Path 8365" d="M164.522,79.533s13.569-11.71,30.177-13.742c0,0,5.086,2.484,10.959,20.785s-4.971,54.447-4.971,54.447Z" transform="translate(41.725 -20.48)" fill="url(#linear-gradient-17)"/>
      <path id="Path_8366" data-name="Path 8366" d="M185.677,65.794a58.662,58.662,0,0,0-13.441,37.617l5.2,3.276L192.57,75.353S187.547,65.519,185.677,65.794Z" transform="translate(50.748 -20.483)" fill="url(#linear-gradient-4)"/>
      <path id="Path_8367" data-name="Path 8367" d="M174.645,102.453s-3.573-19.826,9.473-34.4c0,0,14.743,6.947,20.842,32.7s-9.779,41.214-9.779,41.214Z" transform="translate(53.042 -17.831)" fill="url(#linear-gradient-19)"/>
      <path id="Path_8368" data-name="Path 8368" d="M119.976,102.453s3.573-19.826-9.473-34.4c0,0-14.743,6.947-20.844,32.7s9.779,41.214,9.779,41.214Z" transform="translate(-47.468 -17.831)" fill="url(#linear-gradient-20)"/>
      <path id="Path_8369" data-name="Path 8369" d="M290.359,220.163c-30.279,42.46-172.6,39.312-191.125,4.971-12.091-22.428-10.768-56.141.877-87.174,15.274-40.726,48.344-76.855,92.2-76.855,51.618,0,91.27,51.423,103.218,98.389C301.574,183.264,300.537,205.889,290.359,220.163Z" transform="translate(-44.559 -25.961)" fill="url(#linear-gradient-21)"/>
      <path id="Path_8370" data-name="Path 8370" d="M100.77,175.3c6.778,28.917,131.871,32.067,162.595,5.86S249.845,61.852,182.07,65.918C120.079,69.636,89.668,127.935,100.77,175.3Z" transform="translate(-35.475 -20.483)" fill="#dfe3fb"/>
      <path id="Path_8371" data-name="Path 8371" d="M100.469,173.683c6.778,28.919,131.87,32.067,162.6,5.86S249.547,60.233,181.77,64.3C119.779,68.017,89.369,126.316,100.469,173.683Z" transform="translate(-35.825 -22.377)" fill="url(#linear-gradient-22)"/>
      <path id="Path_8372" data-name="Path 8372" d="M290.359,178.741c-30.279,42.46-172.6,39.312-191.125,4.971-12.091-22.428-10.768-56.142.877-87.174a.017.017,0,0,1,.017-.017c-.5,1.825-12.43,45.322-.25,64.46,12.447,19.566,61.7,16.847,114.574,14.6,52.872-2.272,70.363-9.946,79.235-24.862,6.993-11.733-.037-37.632-3.346-48.112l5.188,15.47C301.574,141.842,300.537,164.467,290.359,178.741Z" transform="translate(-44.559 15.462)" opacity="0.3" fill="url(#linear-gradient-6)" style="mix-blend-mode: multiply;isolation: isolate"/>
      <path id="Path_8373" data-name="Path 8373" d="M177.514,164.705c-29.583-.035-50.9-3.361-62.833-8.136h-.017c-7.835-3.131-11.625-6.869-11.072-10.714.341-2.343,6.153-4.4,15.292-6.081,26.864-4.864,82.472-6.331,112.431-1.788,2.575.393,4.973.822,7.136,1.3.464.108.911.215,1.341.323.089.017.161.035.252.052,5.168,1.271,8.835,2.827,10.462,4.723a3.959,3.959,0,0,1,.842,1.467C254.137,155.441,204.235,164.725,177.514,164.705Z" transform="translate(-29.602 60.76)" fill="url(#linear-gradient-24)"/>
      <path id="Path_8374" data-name="Path 8374" d="M251.006,143.495a3.529,3.529,0,0,1-.5.894c-2.9,4.1-14.647,9.371-14.647,9.371s-45.161-18.474-81.774-10.265-39.4,13.074-39.4,13.074h-.017c-7.835-3.131-11.625-6.869-11.072-10.714.341-2.343,6.153-4.4,15.292-6.081,26.864-4.864,82.472-6.331,112.431-1.788,3.129.553,5.973,1.109,8.477,1.627.089.017.161.035.252.052C247.142,141.2,251.347,142.564,251.006,143.495Z" transform="translate(-29.602 60.76)" opacity="0.5" fill="url(#linear-gradient-13)" style="mix-blend-mode: multiply;isolation: isolate"/>
      <path id="Path_8375" data-name="Path 8375" d="M230.178,139.29c-6.993,6.689-40.529,12.467-59.648,12.449-34.269-.054-55.089-5.454-59.919-11.966C139.785,134.5,202.884,133.211,230.178,139.29Z" transform="translate(-21.33 60.759)" fill="url(#linear-gradient-26)"/>
      <path id="Path_8376" data-name="Path 8376" d="M227.9,266.966c-4.133,24.4-25.971,40.652-57.289,40.652-27.257,0-50.346-10.158-56.445-32.534-6.1-22.356-3.738-63.709,4.4-89.463a83.483,83.483,0,0,1,4.383-11.072l.017-.037a75.686,75.686,0,0,1,5.153-9.067.057.057,0,0,0,.017-.037c9.943-14.971,24.5-24.753,40.958-24.753,17.134,0,30.245,7.047,39.168,17.474a57.235,57.235,0,0,1,9.731,16.366,162.8,162.8,0,0,1,6.724,21.551,1.384,1.384,0,0,0,.037.215C230.385,219.657,231.582,245.18,227.9,266.966Z" transform="translate(-21.195 67.085)" fill="url(#linear-gradient-27)"/>
      <path id="Path_8377" data-name="Path 8377" d="M154.874,147.815s2.671,28.976,19.685,46.6C174.559,194.417,169.847,167.4,154.874,147.815Z" transform="translate(30.441 75.458)" fill="url(#linear-gradient-24)"/>
      <path id="Path_8378" data-name="Path 8378" d="M250.121,145.873c-26.669,52.872-73.707,70.936-73.707,70.936-12.933-8.37-24.2-35.7-19.746-41.03l.017-.017a2.283,2.283,0,0,1,.8-.627c57.376-27.455,74.547-55.929,74.547-55.929,7.746.555,12.18,5.079,14.7,10.267C250.442,137,250.121,145.873,250.121,145.873Z" transform="translate(31.38 41.996)" fill="url(#linear-gradient-29)"/>
      <path id="Path_8379" data-name="Path 8379" d="M98.527,152.833s6.01-7.01,17.8-12.66,22.631-10.071,24.306-14.608S108.29,123.7,108.29,123.7l-16.934,7.349S94.012,144.71,98.527,152.833Z" transform="translate(-43.852 46.34)" opacity="0.5" fill="url(#linear-gradient-13)" style="mix-blend-mode: multiply;isolation: isolate"/>
      <path id="Path_8380" data-name="Path 8380" d="M192.611,119.451c-4.775,1.274-4.292,32.985,1.807,36.148s16.268-9.49,16.268-9.49S209.555,114.932,192.611,119.451Z" transform="translate(70.813 41.759)" fill="url(#linear-gradient-4)"/>
      <path id="Path_8381" data-name="Path 8381" d="M149.617,108.359c4.519,7.96,34.46.885,36.148-3.84,2.259-6.327-6.1-26.207-21.915-24.4S147.426,104.5,149.617,108.359Z" transform="translate(23.211 -3.856)" fill="url(#linear-gradient-19)"/>
      <path id="Path_8382" data-name="Path 8382" d="M147.24,108.359c-4.519,7.96-34.46.885-36.148-3.84-2.259-6.327,6.1-26.207,21.916-24.4S149.431,104.5,147.24,108.359Z" transform="translate(-21.195 -3.856)" fill="url(#linear-gradient-33)"/>
      <path id="Path_8383" data-name="Path 8383" d="M123.712,100.573s8.535,8.811,32.733,8.811,36.623-10.167,36.623-10.167-10.666,14.458-36.623,14.458S123.712,100.573,123.712,100.573Z" transform="translate(-6.008 18.616)" fill="#2f95cd"/>
      <path id="Path_8384" data-name="Path 8384" d="M110.261,87.367s8.776,5.648,3.02,18.728c0,0-41,22.33-38.626,46.662,1.979,20.306,58.628,10.475,58.628,10.475l2.033,6.778s-48.123,9.414-64.729-1.9c0,0-5.648-13.411,8.36-37.585A281.573,281.573,0,0,1,110.261,87.367Z" transform="translate(-69.461 4.756)" fill="url(#linear-gradient-34)"/>
      <path id="Path_8385" data-name="Path 8385" d="M96.287,126.285c-5.162,5.839,5.793,12.228,14.8,13.209,10.106,1.1,28.056-2.9,26.971-13.076S108.387,112.6,96.287,126.285Z" transform="translate(-39.636 39.821)" fill="url(#linear-gradient-35)"/>
      <path id="Path_8386" data-name="Path 8386" d="M108.761,98.676c-1.562,9.366,19.282,8.961,47.669,8.021,34.115-1.13,68.393,28.24,88.339,7.162,3.287-3.476-29.375-49.084-68.8-48.062S110.117,90.542,108.761,98.676Z" transform="translate(-23.591 -20.493)" opacity="0.5" fill="url(#linear-gradient-36)" style="mix-blend-mode: screen;isolation: isolate"/>
      <path id="Path_8387" data-name="Path 8387" d="M117.712,121.745c-1.8,6.789,12.4,13.58,47.329,11.87,42.225-2.068,51.193-10.915,49.116-13.365-1.245-1.471-13.894,6.5-48.574-1.107C142.681,114.123,119.609,114.6,117.712,121.745Z" transform="translate(-13.202 38.023)" opacity="0.5" fill="url(#linear-gradient-36)" style="mix-blend-mode: screen;isolation: isolate"/>
      <path id="Path_8388" data-name="Path 8388" d="M183.162,100.567l-1.02-3.074C182.339,98.083,182.715,99.138,183.162,100.567Z" transform="translate(62.334 16.6)" opacity="0.3" fill="url(#linear-gradient-38)" style="mix-blend-mode: multiply;isolation: isolate"/>
      <path id="Path_8389" data-name="Path 8389" d="M227.9,248.714c-4.133,24.4-25.971,40.652-57.289,40.652-27.257,0-50.346-10.158-56.445-32.534-6.1-22.356-3.738-63.709,4.4-89.463a83.482,83.482,0,0,1,4.383-11.072l.017-.037s-16.489,54.677-3.309,89.5,74.6,34.092,95.386,10.946c19.781-22.018,10.64-73.742,9.711-78.7C230.385,201.4,231.582,226.928,227.9,248.714Z" transform="translate(-21.195 85.337)" opacity="0.3" fill="url(#linear-gradient-6)" style="mix-blend-mode: multiply;isolation: isolate"/>
      <path id="Path_8390" data-name="Path 8390" d="M113.111,220.455c4.663-32.74,30.926-54.933,60.1-52.18,31.445,2.968,48.348,32.985,47.9,58.741s-19.277,45.862-53.017,45.862S108.752,251.073,113.111,220.455Z" transform="translate(-18.973 99.12)" fill="url(#linear-gradient-4)"/>
      <path id="Path_8391" data-name="Path 8391" d="M113.247,221.7c4.663-32.74,30.926-54.933,60.1-52.18,31.445,2.968,48.346,32.985,47.895,58.741s-19.277,45.862-53.015,45.862S108.888,252.324,113.247,221.7Z" transform="translate(-18.814 100.581)" fill="url(#radial-gradient-2)"/>
      <path id="Path_8392" data-name="Path 8392" d="M199.011,158.13c-6.672,10.464-43.393,16.554-64.616,14.617-18.477-1.688-15.671-6.676-15.528-7.3a.057.057,0,0,0,.017-.037c9.943-14.971,24.5-24.753,40.958-24.753C176.976,140.656,190.087,147.7,199.011,158.13Z" transform="translate(-11.947 67.085)" opacity="0.5" fill="url(#linear-gradient-13)" style="mix-blend-mode: multiply;isolation: isolate"/>
      <path id="Path_8393" data-name="Path 8393" d="M150.37,157.091c-1.705.564-1.788,14.328,0,16.546s4.656,1.536,5.613-1.705S152.954,156.239,150.37,157.091Z" transform="translate(23.64 86.26)" fill="#fff"/>
      <path id="Path_8394" data-name="Path 8394" d="M151.819,166.4c-1.423.338-1.588,3.751-.931,4.947s3.133.937,3.534-.512S153.253,166.056,151.819,166.4Z" transform="translate(25.346 97.166)" fill="#fff"/>
      <path id="Path_8395" data-name="Path 8395" d="M121.5,211.474s7.537,13.124,35.6,13.233,39.481-16.6,39.481-16.6-12.948,8.44-31.466,3.372S128.282,203.557,121.5,211.474Z" transform="translate(-8.597 144.154)" opacity="0.72" fill="url(#linear-gradient-42)" style="mix-blend-mode: screen;isolation: isolate"/>
      <path id="Path_8396" data-name="Path 8396" d="M148.827,63.972c-3,.7,22.161,14.007,23.178,12.426S157.124,62.041,148.827,63.972Z" transform="translate(23.077 -22.84)" fill="#fff"/>
      <path id="Path_8397" data-name="Path 8397" d="M171.752,69.733c-2.508,1.354-2.309,4.059,2.883,3.38s8.017-4.743,7.451-5.535S174.566,68.214,171.752,69.733Z" transform="translate(48.353 -18.653)" fill="#fff"/>
      <path id="Path_8398" data-name="Path 8398" d="M250.121,144.533c-26.669,52.872-73.707,70.936-73.707,70.936-12.933-8.37-24.2-35.7-19.746-41.03l.017-.017a6.715,6.715,0,0,1,.8-.627s8.394,30.826,32.985,22.274c29.177-10.145,41.115-60.852,41.115-60.852V120.352l15.148,7.78C250.442,135.663,250.121,144.533,250.121,144.533Z" transform="translate(31.38 43.336)" opacity="0.3" fill="url(#linear-gradient-6)" style="mix-blend-mode: multiply;isolation: isolate"/>
      <path id="Path_8399" data-name="Path 8399" d="M190.09,153.555s-.226,16.719,9.262,19.431,21.349-15.016,25.756-22.362,11.069-40.444,4.745-48.353-18.527-5.873-26.661,5.2C203.193,107.468,190.542,139.323,190.09,153.555Z" transform="translate(71.63 16.603)" fill="url(#linear-gradient-44)"/>
      <path id="Path_8400" data-name="Path 8400" d="M190.326,148.6s11.009-8.368,13.5-21.247S219.642,97.5,219.642,97.5s-7.01-.647-16.726,9.972S190.326,148.6,190.326,148.6Z" transform="translate(71.907 16.599)" fill="url(#linear-gradient-4)"/>
      <path id="Path_8401" data-name="Path 8401" d="M197.515,103.107l8.412,3.174a54.962,54.962,0,0,0-5.244,12.267c-1.519,5.988-7.223,14.163-7.223,14.163Z" transform="translate(75.572 23.166)" opacity="0.5" fill="url(#linear-gradient-13)" style="mix-blend-mode: multiply;isolation: isolate"/>
      <path id="Path_8402" data-name="Path 8402" d="M192.114,142.82s-2.886-6.327-3.281-18.527,2.5-21.8,3.853-23.5,6.1-1.469,8.36,1.243,3.884,16.123,3.884,16.123S201.891,139.882,192.114,142.82Z" transform="translate(70.118 19.206)" fill="url(#linear-gradient-47)"/>
      <path id="Path_8403" data-name="Path 8403" d="M196.546,112.461s5.652,18.633,19.262,26.092l1.749-2.816s-13.855-7.305-20.484-25.513Z" transform="translate(79.182 31.49)" fill="url(#linear-gradient-4)"/>
      <path id="Path_8404" data-name="Path 8404" d="M192.4,104.424c-1.365-.161-.9,11.853.79,11.349S194.32,104.649,192.4,104.424Z" transform="translate(73.397 24.704)" fill="#fff"/>
      <path id="Path_8405" data-name="Path 8405" d="M95.888,127.027c-.308,1.664,35.766,2.066,36.615-4.311S98.259,114.15,95.888,127.027Z" transform="translate(-38.554 40.152)" fill="url(#linear-gradient-49)"/>
      <path id="Path_8406" data-name="Path 8406" d="M100.288,133.822a91.879,91.879,0,0,1,.263-23.055c1.731-13.215,5.281-21.751,7.394-20.553s1.788,14.14,3.035,26.893c.972,9.922,2.879,19.236,2.879,19.236S104.731,145.074,100.288,133.822Z" transform="translate(-34.084 7.956)" opacity="0.2" fill="url(#linear-gradient-50)" style="mix-blend-mode: screen;isolation: isolate"/>
      <path id="Path_8407" data-name="Path 8407" d="M118.187,198.63c5.543,8.846,28.355,4.135,54.059,6.643s30.091,10.87,35.513,9.175-3.144-40.39-41.549-43.015S116.807,196.43,118.187,198.63Z" transform="translate(-12.602 102.878)" opacity="0.72" fill="url(#linear-gradient-51)" style="mix-blend-mode: screen;isolation: isolate"/>
      <path id="Path_8408" data-name="Path 8408" d="M199.7,47.517s-.213,51.078,3.662,75.811l39.546,15.587-6.327-11.08,38.409-4.357s4.066-57.435,5.422-75.961C280.414,47.517,250.139,41.644,199.7,47.517Z" transform="translate(82.87 -44.907)" fill="url(#linear-gradient-52)"/>
      <g id="Group_2341" data-name="Group 2341" transform="translate(305.575 25.14)">
        <path id="Path_8409" data-name="Path 8409" d="M216.326,56.64q-.228,4.481-.386,8.885t-.226,8.841c.378.03.757.046,1.143.046H218q.723,0,1.482-.024c.506-.013,1.015-.037,1.527-.067q.046-1,.046-1.959V70.382q0-3.443-.067-6.86t-.228-6.882h5.569q-.407,5.454-.623,10.833t-.215,10.833q0,2.669.069,5.32t.18,5.342h-5.162q.114-2.695.2-5.366t.182-5.342c-.861-.048-1.718-.087-2.571-.126s-1.7-.056-2.547-.056h-.18v7.787q0,1.539.046,3.1h-5.185q.114-3.258.148-6.442t.035-6.4q0-9.731-.408-19.49Z" transform="translate(-210.303 -56.323)" fill="#fff"/>
        <path id="Path_8410" data-name="Path 8410" d="M228.3,88.9q-.908-.046-1.812-.067c-.6-.013-1.206-.024-1.812-.024q-1.494,0-2.988.059t-2.99.169l.046-4.867c.347.043.694.078,1.041.1s.694.048,1.041.078q.137-3.508.26-6.984t.126-6.96q0-2.333-.069-4.608t-.135-4.584c-.393,0-.792.009-1.2.024s-.822.037-1.245.067l.046-4.732q1.741.114,3.487.169c1.161.039,2.332.059,3.508.059h1.267c.423,0,.855-.015,1.291-.046l-.135,4.5c-.347,0-.692-.009-1.031-.022s-.683-.024-1.031-.024q-.319,4.075-.453,8.093t-.135,8.095q0,3.554.135,7.086c.484,0,.978-.007,1.484-.024s1.013-.037,1.527-.067Z" transform="translate(-200.637 -56.397)" fill="#fff"/>
        <path id="Path_8411" data-name="Path 8411" d="M229.267,87.418a2.458,2.458,0,0,1-.217,1.02,2.8,2.8,0,0,1-.564.827,2.6,2.6,0,0,1-.837.553,2.631,2.631,0,0,1-1.031.2,2.474,2.474,0,0,1-1.009-.2,2.766,2.766,0,0,1-.824-.553,2.523,2.523,0,0,1-.569-.827,2.592,2.592,0,0,1-.2-1.02,2.492,2.492,0,0,1,.2-1.007,2.749,2.749,0,0,1,1.393-1.393,2.511,2.511,0,0,1,1.009-.2,2.671,2.671,0,0,1,1.031.2,2.529,2.529,0,0,1,.837.566,2.985,2.985,0,0,1,.564.827A2.363,2.363,0,0,1,229.267,87.418Zm.406-30.924q-.635,6.268-1,12.655t-.43,12.564l-3.011.089q-.159-6.222-.419-12.632t-.6-12.632Z" transform="translate(-194.266 -56.494)" fill="#fff"/>
      </g>
      <path id="Path_8412" data-name="Path 8412" d="M193.029,75.918s-4.782-5.923-11.3-4.348-6.947,22.1-3.05,22.61,5.55-11.354,8.535-13.217,8.208-1.139,8.208-1.139Z" transform="translate(55.377 -14.033)" opacity="0.72" fill="url(#linear-gradient-51)" style="mix-blend-mode: screen;isolation: isolate"/>
      <path id="Path_8413" data-name="Path 8413" d="M91.16,85.363s2.515-2.851,8.162-1.927,8.9,12.514,11.794,11.352.77-19.943-6.867-25.465C104.249,69.323,94.4,77.728,91.16,85.363Z" transform="translate(-44.082 -16.349)" opacity="0.72" fill="url(#linear-gradient-54)" style="mix-blend-mode: screen;isolation: isolate"/>
      <path id="Path_8414" data-name="Path 8414" d="M97.768,89.319S77.79,111.762,79.007,113.363,98.965,91.638,97.768,89.319Z" transform="translate(-58.359 7.039)" fill="url(#linear-gradient-55)"/>
    </g>
  </g>
</svg>
