<svg xmlns="http://www.w3.org/2000/svg" width="21.645" height="26.439" viewBox="0 0 21.645 26.439">
  <g id="Group_2666" data-name="Group 2666" transform="translate(-8240 -10565.203)">
    <g id="Group_2667" data-name="Group 2667" transform="translate(8240 10565.203)">
      <path id="Path_13871" data-name="Path 13871" d="M-1024.174,649.812c0,2.269-.013,4.539.01,6.808,0,.471-.146.595-.6.6a1.915,1.915,0,0,1-1.481-.61q-3.235-3.284-6.514-6.524a2.928,2.928,0,0,1-.921-2.211c.015-1.631.017-3.26,0-4.889-.006-.433.13-.558.562-.555q4.21.027,8.42,0c.465,0,.54.177.538.58C-1024.181,645.273-1024.173,647.542-1024.174,649.812Z" transform="translate(1033.709 -630.783)" fill="#579bfe"/>
      <path id="Path_13872" data-name="Path 13872" d="M-961.1,649.678c0-2.249.014-4.5-.012-6.746-.006-.5.149-.619.629-.615q4.148.033,8.3,0c.477,0,.645.11.634.615-.033,1.567-.022,3.136-.009,4.7a3.224,3.224,0,0,1-1,2.436c-2.184,2.161-4.361,4.328-6.508,6.526a2.019,2.019,0,0,1-1.757.521c-.405-.027-.263-.361-.263-.574C-961.1,654.258-961.1,651.968-961.1,649.678Z" transform="translate(973.128 -630.695)" fill="#2f83ff"/>
      <path id="Path_13873" data-name="Path 13873" d="M-960.79,576.816c0-1.4.01-2.8-.007-4.205,0-.4.071-.594.535-.59,2.351.021,4.7-.007,7.052.017a1.779,1.779,0,0,1,1.961,1.909c.046,2.411.017,4.823.03,7.235,0,.329-.134.426-.443.425q-4.331-.011-8.66,0c-.4,0-.477-.173-.474-.523C-960.782,579.662-960.79,578.239-960.79,576.816Z" transform="translate(972.864 -572.012)" fill="#445bdb"/>
      <path id="Path_13874" data-name="Path 13874" d="M-1024.274,576.835c0,1.4-.014,2.807.009,4.209.007.413-.13.531-.529.529q-4.241-.019-8.483,0c-.439,0-.559-.141-.556-.566.017-2.332,0-4.664.01-7a1.832,1.832,0,0,1,1.975-2.032c.783-.027,1.569-.006,2.353-.006,1.569,0,3.137.01,4.706-.008.4,0,.533.122.526.532-.023,1.444-.009,2.887-.009,4.333Z" transform="translate(1033.833 -571.969)" fill="#1c76ce"/>
    </g>
  </g>
</svg>
