<svg xmlns="http://www.w3.org/2000/svg" width="145.886" height="178.303" viewBox="0 0 145.886 178.303">
  <g id="Group_2476" data-name="Group 2476" transform="translate(754.2 -148.75)" opacity="0.15">
    <path id="Path_13061" data-name="Path 13061" d="M-313.252,722.852l12.134-12.135-12.134,12.134Z" transform="translate(-327.594 -417.503)" fill="none"/>
    <path id="Path_13062" data-name="Path 13062" d="M-280.718,227.3v37.64a19.016,19.016,0,0,1-5.571,13.45l-26.961,26.961V148.75h19.961a12.435,12.435,0,0,1,8.815,3.65,12.435,12.435,0,0,1,3.65,8.815v45.167h.005V227.3Z" transform="translate(-327.596)" fill="#589bff"/>
    <path id="Path_13063" data-name="Path 13063" d="M-721.961,148.75V305.055l-26.668-26.668a19.016,19.016,0,0,1-5.548-12.5c-.015-.314-.023-.63-.023-.946V161.215a12.467,12.467,0,0,1,11.825-12.45h.033c.2-.01.4-.015.6-.015h19.776Z" transform="translate(0)" fill="#589bff"/>
    <path id="Path_13064" data-name="Path 13064" d="M-547.675,148.75v156.6l-19.537,19.537c-.064.064-.131.128-.2.19s-.136.123-.206.183-.139.118-.208.175-.144.113-.216.167q-.293.216-.6.4c-.1.057-.19.111-.288.162a.5.5,0,0,1-.064.033c-.092.051-.187.1-.285.144-.08.039-.162.075-.244.11l-.038.015c-.054.023-.105.044-.159.064-.075.031-.152.059-.226.085-.09.033-.182.064-.275.093-.005,0-.013,0-.018.005-.074.023-.146.044-.221.064-.159.044-.322.082-.483.118l-.162.031-.134.023c-.064.01-.128.021-.2.028q-.162.023-.324.039c-.092.008-.185.016-.278.018a.247.247,0,0,1-.062,0c-.111.008-.224.01-.337.01h-6.735V240H-597.3v87.043h-6.434a7.412,7.412,0,0,1-3.139-.7c-.149-.072-.3-.146-.44-.226-.072-.039-.144-.082-.216-.123a7.438,7.438,0,0,1-1.429-1.116l-19.83-19.83V148.75H-597.3v63.935h17.751v.373h.1v-.373h.282V148.75Z" transform="translate(-93.171)" fill="#3083ff" opacity="0.05"/>
    <path id="Path_13065" data-name="Path 13065" d="M-435.755,842.35" transform="translate(-236.583 -515.297)" fill="#3083ff"/>
    <g id="Group_2470" data-name="Group 2470" transform="translate(-690.469 148.75)">
      <g id="Group_2469" data-name="Group 2469" transform="translate(0 0)">
        <path id="Path_13066" data-name="Path 13066" d="M-488.534,212.685v.373h.1v-.373h.283V148.75h-18.131v63.935h17.75Z" transform="translate(506.285 -148.75)" fill="#589bff"/>
        <path id="Path_13067" data-name="Path 13067" d="M-488.154,590.774V503.73h-18.131v87.043" transform="translate(506.285 -412.476)" fill="#589bff"/>
      </g>
    </g>
  </g>
</svg>
