<svg xmlns="http://www.w3.org/2000/svg" width="128.042" height="26.439" viewBox="0 0 128.042 26.439">
  <g id="Group_2666" data-name="Group 2666" transform="translate(-8240 -10565.203)">
    <g id="Group_60" data-name="Group 60" transform="translate(8273.929 10572.203)">
      <g id="Group_59" data-name="Group 59" transform="translate(0 0)">
        <path id="Path_2" data-name="Path 2" d="M581.085,1922.017a.8.8,0,0,1,.244.6v10.508a.89.89,0,0,1-.261.609.848.848,0,0,1-.626.244.834.834,0,0,1-.6-.244.812.812,0,0,1-.253-.609v-4.513H573.4v4.513a.8.8,0,0,1-.261.609.863.863,0,0,1-.61.244.818.818,0,0,1-.618-.244.843.843,0,0,1-.235-.609v-10.508a.807.807,0,0,1,.244-.592.85.85,0,0,1,.626-.244.836.836,0,0,1,.6.244.793.793,0,0,1,.252.592v4.392h6.184v-4.392a.779.779,0,0,1,.261-.592.92.92,0,0,1,1.237-.009Z" transform="translate(-571.678 -1921.606)" fill="#fff"/>
        <path id="Path_3" data-name="Path 3" d="M750.829,1932.623a.8.8,0,0,1,.235.575.737.737,0,0,1-.235.566.849.849,0,0,1-.6.218h-6.063a.834.834,0,0,1-.836-.836V1922.62a.833.833,0,0,1,.836-.836h6.064a.831.831,0,0,1,.6.226.786.786,0,0,1,.235.592.736.736,0,0,1-.235.567.848.848,0,0,1-.6.218h-5.176v3.555h4.391a.832.832,0,0,1,.6.227.765.765,0,0,1,.235.575.729.729,0,0,1-.235.575.87.87,0,0,1-.6.209h-4.391v3.851h5.175A.8.8,0,0,1,750.829,1932.623Z" transform="translate(-725.573 -1921.608)" fill="#fff"/>
        <path id="Path_4" data-name="Path 4" d="M884.531,1932.284a5.731,5.731,0,0,1-1.865-1.159.925.925,0,0,1-.366-.715.8.8,0,0,1,.244-.566.774.774,0,0,1,.575-.252.722.722,0,0,1,.505.191,4.847,4.847,0,0,0,1.436.951,4.382,4.382,0,0,0,1.682.3,3.269,3.269,0,0,0,1.856-.505,1.49,1.49,0,0,0,.758-1.271,1.635,1.635,0,0,0-.758-1.4,6.762,6.762,0,0,0-2.257-.828,6,6,0,0,1-2.761-1.2,2.9,2.9,0,0,1-.967-2.319,3.075,3.075,0,0,1,.54-1.8,3.463,3.463,0,0,1,1.5-1.194,5.349,5.349,0,0,1,2.161-.418,5.922,5.922,0,0,1,2.039.349,4.3,4.3,0,0,1,1.551.924,1,1,0,0,1,.4.75.781.781,0,0,1-.235.558.758.758,0,0,1-.567.244.579.579,0,0,1-.4-.139,3.617,3.617,0,0,0-1.255-.767,4.2,4.2,0,0,0-1.534-.314,3.194,3.194,0,0,0-1.856.479,1.544,1.544,0,0,0,0,2.571,6.453,6.453,0,0,0,2.047.767,10.844,10.844,0,0,1,2.222.7,3.129,3.129,0,0,1,1.333,1.115,3.337,3.337,0,0,1,.47,1.865,2.99,2.99,0,0,1-.567,1.795,3.728,3.728,0,0,1-1.54,1.221,5.2,5.2,0,0,1-2.143.436A6.527,6.527,0,0,1,884.531,1932.284Z" transform="translate(-850.172 -1920.094)" fill="#fff"/>
        <path id="Path_5" data-name="Path 5" d="M1049.649,1921.867a.779.779,0,0,1,.244.584v10.542a.82.82,0,0,1-.854.836.865.865,0,0,1-.626-.235.8.8,0,0,1-.244-.6v-8.068l-3.38,5.123a1.02,1.02,0,0,1-.3.261.624.624,0,0,1-.375.087.589.589,0,0,1-.357-.087,1.016,1.016,0,0,1-.3-.261l-3.4-5.28v8.225a.851.851,0,0,1-.218.6.758.758,0,0,1-.584.235.736.736,0,0,1-.566-.235.849.849,0,0,1-.218-.6V1922.45a.847.847,0,0,1,.854-.836.876.876,0,0,1,.41.1.89.89,0,0,1,.322.278l4.13,6.256,4.182-6.256a.834.834,0,0,1,.7-.383.892.892,0,0,1,.589.252Z" transform="translate(-990.179 -1921.456)" fill="#fff"/>
        <path id="Path_6" data-name="Path 6" d="M1227.072,1932.716a.788.788,0,0,1-.785.8.73.73,0,0,1-.444-.147,1.039,1.039,0,0,1-.322-.409l-1.081-2.562h-5.384l-1.063,2.579a.81.81,0,0,1-1.288.349.7.7,0,0,1-.192-.523,2.082,2.082,0,0,1,.035-.279l4.444-10.769a.972.972,0,0,1,.34-.427.7.7,0,0,1,.5-.114.835.835,0,0,1,.47.139.754.754,0,0,1,.295.4l4.426,10.63a1.034,1.034,0,0,1,.054.331Zm-7.354-3.9h4.06l-2.039-4.879Z" transform="translate(-1149.812 -1921.093)" fill="#fff"/>
        <path id="Path_7" data-name="Path 7" d="M1395.81,1922a.761.761,0,0,1,.209.549v10.579a.844.844,0,0,1-.235.61.8.8,0,0,1-.6.244,1.17,1.17,0,0,1-.375-.061.628.628,0,0,1-.287-.184l-6.847-8.922v8.4a.744.744,0,0,1-.767.767.713.713,0,0,1-.54-.218.762.762,0,0,1-.209-.549v-10.594a.815.815,0,0,1,.235-.6.792.792,0,0,1,.584-.235,1.044,1.044,0,0,1,.4.078.684.684,0,0,1,.294.218l6.831,8.939v-8.469a.745.745,0,0,1,.767-.766A.715.715,0,0,1,1395.81,1922Z" transform="translate(-1301.906 -1921.603)" fill="#fff"/>
      </g>
    </g>
    <g id="Group_2667" data-name="Group 2667" transform="translate(8240 10565.203)">
      <path id="Path_13871" data-name="Path 13871" d="M-1024.174,649.812c0,2.269-.013,4.539.01,6.808,0,.471-.146.595-.6.6a1.915,1.915,0,0,1-1.481-.61q-3.235-3.284-6.514-6.524a2.928,2.928,0,0,1-.921-2.211c.015-1.631.017-3.26,0-4.889-.006-.433.13-.558.562-.555q4.21.027,8.42,0c.465,0,.54.177.538.58C-1024.181,645.273-1024.173,647.542-1024.174,649.812Z" transform="translate(1033.709 -630.783)" fill="#579bfe"/>
      <path id="Path_13872" data-name="Path 13872" d="M-961.1,649.678c0-2.249.014-4.5-.012-6.746-.006-.5.149-.619.629-.615q4.148.033,8.3,0c.477,0,.645.11.634.615-.033,1.567-.022,3.136-.009,4.7a3.224,3.224,0,0,1-1,2.436c-2.184,2.161-4.361,4.328-6.508,6.526a2.019,2.019,0,0,1-1.757.521c-.405-.027-.263-.361-.263-.574C-961.1,654.258-961.1,651.968-961.1,649.678Z" transform="translate(973.128 -630.695)" fill="#2f83ff"/>
      <path id="Path_13873" data-name="Path 13873" d="M-960.79,576.816c0-1.4.01-2.8-.007-4.205,0-.4.071-.594.535-.59,2.351.021,4.7-.007,7.052.017a1.779,1.779,0,0,1,1.961,1.909c.046,2.411.017,4.823.03,7.235,0,.329-.134.426-.443.425q-4.331-.011-8.66,0c-.4,0-.477-.173-.474-.523C-960.782,579.662-960.79,578.239-960.79,576.816Z" transform="translate(972.864 -572.012)" fill="#445bdb"/>
      <path id="Path_13874" data-name="Path 13874" d="M-1024.274,576.835c0,1.4-.014,2.807.009,4.209.007.413-.13.531-.529.529q-4.241-.019-8.483,0c-.439,0-.559-.141-.556-.566.017-2.332,0-4.664.01-7a1.832,1.832,0,0,1,1.975-2.032c.783-.027,1.569-.006,2.353-.006,1.569,0,3.137.01,4.706-.008.4,0,.533.122.526.532-.023,1.444-.009,2.887-.009,4.333Z" transform="translate(1033.833 -571.969)" fill="#1c76ce"/>
    </g>
  </g>
</svg>
