<svg xmlns="http://www.w3.org/2000/svg" width="376" height="98.893" viewBox="0 0 376 98.893">
  <g id="Group_2668" data-name="Group 2668" transform="translate(6360 -199)">
    <g id="Group_2666" data-name="Group 2666" transform="translate(-6635 -165.166)">
      <g id="Group_60" data-name="Group 60" transform="translate(169 290.991)">
        <g id="Group_59" data-name="Group 59" transform="translate(225.328 82.175)">
          <path id="Path_2" data-name="Path 2" d="M597.232,1922.42a2.171,2.171,0,0,1,.663,1.633V1952.6a2.422,2.422,0,0,1-.71,1.656,2.306,2.306,0,0,1-1.7.663,2.267,2.267,0,0,1-1.633-.663,2.208,2.208,0,0,1-.687-1.656v-12.261h-16.8V1952.6a2.172,2.172,0,0,1-.71,1.656,2.349,2.349,0,0,1-1.657.663,2.226,2.226,0,0,1-1.68-.663,2.293,2.293,0,0,1-.639-1.656v-28.545a2.19,2.19,0,0,1,.663-1.609,2.308,2.308,0,0,1,1.7-.663,2.272,2.272,0,0,1,1.633.663,2.156,2.156,0,0,1,.686,1.609v11.93h16.8v-11.93a2.12,2.12,0,0,1,.71-1.609,2.495,2.495,0,0,1,3.361-.024Z" transform="translate(-571.67 -1921.308)" fill="#122641"/>
          <path id="Path_3" data-name="Path 3" d="M763.705,1951.226a2.177,2.177,0,0,1,.639,1.562,2,2,0,0,1-.639,1.538,2.306,2.306,0,0,1-1.633.592H745.6a2.264,2.264,0,0,1-2.272-2.272v-28.593a2.263,2.263,0,0,1,2.272-2.272h16.474a2.26,2.26,0,0,1,1.633.615,2.134,2.134,0,0,1,.639,1.609,2,2,0,0,1-.639,1.539,2.306,2.306,0,0,1-1.633.591H748.013v9.657h11.929a2.259,2.259,0,0,1,1.633.615,2.076,2.076,0,0,1,.639,1.562,1.982,1.982,0,0,1-.639,1.562,2.366,2.366,0,0,1-1.633.568H748.013v10.461h14.059A2.172,2.172,0,0,1,763.705,1951.226Z" transform="translate(-695.088 -1921.308)" fill="#122641"/>
          <path id="Path_4" data-name="Path 4" d="M888.36,1953.21a15.564,15.564,0,0,1-5.065-3.148,2.513,2.513,0,0,1-.994-1.941,2.161,2.161,0,0,1,.663-1.538,2.1,2.1,0,0,1,1.562-.686,1.961,1.961,0,0,1,1.372.52A13.162,13.162,0,0,0,889.8,1949a11.9,11.9,0,0,0,4.568.828,8.881,8.881,0,0,0,5.041-1.372,4.049,4.049,0,0,0,2.059-3.455,4.441,4.441,0,0,0-2.059-3.811,18.378,18.378,0,0,0-6.13-2.249,16.3,16.3,0,0,1-7.5-3.266,7.882,7.882,0,0,1-2.627-6.3,8.356,8.356,0,0,1,1.467-4.9,9.411,9.411,0,0,1,4.071-3.243,14.534,14.534,0,0,1,5.87-1.136,16.084,16.084,0,0,1,5.539.947,11.7,11.7,0,0,1,4.213,2.509,2.708,2.708,0,0,1,1.089,2.036,2.121,2.121,0,0,1-.639,1.515,2.06,2.06,0,0,1-1.539.662,1.572,1.572,0,0,1-1.089-.378,9.826,9.826,0,0,0-3.409-2.083,11.417,11.417,0,0,0-4.166-.852,8.682,8.682,0,0,0-5.041,1.3,4.194,4.194,0,0,0,0,6.983,17.538,17.538,0,0,0,5.562,2.083,29.469,29.469,0,0,1,6.035,1.894,8.5,8.5,0,0,1,3.621,3.03,9.061,9.061,0,0,1,1.278,5.065,8.121,8.121,0,0,1-1.539,4.876A10.13,10.13,0,0,1,900.29,1953a14.14,14.14,0,0,1-5.822,1.183A17.731,17.731,0,0,1,888.36,1953.21Z" transform="translate(-795.01 -1920.097)" fill="#122641"/>
          <path id="Path_5" data-name="Path 5" d="M1068.849,1922.3a2.115,2.115,0,0,1,.663,1.586v28.639a2.227,2.227,0,0,1-2.319,2.272,2.353,2.353,0,0,1-1.7-.639,2.169,2.169,0,0,1-.663-1.633v-21.917l-9.183,13.917a2.785,2.785,0,0,1-.828.71,1.7,1.7,0,0,1-1.018.237,1.607,1.607,0,0,1-.97-.237,2.769,2.769,0,0,1-.828-.71l-9.231-14.344v22.344a2.311,2.311,0,0,1-.592,1.633,2.058,2.058,0,0,1-1.586.639,2,2,0,0,1-1.538-.639,2.307,2.307,0,0,1-.592-1.633v-28.639a2.3,2.3,0,0,1,2.32-2.272,2.376,2.376,0,0,1,1.112.284,2.416,2.416,0,0,1,.876.757l11.219,16.994,11.361-16.994a2.266,2.266,0,0,1,1.894-1.041A2.42,2.42,0,0,1,1068.849,1922.3Z" transform="translate(-907.285 -1921.188)" fill="#122641"/>
          <path id="Path_6" data-name="Path 6" d="M1245.2,1952.474a2.141,2.141,0,0,1-2.131,2.177,1.984,1.984,0,0,1-1.207-.4,2.825,2.825,0,0,1-.876-1.112l-2.935-6.959h-14.627l-2.888,7.006a2.055,2.055,0,0,1-1.988,1.467,2.048,2.048,0,0,1-1.515-.52,1.916,1.916,0,0,1-.521-1.42,5.787,5.787,0,0,1,.095-.758l12.072-29.254a2.63,2.63,0,0,1,.923-1.16,1.905,1.905,0,0,1,1.35-.308,2.255,2.255,0,0,1,1.278.379,2.042,2.042,0,0,1,.8,1.089l12.023,28.876A2.816,2.816,0,0,1,1245.2,1952.474Zm-19.977-10.6h11.03l-5.539-13.255Z" transform="translate(-1035.306 -1920.899)" fill="#122641"/>
          <path id="Path_7" data-name="Path 7" d="M1412.376,1922.373a2.068,2.068,0,0,1,.568,1.491V1952.6a2.293,2.293,0,0,1-.639,1.656,2.168,2.168,0,0,1-1.633.663,3.157,3.157,0,0,1-1.018-.167,1.711,1.711,0,0,1-.781-.5l-18.6-24.237v22.816a2.023,2.023,0,0,1-2.083,2.084,1.941,1.941,0,0,1-1.468-.592,2.069,2.069,0,0,1-.568-1.492v-28.781a2.212,2.212,0,0,1,.639-1.633,2.154,2.154,0,0,1,1.586-.639,2.845,2.845,0,0,1,1.089.213,1.857,1.857,0,0,1,.8.592l18.556,24.285v-23.007a2.023,2.023,0,0,1,2.083-2.082A1.943,1.943,0,0,1,1412.376,1922.373Z" transform="translate(-1157.272 -1921.308)" fill="#122641"/>
        </g>
      </g>
      <text id="_fast_reliable" data-name="
fast &amp; reliable" transform="translate(393 429)" fill="#1c76ce" font-size="16" font-family="Quicksand-Medium, Quicksand" font-weight="500" letter-spacing="0.572em"><tspan x="0" y="0"></tspan><tspan x="0" y="20">FAST &amp; RELIABLE</tspan></text>
    </g>
    <g id="Group_2667" data-name="Group 2667" transform="translate(7 4.317)">
      <path id="Path_13871" data-name="Path 13871" d="M-998.111,670.057c0,8.488-.047,16.976.038,25.464.018,1.76-.547,2.225-2.246,2.231a7.164,7.164,0,0,1-5.539-2.283q-12.1-12.283-24.362-24.4a10.95,10.95,0,0,1-3.446-8.268c.055-6.1.064-12.192-.018-18.288-.022-1.621.484-2.087,2.1-2.077q15.746.1,31.492-.012c1.738-.014,2.02.663,2.011,2.169C-998.138,653.08-998.11,661.568-998.111,670.057Z" transform="translate(-5333.223 -404.202)" fill="#579bfe"/>
      <path id="Path_13872" data-name="Path 13872" d="M-961.049,669.849c0-8.411.054-16.822-.044-25.231-.022-1.864.556-2.315,2.354-2.3q15.513.124,31.027.007c1.782-.013,2.412.411,2.372,2.3-.124,5.862-.082,11.728-.034,17.592a12.06,12.06,0,0,1-3.752,9.112c-8.168,8.083-16.313,16.189-24.341,24.41-1.953,2-4.162,2.1-6.573,1.948-1.516-.1-.982-1.349-.985-2.146C-961.061,686.979-961.048,678.414-961.049,669.849Z" transform="translate(-5360.949 -404.162)" fill="#2f83ff"/>
      <path id="Path_13873" data-name="Path 13873" d="M-960.771,589.957c0-5.243.038-10.486-.025-15.728-.018-1.488.265-2.223,2-2.208,8.792.077,17.584-.025,26.375.063,4.587.046,7.249,2.536,7.336,7.141.172,9.018.063,18.04.111,27.06.006,1.229-.5,1.594-1.655,1.591q-16.2-.043-32.391,0c-1.5.005-1.786-.648-1.774-1.957C-960.742,600.6-960.77,595.277-960.771,589.957Z" transform="translate(-5361.07 -377.306)" fill="#445bdb"/>
      <path id="Path_13874" data-name="Path 13874" d="M-998.08,590.17c0,5.248-.054,10.5.034,15.744.026,1.544-.485,1.987-1.979,1.98q-15.865-.072-31.73.006c-1.64.01-2.09-.526-2.078-2.116.064-8.721,0-17.443.038-26.164.02-4.816,2.55-7.423,7.386-7.6,2.93-.105,5.867-.021,8.8-.022,5.868,0,11.735.036,17.6-.029,1.5-.016,1.993.456,1.969,1.99-.087,5.4-.034,10.8-.034,16.208Z" transform="translate(-5333.167 -377.286)" fill="#1c76ce"/>
    </g>
  </g>
</svg>
