<svg xmlns="http://www.w3.org/2000/svg" width="71.57" height="81.036" viewBox="0 0 71.57 81.036">
  <g id="box" transform="translate(-29.904)" opacity="0.3">
    <path id="Path_7133" data-name="Path 7133" d="M101.465,104.059a2.235,2.235,0,0,0-1.53-1.952L92.91,99.728l6.84-7.847a2.263,2.263,0,0,0-.628-3.478L90.3,83.622a1.187,1.187,0,1,0-1.131,2.087l8.7,4.715L90.58,98.787,67.558,86.313l4.272-4.9a4.585,4.585,0,0,0,5.579-2.073l6.6,3.574a1.187,1.187,0,1,0,1.131-2.088l-7.148-3.873a4.586,4.586,0,1,0-8.107,3.082l-4.192,4.809-7.426-8.52a2.251,2.251,0,0,0-2.785-.5l-2.9,1.573a5.466,5.466,0,1,0-8.958,4.853L32.256,88.4a2.263,2.263,0,0,0-.628,3.477l6.84,7.847-7.026,2.379a2.264,2.264,0,0,0-.352,4.134l8.25,4.47v4.481a1.187,1.187,0,0,0,2.374,0V112l11.543,6.254a3.35,3.35,0,0,0,2.662.227l8.583-2.906V139.19L42.22,127.117a.965.965,0,0,1-.506-.849v-5.216a1.187,1.187,0,0,0-2.374,0v5.216a3.337,3.337,0,0,0,1.749,2.937L64.1,141.671a3.33,3.33,0,0,0,3.183,0L90.289,129.2a3.337,3.337,0,0,0,1.749-2.937V110.711l8.25-4.47a2.234,2.234,0,0,0,1.177-2.182ZM68.313,94.875a9.712,9.712,0,0,1,7.057,9.318,9.6,9.6,0,0,1-.643,3.476l-9.039,4.9-9.039-4.9a9.6,9.6,0,0,1-.643-3.476,9.707,9.707,0,0,1,7.085-9.326,1.187,1.187,0,0,0-.636-2.287,12.06,12.06,0,0,0-8.669,13.538l-10.768-5.834L65.689,88l22.67,12.283-10.768,5.834A12.059,12.059,0,0,0,68.956,92.59a1.187,1.187,0,0,0-.643,2.285Zm5.092-19.983A2.212,2.212,0,1,1,71.193,77.1,2.215,2.215,0,0,1,73.405,74.892Zm-26.252.1a3.093,3.093,0,1,1-3.092,3.093A3.1,3.1,0,0,1,47.153,74.991Zm-.838,8.495a5.466,5.466,0,0,0,5.818-3.152l4.4-2.383,7.289,8.362L40.8,98.787l-7.289-8.362Zm8.842,32.744a.968.968,0,0,1-.77-.066l-13.29-7.2-.011-.006-8.644-4.683,7.974-2.7,22.315,12.091Zm34.506,10.039a.965.965,0,0,1-.506.849L66.876,139.19V115.572l8.583,2.906a3.35,3.35,0,0,0,2.662-.227L89.664,112v14.271Zm-12.674-10.1a.968.968,0,0,1-.77.066l-7.574-2.565,22.315-12.091,7.974,2.7Zm22.184-11.808h0Z" transform="translate(0 -61.04)" fill="#081d34"/>
    <path id="Path_7134" data-name="Path 7134" d="M294.3,423.92l-2.723,1.475a1.187,1.187,0,1,0,1.131,2.087l2.723-1.475a1.187,1.187,0,0,0-1.131-2.088Z" transform="translate(-219.733 -356.703)" fill="#081d34"/>
    <path id="Path_7135" data-name="Path 7135" d="M165.845,33.039a1.187,1.187,0,0,0,1.679,0l.979-.979.979.979a1.187,1.187,0,0,0,1.679-1.679l-.979-.979.979-.979a1.187,1.187,0,1,0-1.679-1.679l-.979.979-.979-.979a1.187,1.187,0,1,0-1.679,1.679l.979.979-.979.979A1.187,1.187,0,0,0,165.845,33.039Z" transform="translate(-114.133 -23.042)" fill="#081d34"/>
    <path id="Path_7136" data-name="Path 7136" d="M387.885,82.169a1.187,1.187,0,0,0,1.679,0l.979-.979.979.979A1.187,1.187,0,0,0,393.2,80.49l-.979-.979.979-.979a1.187,1.187,0,0,0-1.679-1.679l-.979.979-.979-.979a1.187,1.187,0,0,0-1.679,1.679l.979.979-.979.979A1.187,1.187,0,0,0,387.885,82.169Z" transform="translate(-301.029 -64.396)" fill="#081d34"/>
    <path id="Path_7137" data-name="Path 7137" d="M320.824,10.343a5.172,5.172,0,1,0-5.172-5.172A5.178,5.178,0,0,0,320.824,10.343Zm0-7.969a2.8,2.8,0,1,1-2.8,2.8,2.8,2.8,0,0,1,2.8-2.8Z" transform="translate(-240.522 0)" fill="#081d34"/>
    <path id="Path_7138" data-name="Path 7138" d="M236.736,280.513a4.706,4.706,0,0,0-3.041,1.069,1.187,1.187,0,0,0,1.531,1.815,2.366,2.366,0,0,1,1.511-.51h.008a2.368,2.368,0,0,1,1.515.519A1.187,1.187,0,0,0,239.8,281.6a4.708,4.708,0,0,0-3.05-1.087Z" transform="translate(-171.181 -236.115)" fill="#081d34"/>
    <path id="Path_7139" data-name="Path 7139" d="M217.035,258.3h-.011a1.179,1.179,0,0,0-1.19,1.179,1.192,1.192,0,0,0,1.184,1.2h.008a1.187,1.187,0,0,0,.008-2.374Z" transform="translate(-156.502 -217.42)" fill="#081d34"/>
    <path id="Path_7140" data-name="Path 7140" d="M282.107,260.654l.013,0c.034.007.069.012.1.016l.034,0c.026,0,.053,0,.08,0h.008a1.187,1.187,0,0,0,.144-2.365l-.016,0c-.027,0-.055,0-.082,0l-.038,0h-.019a1.186,1.186,0,0,0-.228,2.35Z" transform="translate(-211.484 -217.421)" fill="#081d34"/>
  </g>
</svg>
