<svg xmlns="http://www.w3.org/2000/svg" width="24.175" height="24.175" viewBox="0 0 24.175 24.175">
  <path id="Union_1" data-name="Union 1" d="M3.024,24.175A3.028,3.028,0,0,1,0,21.151V19.44a5.786,5.786,0,0,1,1.963-4.349,12.828,12.828,0,0,1,5.41-2.7,7.09,7.09,0,1,1,4.715,1.8c-5,0-7.661,1.867-8.574,2.669A3.437,3.437,0,0,0,2.35,19.44v1.711a.675.675,0,0,0,.674.674H21.151a.676.676,0,0,0,.675-.674V19.44a3.438,3.438,0,0,0-1.165-2.584,9.011,9.011,0,0,0-2.3-1.429,1.175,1.175,0,1,1,.954-2.147,11.342,11.342,0,0,1,2.892,1.812,5.786,5.786,0,0,1,1.963,4.349v1.711a3.027,3.027,0,0,1-3.024,3.024ZM7.344,7.094A4.744,4.744,0,1,0,12.088,2.35,4.749,4.749,0,0,0,7.344,7.094Z" fill="#081d34"/>
</svg>
