<svg xmlns="http://www.w3.org/2000/svg" xmlns:xlink="http://www.w3.org/1999/xlink" width="106.167" height="107.192" viewBox="0 0 106.167 107.192">
  <defs>
    <linearGradient id="linear-gradient" x1="0.5" y1="1" x2="0.5" gradientUnits="objectBoundingBox">
      <stop offset="0" stop-color="#ff4d4d" stop-opacity="0.4"/>
      <stop offset="0.146" stop-color="#ff4d4d" stop-opacity="0.341"/>
      <stop offset="1" stop-color="#ff4d4d" stop-opacity="0"/>
    </linearGradient>
  </defs>
  <g id="research" transform="translate(-29.001 -10.49)">
    <g id="Group_2624" data-name="Group 2624" transform="translate(29.002 10.49)">
      <g id="Group_2617" data-name="Group 2617">
        <g id="Group_2609" data-name="Group 2609">
          <g id="Group_2603" data-name="Group 2603">
            <g id="Group_2602" data-name="Group 2602">
              <g id="Group_2591" data-name="Group 2591">
                <path id="Path_13610" data-name="Path 13610" d="M135.721,35.54v83.276a2.385,2.385,0,0,1-2.386,2.386H48.079a2.383,2.383,0,0,1-2.386-2.386V35.54a2.385,2.385,0,0,1,2.386-2.386h85.256a2.386,2.386,0,0,1,2.386,2.386Z" transform="translate(-45.692 -33.154)" fill="#fff"/>
                <path id="Path_13611" data-name="Path 13611" d="M253.3,169.276l4.824,8.354a2.542,2.542,0,0,1,3.039,1.131l.57.988v6.508a2.385,2.385,0,0,1-2.386,2.386h-4.275l-2.755-4.774a2.546,2.546,0,0,1,.542-3.2l-4.824-8.352a26.378,26.378,0,1,1,12.374-37.4,25.919,25.919,0,0,1,1.324,2.619v21.139a26.233,26.233,0,0,1-8.433,10.6Z" transform="translate(-171.706 -100.595)" fill="#d9d9ff"/>
                <path id="Path_13612" data-name="Path 13612" d="M135.721,35.54v83.276a2.385,2.385,0,0,1-2.386,2.386H48.079a2.383,2.383,0,0,1-2.386-2.386V35.54a2.385,2.385,0,0,1,2.386-2.386h85.256a2.386,2.386,0,0,1,2.386,2.386Z" transform="translate(-45.692 -33.154)" fill="url(#linear-gradient)"/>
                <g id="Group_2590" data-name="Group 2590">
                  <path id="Path_13613" data-name="Path 13613" d="M135.718,51.464V35.539a2.386,2.386,0,0,0-2.386-2.386H48.076a2.386,2.386,0,0,0-2.386,2.386V51.464Z" transform="translate(-45.69 -33.153)" fill="#ff9d33"/>
                  <path id="Path_13614" data-name="Path 13614" d="M139.326,64.952H82.921a1.193,1.193,0,0,1-1.193-1.193V59.228a1.193,1.193,0,0,1,1.193-1.193h56.405a1.193,1.193,0,0,1,1.193,1.193v4.531A1.193,1.193,0,0,1,139.326,64.952Z" transform="translate(-73.131 -52.099)" fill="#ffc599"/>
                </g>
              </g>
              <g id="Group_2601" data-name="Group 2601" transform="translate(72.824 5.936)">
                <g id="Group_2594" data-name="Group 2594">
                  <g id="Group_2592" data-name="Group 2592">
                    <circle id="Ellipse_19" data-name="Ellipse 19" cx="1.193" cy="1.193" r="1.193" fill="#fff"/>
                  </g>
                  <g id="Group_2593" data-name="Group 2593" transform="translate(0 4.531)">
                    <circle id="Ellipse_20" data-name="Ellipse 20" cx="1.193" cy="1.193" r="1.193" fill="#fff"/>
                  </g>
                </g>
                <g id="Group_2597" data-name="Group 2597" transform="translate(4.128)">
                  <g id="Group_2595" data-name="Group 2595">
                    <circle id="Ellipse_21" data-name="Ellipse 21" cx="1.193" cy="1.193" r="1.193" fill="#fff"/>
                  </g>
                  <g id="Group_2596" data-name="Group 2596" transform="translate(0 4.531)">
                    <circle id="Ellipse_22" data-name="Ellipse 22" cx="1.193" cy="1.193" r="1.193" fill="#fff"/>
                  </g>
                </g>
                <g id="Group_2600" data-name="Group 2600" transform="translate(8.256)">
                  <g id="Group_2598" data-name="Group 2598">
                    <circle id="Ellipse_23" data-name="Ellipse 23" cx="1.193" cy="1.193" r="1.193" fill="#fff"/>
                  </g>
                  <g id="Group_2599" data-name="Group 2599" transform="translate(0 4.531)">
                    <circle id="Ellipse_24" data-name="Ellipse 24" cx="1.193" cy="1.193" r="1.193" fill="#fff"/>
                  </g>
                </g>
              </g>
            </g>
            <path id="Path_13615" data-name="Path 13615" d="M152.871,194.918H94.358a5.447,5.447,0,0,1,0-10.894h58.513a5.447,5.447,0,1,1,0,10.894Z" transform="translate(-78.6 -148.032)" fill="#b3b3ff"/>
            <path id="Path_13616" data-name="Path 13616" d="M204.293,260.25H188.8a4.107,4.107,0,1,1,0-8.214h15.492a4.107,4.107,0,1,1,0,8.214Z" transform="translate(-151.533 -199.819)" fill="#ffc599"/>
            <path id="Path_13617" data-name="Path 13617" d="M229.909,256.142a4.105,4.105,0,0,1-4.106,4.106h-9.893a26.276,26.276,0,0,1-2.968-8.214H225.8A4.106,4.106,0,0,1,229.909,256.142Z" transform="translate(-173.043 -199.818)" fill="#ffab66"/>
          </g>
          <g id="Group_2608" data-name="Group 2608" transform="translate(39.486 15.409)">
            <g id="Group_2604" data-name="Group 2604" transform="translate(36.329 46.657)">
              <path id="Path_13618" data-name="Path 13618" d="M0,0H6.08V12.714H0Z" transform="matrix(0.866, -0.5, 0.5, 0.866, 0, 3.04)" fill="#d9d9ff"/>
              <path id="Path_13619" data-name="Path 13619" d="M371.514,298.088a26.433,26.433,0,0,1-4.781,3.526c-.052.029-.1.06-.155.088l-3.08-5.337,5.267-3.039Z" transform="translate(-363.496 -293.324)" fill="#b3b3ff"/>
            </g>
            <g id="Group_2605" data-name="Group 2605" transform="translate(0 0)">
              <circle id="Ellipse_25" data-name="Ellipse 25" cx="26.377" cy="26.377" r="26.377" fill="#9494ff"/>
              <path id="Path_13620" data-name="Path 13620" d="M264.042,157.792a21.711,21.711,0,0,1-23.255-.973l-7.4-8.9a21.661,21.661,0,0,1-1.7-5.773l1.565-11.8a21.715,21.715,0,1,1,30.784,27.439Z" transform="translate(-226.806 -112.61)" fill="#d9d9ff"/>
              <path id="Path_13621" data-name="Path 13621" d="M269.273,178.021a5.9,5.9,0,0,1-5.9,5.9H230.96a21.782,21.782,0,0,1,1.563-11.8h30.85A5.9,5.9,0,0,1,269.273,178.021Z" transform="translate(-226.073 -154.38)" fill="#b3b3ff"/>
              <path id="Path_13622" data-name="Path 13622" d="M253.059,250.221a4.447,4.447,0,0,1-4.447,4.449H246.2a21.631,21.631,0,0,1-6.41-6.975c-.365-.63-.692-1.271-.988-1.92h9.81a4.448,4.448,0,0,1,4.447,4.447Z" transform="translate(-232.22 -210.46)" fill="#ffab66"/>
            </g>
            <g id="Group_2607" data-name="Group 2607" transform="translate(40.785 55.759)">
              <path id="Path_13623" data-name="Path 13623" d="M400.446,348.491l-3.2,3.828L391.6,353.6l-9.089-15.743a2.543,2.543,0,0,1,.93-3.476l4.44-2.562a2.543,2.543,0,0,1,3.476.93Z" transform="translate(-382.169 -331.476)" fill="#ffab66"/>
              <path id="Path_13624" data-name="Path 13624" d="M441.582,421.907l-3.49,3.722-5.356,1.386-1.753-3.037,3.544-3.551,5.3-1.556Z" transform="translate(-419.338 -398.021)" fill="#ffab66"/>
              <g id="Group_2606" data-name="Group 2606" transform="translate(9.429 17.013)">
                <path id="Path_13625" data-name="Path 13625" d="M0,0H10.215V4.427H0Z" transform="matrix(0.866, -0.5, 0.5, 0.866, 0, 5.107)" fill="#ffd6bb"/>
                <path id="Path_13626" data-name="Path 13626" d="M438.328,436.7l3.312,5.736a2.545,2.545,0,0,0,3.476.931l4.439-2.563a2.545,2.545,0,0,0,.931-3.476l-3.312-5.736Z" transform="translate(-434.36 -424.724)" fill="#ffd6bb"/>
              </g>
            </g>
          </g>
        </g>
        <path id="Path_13627" data-name="Path 13627" d="M225.492,352.664l2.272,2.76a.954.954,0,0,0,1.474,0l2.272-2.76a.954.954,0,0,0-.737-1.561h-4.544A.954.954,0,0,0,225.492,352.664Z" transform="translate(-182.432 -275.253)" fill="#ffab66"/>
        <g id="Group_2616" data-name="Group 2616" transform="translate(8.597 24.824)">
          <g id="Group_2610" data-name="Group 2610" transform="translate(0 42.568)">
            <path id="Path_13628" data-name="Path 13628" d="M87.354,318.032H82.921a1.193,1.193,0,1,1,0-2.386h4.433a1.193,1.193,0,1,1,0,2.386Z" transform="translate(-81.728 -315.646)" fill="#ff6c6c"/>
          </g>
          <g id="Group_2615" data-name="Group 2615" transform="translate(0)">
            <g id="Group_2611" data-name="Group 2611" transform="translate(0 47.43)">
              <path id="Path_13629" data-name="Path 13629" d="M96.9,338.414H82.921a1.193,1.193,0,0,1,0-2.386H96.9a1.193,1.193,0,0,1,0,2.386Z" transform="translate(-81.728 -336.028)" fill="#ffab66"/>
            </g>
            <g id="Group_2612" data-name="Group 2612" transform="translate(1.714 4.851)">
              <path id="Path_13630" data-name="Path 13630" d="M104.079,159.929H90.1a1.193,1.193,0,1,1,0-2.386h13.976a1.193,1.193,0,1,1,0,2.386Z" transform="translate(-88.911 -157.543)" fill="#8383ff"/>
            </g>
            <g id="Group_2613" data-name="Group 2613" transform="translate(1.714)">
              <path id="Path_13631" data-name="Path 13631" d="M95.491,139.6H90.1a1.193,1.193,0,1,1,0-2.386h5.387a1.193,1.193,0,1,1,0,2.386Z" transform="translate(-88.911 -137.21)" fill="#ff9d33"/>
            </g>
            <g id="Group_2614" data-name="Group 2614" transform="translate(0 52.292)">
              <path id="Path_13632" data-name="Path 13632" d="M96.9,358.8H82.921a1.193,1.193,0,1,1,0-2.386H96.9a1.193,1.193,0,1,1,0,2.386Z" transform="translate(-81.728 -356.41)" fill="#ffab66"/>
            </g>
          </g>
        </g>
      </g>
      <g id="Group_2622" data-name="Group 2622" transform="translate(4.701 24.824)">
        <g id="Group_2618" data-name="Group 2618" transform="translate(0 73.377)">
          <path id="Path_13633" data-name="Path 13633" d="M69.291,452.588a1.193,1.193,0,0,1-1.193-1.193,1.513,1.513,0,0,0-1.511-1.511,1.193,1.193,0,1,1,0-2.386,1.513,1.513,0,0,0,1.511-1.511,1.193,1.193,0,0,1,2.386,0,1.513,1.513,0,0,0,1.511,1.511,1.193,1.193,0,1,1,0,2.386,1.513,1.513,0,0,0-1.511,1.511A1.193,1.193,0,0,1,69.291,452.588Z" transform="translate(-65.395 -444.795)" fill="#ffab66"/>
        </g>
        <g id="Group_2619" data-name="Group 2619" transform="translate(91.32)">
          <path id="Path_13634" data-name="Path 13634" d="M452.088,145a1.193,1.193,0,0,1-1.193-1.193,1.513,1.513,0,0,0-1.511-1.511,1.193,1.193,0,1,1,0-2.386A1.513,1.513,0,0,0,450.9,138.4a1.193,1.193,0,0,1,2.386,0,1.512,1.512,0,0,0,1.511,1.511,1.193,1.193,0,1,1,0,2.386,1.512,1.512,0,0,0-1.511,1.511A1.193,1.193,0,0,1,452.088,145Z" transform="translate(-448.192 -137.21)" fill="#ffab66"/>
        </g>
        <g id="Group_2620" data-name="Group 2620" transform="translate(72.482 74.575)">
          <path id="Path_13635" data-name="Path 13635" d="M373.125,457.609a1.193,1.193,0,0,1-1.193-1.193,1.513,1.513,0,0,0-1.511-1.511,1.193,1.193,0,0,1,0-2.386,1.513,1.513,0,0,0,1.511-1.511,1.193,1.193,0,1,1,2.386,0,1.513,1.513,0,0,0,1.511,1.511,1.193,1.193,0,0,1,0,2.386,1.513,1.513,0,0,0-1.511,1.511A1.193,1.193,0,0,1,373.125,457.609Z" transform="translate(-369.229 -449.816)" fill="#ff6c6c"/>
        </g>
        <g id="Group_2621" data-name="Group 2621" transform="translate(11.876 70.158)">
          <path id="Path_13636" data-name="Path 13636" d="M120.663,435.832a1.189,1.189,0,0,1-.844-.349l-1.3-1.3-1.3,1.3a1.193,1.193,0,0,1-1.687-1.687l2.147-2.147a1.193,1.193,0,0,1,1.687,0l2.147,2.147a1.193,1.193,0,0,1-.844,2.036Z" transform="translate(-115.176 -431.299)" fill="#8383ff"/>
        </g>
      </g>
      <g id="Group_2623" data-name="Group 2623" transform="translate(97.246 14.369)">
        <path id="Path_13637" data-name="Path 13637" d="M458.815,97.917a1.189,1.189,0,0,1-.844-.349l-1.3-1.3-1.3,1.3a1.193,1.193,0,1,1-1.687-1.687l2.147-2.147a1.193,1.193,0,0,1,1.687,0l2.147,2.147a1.193,1.193,0,0,1-.844,2.036Z" transform="translate(-453.328 -93.384)" fill="#8383ff"/>
      </g>
    </g>
  </g>
</svg>
