<svg id="button" xmlns="http://www.w3.org/2000/svg" width="24.549" height="24.549" viewBox="0 0 24.549 24.549">
  <g id="Group_2351" data-name="Group 2351">
    <g id="Group_2350" data-name="Group 2350">
      <path id="Path_8417" data-name="Path 8417" d="M156,160.795a.959.959,0,0,0,.959.959h2.877v2.877a.959.959,0,1,0,1.918,0v-2.877h2.877a.959.959,0,0,0,0-1.918h-2.877v-2.877a.959.959,0,0,0-1.918,0v2.877h-2.877A.959.959,0,0,0,156,160.795Z" transform="translate(-148.52 -148.52)" fill="#FFFFFF"/>
      <path id="Path_8418" data-name="Path 8418" d="M134.072,14.959l1.24-.514a.959.959,0,0,0-.734-1.772l-1.24.514a.959.959,0,1,0,.734,1.772Z" transform="translate(-126.381 -11.995)" fill="#FFFFFF"/>
      <path id="Path_8419" data-name="Path 8419" d="M12.274,0a.959.959,0,1,0,0,1.918A10.357,10.357,0,1,1,1.918,12.274a.959.959,0,0,0-1.918,0A12.274,12.274,0,1,0,12.274,0Z" fill="#FFFFFF"/>
      <path id="Path_8420" data-name="Path 8420" d="M60.86,61.809l.949-.949A.959.959,0,1,0,60.453,59.5l-.949.949a.959.959,0,0,0,1.356,1.356Z" transform="translate(-56.383 -56.384)" fill="#FFFFFF"/>
      <path id="Path_8421" data-name="Path 8421" d="M13.193,135.832a.959.959,0,0,0,1.253-.519l.514-1.24a.959.959,0,1,0-1.772-.734l-.514,1.24A.959.959,0,0,0,13.193,135.832Z" transform="translate(-11.997 -126.382)" fill="#FFFFFF"/>
    </g>
  </g>
</svg>
