<svg xmlns="http://www.w3.org/2000/svg" width="30.472" height="29.271" viewBox="0 0 30.472 29.271">
  <path id="Path_13433" data-name="Path 13433" d="M1874.734,55.031a.65.65,0,0,0,.009-.089c0-8.46-1.541-18.174-13.576-18.174-4.782,0-7.9,1.538-9.933,3.918-3.077,3.609-3.641,9.159-3.641,14.256a.6.6,0,0,0,.009.089,5.8,5.8,0,0,0-.818.879,3.877,3.877,0,0,0-.847,2.559l.157,2.811c.094,1.693,1.418,3.126,3.39,3.971a9.4,9.4,0,0,0,1.168.409c.265.074.536.142.816.2-.262-.052-.506-.123-.756-.19l-.638-12.088c.121-.049.244-.094.367-.139.186-.066.372-.131.567-.187.071-.023.127-.034.192-.052l.674,12.726c-.128-.02-.253-.041-.406-.069a8.441,8.441,0,0,0,1.429.175c.128,0,.254.006.385.008.522.01.89-1.014.821-2.271l-.483-8.664c-.069-1.257-.512-2.239-.985-2.182-.242.03-.463.057-.726.107.132-3.218.668-6.184,2.292-8.235,1.386-1.751,3.563-2.836,6.965-2.836,7.389,0,9.016,5.106,9.259,11.071-.263-.05-.484-.076-.727-.107-.166-.02-.328.09-.472.294a2.714,2.714,0,0,0-.367.891,5.4,5.4,0,0,0-.145,1l-.484,8.664c-.069,1.258.3,2.281.821,2.271l.319-.007a7.763,7.763,0,0,0,1.153-.114c.107-.018.22-.038.343-.062-.152.029-.278.049-.406.069l.674-12.726c.065.018.121.029.193.052.194.056.381.121.567.187.123.045.246.091.366.139l-.638,12.088c-.251.067-.494.138-.756.19a8.654,8.654,0,0,0,3.514-1.477,4.217,4.217,0,0,0,1.861-3.1l.157-2.811A4.3,4.3,0,0,0,1874.734,55.031Zm-1.167-.83a9.092,9.092,0,0,0-.821-.424c-.05-3.33-.495-8.888-4.38-11.94a11.264,11.264,0,0,0-7.2-2.17c-4.17,0-6.834,1.442-8.542,3.478-2.646,3.154-2.991,7.735-3.035,10.632a8.985,8.985,0,0,0-.846.439,41.275,41.275,0,0,1,.292-4.742,15.2,15.2,0,0,1,2.98-7.933c1.776-2.125,4.484-3.493,8.572-3.613.193-.006.382-.014.58-.014,10.639,0,12.338,8.12,12.426,16.3Z" transform="translate(-1845.932 -36.768)" fill="#1c76ce"/>
</svg>
