<svg xmlns="http://www.w3.org/2000/svg" width="11.838" height="14.489" viewBox="0 0 11.838 14.489">
  <g id="delete" transform="translate(0.16 0.152)">
    <path id="Path_9088" data-name="Path 9088" d="M222.73,154.7a.332.332,0,0,0-.332.332v6.28a.332.332,0,1,0,.665,0v-6.28A.332.332,0,0,0,222.73,154.7Zm0,0" transform="translate(-215.011 -149.564)" fill="#081d34" stroke="#07192d" stroke-width="0.3"/>
    <path id="Path_9089" data-name="Path 9089" d="M104.73,154.7a.332.332,0,0,0-.332.332v6.28a.332.332,0,1,0,.665,0v-6.28A.332.332,0,0,0,104.73,154.7Zm0,0" transform="translate(-100.932 -149.564)" fill="#081d34" stroke="#07192d" stroke-width="0.3"/>
    <path id="Path_9090" data-name="Path 9090" d="M.94,4.223V12.41a1.833,1.833,0,0,0,.487,1.264,1.636,1.636,0,0,0,1.187.513H8.9a1.636,1.636,0,0,0,1.187-.513,1.833,1.833,0,0,0,.487-1.264V4.223a1.269,1.269,0,0,0-.326-2.5H8.55V1.311A1.305,1.305,0,0,0,7.234,0H4.283A1.305,1.305,0,0,0,2.967,1.311v.415h-1.7a1.269,1.269,0,0,0-.326,2.5Zm7.962,9.3H2.615a1.052,1.052,0,0,1-1.01-1.113V4.252H9.912V12.41A1.052,1.052,0,0,1,8.9,13.523ZM3.632,1.311A.64.64,0,0,1,4.283.663H7.234a.64.64,0,0,1,.651.648v.415H3.632ZM1.266,2.391h8.985a.6.6,0,0,1,0,1.2H1.266a.6.6,0,1,1,0-1.2Zm0,0" transform="translate(0 0)" fill="#081d34" stroke="#07192d" stroke-width="0.3"/>
    <path id="Path_9091" data-name="Path 9091" d="M163.73,154.7a.332.332,0,0,0-.332.332v6.28a.332.332,0,1,0,.665,0v-6.28A.332.332,0,0,0,163.73,154.7Zm0,0" transform="translate(-157.972 -149.564)" fill="#081d34" stroke="#07192d" stroke-width="0.3"/>
  </g>
</svg>
