<svg xmlns="http://www.w3.org/2000/svg" width="13.398" height="13.398" viewBox="0 0 13.398 13.398">
  <g id="edit" transform="translate(0 -3.18)">
    <path id="Path_9085" data-name="Path 9085" d="M12.728,91.175a.67.67,0,0,0-.67.67V97.2a.671.671,0,0,1-.67.67H2.01a.67.67,0,0,1-.67-.67V87.826a.67.67,0,0,1,.67-.67H7.369a.67.67,0,0,0,0-1.34H2.01A2.012,2.012,0,0,0,0,87.826V97.2a2.012,2.012,0,0,0,2.01,2.01h9.379A2.012,2.012,0,0,0,13.4,97.2V91.845a.669.669,0,0,0-.67-.67Zm0,0" transform="translate(0 -82.636)" fill="#1c76ce"/>
    <path id="Path_9086" data-name="Path 9086" d="M182.38,73.562a.339.339,0,0,0-.092.171l-.474,2.369a.335.335,0,0,0,.329.4.319.319,0,0,0,.066-.007l2.368-.474a.333.333,0,0,0,.171-.092l5.3-5.3-2.368-2.368Zm0,0" transform="translate(-178.779 -62.954)" fill="#1c76ce"/>
    <path id="Path_9087" data-name="Path 9087" d="M394.741.991a1.676,1.676,0,0,0-2.368,0l-.927.927,2.368,2.368.927-.927a1.675,1.675,0,0,0,0-2.368Zm0,0" transform="translate(-381.833 2.679)" fill="#1c76ce"/>
  </g>
</svg>
