<svg id="exchange" xmlns="http://www.w3.org/2000/svg" width="16.657" height="16.531" viewBox="0 0 16.657 16.531">
  <path id="Path_8415" data-name="Path 8415" d="M19.978,28.483a.978.978,0,0,0,.978-.978A2.909,2.909,0,0,1,23.862,24.6H34.679a.975.975,0,0,0,.59-1.753.957.957,0,0,0-.079-.1l-3.122-3.122a.978.978,0,1,0-1.383,1.383l1.634,1.634H23.862A4.868,4.868,0,0,0,19,27.505a.978.978,0,0,0,.978.978Z" transform="translate(-19 -19.341)" fill="#32c5ed"/>
  <path id="Path_8416" data-name="Path 8416" d="M34.678,59.262a.978.978,0,0,0-.978.978,2.909,2.909,0,0,1-2.906,2.906H19.977a.977.977,0,0,0-.559,1.779.986.986,0,0,0,.1.127l3.067,3.067a.978.978,0,1,0,1.383-1.383L22.338,65.1h8.457a4.868,4.868,0,0,0,4.862-4.862.978.978,0,0,0-.978-.978Z" transform="translate(-18.999 -51.873)" fill="#307eef"/>
</svg>

