<svg xmlns="http://www.w3.org/2000/svg" width="32.851" height="32.851" viewBox="0 0 32.851 32.851">
  <g id="Group_75" data-name="Group 75" transform="translate(-59.64 -403.502)">
    <path id="Path_7128" data-name="Path 7128" d="M222.843,343.22a1.192,1.192,0,0,0,0,2.383,1.192,1.192,0,0,0,0-2.383Z" transform="translate(-147.126 80.58)" fill="#081d34" stroke="#081d34" stroke-width="0.5"/>
    <path id="Path_7129" data-name="Path 7129" d="M187.07,140c-2.089,0-3.048,1.238-3.048,2.074a.887.887,0,0,0,.928.882c.836,0,.5-1.191,2.074-1.191.774,0,1.393.34,1.393,1.052,0,.836-.867,1.315-1.377,1.749A2.833,2.833,0,0,0,186,146.919c0,.8.217,1.037.851,1.037.758,0,.913-.34.913-.634a1.943,1.943,0,0,1,.867-1.934,3.961,3.961,0,0,0,1.733-2.832C190.366,141.1,189.051,140,187.07,140Z" transform="translate(-111.152 274.776)" fill="#081d34" stroke="#081d34" stroke-width="0.5"/>
    <path id="Path_7130" data-name="Path 7130" d="M11.365,0A11.359,11.359,0,0,0,0,11.365V21.842a.888.888,0,0,0,.888.888H11.365A11.365,11.365,0,0,0,11.365,0Zm0,20.954H1.776V11.365a9.589,9.589,0,1,1,9.589,9.589Z" transform="translate(59.993 419.928) rotate(-45)" fill="#081d34" stroke="#081d34" stroke-width="0.5"/>
  </g>
</svg>
