<svg xmlns="http://www.w3.org/2000/svg" width="21.734" height="20.121" viewBox="0 0 21.734 20.121">
  <path id="follower" d="M13.389,28.773a5.455,5.455,0,1,0-6.657,0A10.062,10.062,0,0,0,0,38.272a.849.849,0,0,0,.849.849H19.272a.849.849,0,0,0,.849-.849A10.063,10.063,0,0,0,13.389,28.773ZM6.3,24.455a3.757,3.757,0,1,1,3.757,3.757A3.761,3.761,0,0,1,6.3,24.455ZM1.741,37.423a8.363,8.363,0,0,1,16.639,0ZM21.734,24.455a.849.849,0,0,1-.849.849h-.764v.764a.849.849,0,1,1-1.7,0V25.3h-.764a.849.849,0,1,1,0-1.7h.764v-.764a.849.849,0,1,1,1.7,0v.764h.764A.849.849,0,0,1,21.734,24.455Z" transform="translate(0 -19)" fill="#FFFFFF"/>
</svg>
