<svg xmlns="http://www.w3.org/2000/svg" width="23.73" height="27" viewBox="0 0 23.73 27">
  <g id="headphones" transform="translate(-31)">
    <g id="Group_66" data-name="Group 66" transform="translate(34.164 11.074)">
      <g id="Group_65" data-name="Group 65">
        <path id="Path_7123" data-name="Path 7123" d="M93.373,210A2.376,2.376,0,0,0,91,212.373v6.434a2.373,2.373,0,0,0,4.746,0v-6.434A2.376,2.376,0,0,0,93.373,210Z" transform="translate(-91 -210)" fill="#081d34"/>
      </g>
    </g>
    <g id="Group_68" data-name="Group 68" transform="translate(31 12.781)">
      <g id="Group_67" data-name="Group 67">
        <path id="Path_7124" data-name="Path 7124" d="M32.582,243.032a3.925,3.925,0,0,1,.067-.666A2.368,2.368,0,0,0,31,244.614v3.27a2.368,2.368,0,0,0,1.649,2.248,3.925,3.925,0,0,1-.067-.666Z" transform="translate(-31 -242.366)" fill="#081d34"/>
      </g>
    </g>
    <g id="Group_70" data-name="Group 70" transform="translate(40.492 11.074)">
      <g id="Group_69" data-name="Group 69">
        <path id="Path_7125" data-name="Path 7125" d="M219.7,210a2.376,2.376,0,0,0-2.373,2.373v6.434a2.376,2.376,0,0,0,2.373,2.373,2.341,2.341,0,0,0,.68-.111,2.368,2.368,0,0,1-2.262,1.693H215.6a2.373,2.373,0,1,0,0,1.582h2.519a3.96,3.96,0,0,0,3.955-3.955v-8.016A2.376,2.376,0,0,0,219.7,210Z" transform="translate(-211 -210)" fill="#081d34"/>
      </g>
    </g>
    <g id="Group_72" data-name="Group 72" transform="translate(53.081 12.781)">
      <g id="Group_71" data-name="Group 71">
        <path id="Path_7126" data-name="Path 7126" d="M449.722,242.366a3.924,3.924,0,0,1,.067.666v6.434a3.924,3.924,0,0,1-.067.666,2.368,2.368,0,0,0,1.649-2.248v-3.27A2.368,2.368,0,0,0,449.722,242.366Z" transform="translate(-449.722 -242.366)" fill="#081d34"/>
      </g>
    </g>
    <g id="Group_74" data-name="Group 74" transform="translate(31)">
      <g id="Group_73" data-name="Group 73">
        <path id="Path_7127" data-name="Path 7127" d="M42.865,0A11.878,11.878,0,0,0,31,11.865v.02a3.917,3.917,0,0,1,1.618-.735,10.271,10.271,0,0,1,20.494,0,3.918,3.918,0,0,1,1.618.735v-.02A11.878,11.878,0,0,0,42.865,0Z" transform="translate(-31)" fill="#081d34"/>
      </g>
    </g>
  </g>
</svg>
