<svg id="Group_2487" data-name="Group 2487" xmlns="http://www.w3.org/2000/svg" width="26.006" height="29.271" viewBox="0 0 26.006 29.271">
  <path id="Path_13282" data-name="Path 13282" d="M688.161,258.5c1.38,3.282,4.01,5.068,5.764,5.068,1.724,0,4.139-1.726,5.539-4.965a15.1,15.1,0,0,0,.838-2.774,11.047,11.047,0,0,0,.355-3.055,6.753,6.753,0,0,0-13.461,0,14.681,14.681,0,0,0,.156,2.282A13.374,13.374,0,0,0,688.161,258.5Z" transform="translate(-680.922 -246.572)" fill="#1c76ce"/>
  <path id="Path_13283" data-name="Path 13283" d="M688.525,317.557c-1.346-1.439-5.129-1.078-7-2.066-.831,1.555-.842,4.111-2.223,4.111a1.186,1.186,0,0,1-.185-.015c-2.08-.312-1.04-5.616-2.5-5.616s-.416,5.3-2.5,5.616a1.184,1.184,0,0,1-.185.015c-1.38,0-1.391-2.556-2.222-4.111-1.869.988-5.652.628-6.993,2.066-.729.779-1.107,5.606-1.107,7.75h26.006C689.626,323.163,689.25,318.336,688.525,317.557Z" transform="translate(-663.62 -296.036)" fill="#1c76ce"/>
</svg>
