<svg xmlns="http://www.w3.org/2000/svg" width="12.866" height="16.329" viewBox="0 0 12.866 16.329">
  <g id="idea" transform="translate(-78.342)">
    <g id="Group_77" data-name="Group 77" transform="translate(78.342)">
      <g id="Group_76" data-name="Group 76">
        <path id="Path_7131" data-name="Path 7131" d="M84.775,0a6.436,6.436,0,0,0-3.06,12.1v1.329a.67.67,0,0,0,.67.67h4.758a.67.67,0,0,0,.67-.67V12.1A6.429,6.429,0,0,0,84.775,0Zm2.09,11.073a.67.67,0,0,0-.392.61v1.072H83.055V11.683a.67.67,0,0,0-.39-.609,5.1,5.1,0,1,1,4.2,0Z" transform="translate(-78.342)" fill="#081d34"/>
      </g>
    </g>
    <g id="Group_79" data-name="Group 79" transform="translate(82.251 14.989)">
      <g id="Group_78" data-name="Group 78">
        <path id="Path_7132" data-name="Path 7132" d="M190.672,413.918h-3.708a.67.67,0,1,0,0,1.34h3.708a.67.67,0,1,0,0-1.34Z" transform="translate(-186.294 -413.918)" fill="#081d34"/>
      </g>
    </g>
  </g>
</svg>