<svg xmlns="http://www.w3.org/2000/svg" width="33.786" height="19.72" viewBox="0 0 33.786 19.72">
  <path id="Path_13305" data-name="Path 13305" d="M72.325,673.93A5.214,5.214,0,0,0,69,675.161c-.377-4.133-3.362-7.352-6.988-7.352-3.2,0-5.907,2.513-6.753,5.948a3.787,3.787,0,0,0-1.887-.508c-2.386,0-4.32,2.267-4.32,5.062,0,.031,0,.06,0,.09a3.4,3.4,0,0,0-.776-.09c-2.172,0-3.933,2.064-3.933,4.609s1.761,4.609,3.933,4.609H59.586v-7.264H57.65l5.067-7.771,5.067,7.771H65.849v7.264h6.476c3.2,0,5.8-3.044,5.8-6.8S75.529,673.93,72.325,673.93Z" transform="translate(-44.342 -667.81)" fill="#1c76ce"/>
</svg>
