<svg xmlns="http://www.w3.org/2000/svg" width="26.393" height="26.393" viewBox="0 0 26.393 26.393">
  <g id="Group_2284" data-name="Group 2284" transform="translate(0 0)" opacity="0.5">
    <path id="Path_364" data-name="Path 364" d="M107.911,365.159c3.524,0,3.941.013,5.333.077a7.284,7.284,0,0,1,2.45.454,4.374,4.374,0,0,1,2.5,2.5,7.315,7.315,0,0,1,.454,2.451c.064,1.39.077,1.809.077,5.331s-.013,3.941-.077,5.333a7.316,7.316,0,0,1-.454,2.451,4.368,4.368,0,0,1-2.5,2.5,7.3,7.3,0,0,1-2.45.455c-1.392.064-1.809.077-5.333.077s-3.941-.013-5.333-.077a7.3,7.3,0,0,1-2.45-.455,4.36,4.36,0,0,1-2.5-2.5,7.31,7.31,0,0,1-.455-2.451c-.063-1.391-.077-1.809-.077-5.333s.014-3.941.077-5.331a7.309,7.309,0,0,1,.455-2.451,4.366,4.366,0,0,1,2.5-2.5,7.278,7.278,0,0,1,2.45-.454c1.392-.064,1.809-.077,5.333-.077m0-2.378c-3.584,0-4.033.015-5.441.079a9.716,9.716,0,0,0-3.2.614,6.743,6.743,0,0,0-3.86,3.86,9.694,9.694,0,0,0-.613,3.2c-.064,1.407-.079,1.856-.079,5.44s.015,4.033.079,5.441a9.691,9.691,0,0,0,.613,3.2,6.751,6.751,0,0,0,3.86,3.86,9.694,9.694,0,0,0,3.2.613c1.408.065,1.857.079,5.441.079s4.033-.014,5.441-.079a9.7,9.7,0,0,0,3.2-.613,6.745,6.745,0,0,0,3.859-3.86,9.664,9.664,0,0,0,.614-3.2c.064-1.408.079-1.856.079-5.441s-.015-4.033-.079-5.44a9.667,9.667,0,0,0-.614-3.2,6.738,6.738,0,0,0-3.859-3.86,9.721,9.721,0,0,0-3.2-.614c-1.408-.064-1.857-.079-5.441-.079" transform="translate(-94.714 -362.781)" fill="#fff"/>
    <path id="Path_365" data-name="Path 365" d="M107.816,369.107a6.776,6.776,0,1,0,6.776,6.776,6.776,6.776,0,0,0-6.776-6.776m0,11.174a4.4,4.4,0,1,1,4.4-4.4,4.4,4.4,0,0,1-4.4,4.4" transform="translate(-94.619 -362.687)" fill="#fff"/>
    <path id="Path_366" data-name="Path 366" d="M116.264,368.866a1.584,1.584,0,1,1-1.584-1.584,1.584,1.584,0,0,1,1.584,1.584" transform="translate(-94.439 -362.714)" fill="#fff"/>
  </g>
</svg>
