<svg xmlns="http://www.w3.org/2000/svg" width="29.769" height="29.271" viewBox="0 0 29.769 29.271">
  <path id="Path_13557" data-name="Path 13557" d="M892.483,470.891l-3.685-6.183a1.24,1.24,0,0,0-.515-2.368,1.23,1.23,0,0,0-.167.013,13.885,13.885,0,0,0-7.147-3.622,2.466,2.466,0,0,0-4.928-.005,13.888,13.888,0,0,0-7.238,3.684,1.24,1.24,0,0,0-.92,2.3l-3.685,6.183h-.742a5,5,0,0,0,9.885,0H872.6l-3.685-6.183a1.237,1.237,0,0,0,.5-1.842,13.144,13.144,0,0,1,6.707-3.393,2.471,2.471,0,0,0,1.584,1.707v19.1H877.7a18.776,18.776,0,0,0-4.262,1.851c-1.9,1.018-3.453,2.225-3.453,2.684s1.918.833,4.262.833h8.524c2.344,0,4.262-.375,4.262-.833s-1.554-1.666-3.453-2.684a18.769,18.769,0,0,0-4.262-1.851h-.006v-19.1a2.47,2.47,0,0,0,1.582-1.7,13.14,13.14,0,0,1,6.511,3.231,1.238,1.238,0,0,0,.366,2l-3.686,6.183h-.742a5,5,0,0,0,9.885,0Zm-3.71-7.31a.49.49,0,1,1-.491-.491A.491.491,0,0,1,888.773,463.581ZM868.4,463.09a.491.491,0,1,1-.491.491A.491.491,0,0,1,868.4,463.09Zm-3.327,7.8,3.327-5.581,3.327,5.581Zm23.211-5.581,3.327,5.581h-6.654Z" transform="translate(-863.456 -456.376)" fill="#1c76ce"/>
</svg>
