<svg xmlns="http://www.w3.org/2000/svg" width="28.006" height="26.661" viewBox="0 0 28.006 26.661">
  <path id="Path_13392" data-name="Path 13392" d="M1217.392,1472.8l-2.387,7.884c-.228.754.115,1,.761.552l6.764-4.705a2.219,2.219,0,0,1,2.35,0l5.983,4.162.781.543c.646.452.989.2.761-.552l-2.387-7.884a2.178,2.178,0,0,1,.162-1.521,1.956,1.956,0,0,1,.566-.716l5.766-4.373.8-.6c.63-.475.5-.879-.29-.894l-8.237-.169a2.215,2.215,0,0,1-1.9-1.381l-2.707-7.784c-.257-.742-.683-.742-.94,0l-.338.97-2.369,6.815a2.207,2.207,0,0,1-1.2,1.214,1.886,1.886,0,0,1-.7.167l-8.236.169c-.788.015-.92.418-.29.894l.351.266,6.213,4.711A2.215,2.215,0,0,1,1217.392,1472.8Z" transform="translate(-1209.703 -1454.796)" fill="#1c76ce"/>
</svg>
