<svg xmlns="http://www.w3.org/2000/svg" width="21.285" height="27.019" viewBox="0 0 21.285 27.019">
  <g id="Group_2362" data-name="Group 2362" transform="translate(-2142.939 200.795)">
    <path id="Subtraction_2" data-name="Subtraction 2" d="M11.466,1.793H1.147A.646.646,0,0,1,1.147.5H11.466a.646.646,0,1,1,0,1.292Z" transform="translate(2147.275 -189.579)" fill="#FFFFFF" stroke="#FFFFFF" stroke-width="0.5"/>
    <path id="Subtraction_3" data-name="Subtraction 3" d="M11.466,1.793H1.147A.646.646,0,0,1,1.147.5H11.466a.646.646,0,1,1,0,1.292Z" transform="translate(2147.275 -183.846)" fill="#FFFFFF" stroke="#FFFFFF" stroke-width="0.5"/>
    <path id="Subtraction_1" data-name="Subtraction 1" d="M18.347,27.02H3.44A2.943,2.943,0,0,1,.5,24.08V6.88A2.943,2.943,0,0,1,3.44,3.94H5.078l.062-.428A3.531,3.531,0,0,1,6.3,1.368,3.477,3.477,0,0,1,8.6.5h4.587a3.472,3.472,0,0,1,2.3.868,3.528,3.528,0,0,1,1.163,2.144l.062.428h1.638A2.943,2.943,0,0,1,21.286,6.88v17.2A2.943,2.943,0,0,1,18.347,27.02ZM3.44,5.234A1.648,1.648,0,0,0,1.794,6.88v17.2A1.648,1.648,0,0,0,3.44,25.726H18.347a1.648,1.648,0,0,0,1.646-1.647V6.88a1.648,1.648,0,0,0-1.646-1.646H16.483l-.137.284a3.485,3.485,0,0,1-3.16,2.01H8.6a3.487,3.487,0,0,1-3.16-2.01L5.3,5.234ZM8.6,1.794a2.22,2.22,0,0,0,0,4.44h4.586a2.22,2.22,0,1,0,0-4.44Z" transform="translate(2142.688 -201.046)" fill="#FFFFFF" stroke="#FFFFFF" stroke-width="0.5"/>
  </g>
</svg>
