<svg xmlns="http://www.w3.org/2000/svg" width="20.785" height="26.215" viewBox="0 0 20.785 26.215">
  <g id="shopping-bag" transform="translate(-53.02)">
    <g id="Group_2359" data-name="Group 2359" transform="translate(53.02)">
      <g id="Group_2358" data-name="Group 2358">
        <path id="Path_8425" data-name="Path 8425" d="M73.793,21.618,72.622,6.866a1.844,1.844,0,0,0-1.83-1.695H68.48v-.1a5.067,5.067,0,1,0-10.135,0v.1H56.033A1.843,1.843,0,0,0,54.2,6.864L53.032,21.62a4.268,4.268,0,0,0,4.256,4.595H69.537a4.268,4.268,0,0,0,4.256-4.6ZM59.881,5.067a3.532,3.532,0,0,1,7.064,0v.1H59.881ZM71.542,23.8a2.7,2.7,0,0,1-2.005.876H57.288a2.733,2.733,0,0,1-2.725-2.94L55.734,6.983a.3.3,0,0,1,.3-.277h2.312V8.6a.768.768,0,0,0,1.536,0V6.707h7.064V8.6a.768.768,0,1,0,1.535,0V6.707h2.312a.3.3,0,0,1,.3.279l1.171,14.752A2.7,2.7,0,0,1,71.542,23.8Z" transform="translate(-53.02)" fill="#FFFFFF"/>
      </g>
    </g>
    <g id="Group_2361" data-name="Group 2361" transform="translate(59.729 12.795)">
      <g id="Group_2360" data-name="Group 2360" transform="translate(0)">
        <path id="Path_8426" data-name="Path 8426" d="M191.195,250.118a.768.768,0,0,0-1.086,0l-3.428,3.428-1.318-1.318a.768.768,0,1,0-1.086,1.086l1.861,1.861a.767.767,0,0,0,1.086,0l3.971-3.971A.768.768,0,0,0,191.195,250.118Z" transform="translate(-184.052 -249.893)" fill="#FFFFFF"/>
      </g>
    </g>
  </g>
</svg>
