<svg xmlns="http://www.w3.org/2000/svg" width="23.429" height="24.549" viewBox="0 0 23.429 24.549">
  <g id="cogwheel" transform="translate(0 0)">
    <path id="Path_8427" data-name="Path 8427" d="M142.762,159.561a5.114,5.114,0,1,1,5.114-5.114A5.12,5.12,0,0,1,142.762,159.561Zm0-8.695a3.58,3.58,0,1,0,3.58,3.58A3.584,3.584,0,0,0,142.762,150.866Zm0,0" transform="translate(-131.048 -142.172)" fill="#FFFFFF"/>
    <path id="Path_8428" data-name="Path 8428" d="M13.415,24.549h-3.4a1.774,1.774,0,0,1-1.719-1.382l-.431-1.915a9.4,9.4,0,0,1-2-1.161L4,20.681a1.773,1.773,0,0,1-2.07-.807l-1.7-2.932a1.788,1.788,0,0,1,.328-2.183l1.445-1.329a10.35,10.35,0,0,1-.065-1.155,10.575,10.575,0,0,1,.064-1.155L.569,9.8a1.786,1.786,0,0,1-.341-2.18L1.934,4.667A1.773,1.773,0,0,1,4,3.867l1.868.59a9.411,9.411,0,0,1,2-1.161l.432-1.917A1.773,1.773,0,0,1,10.013,0h3.4a1.774,1.774,0,0,1,1.719,1.382L15.565,3.3a9.4,9.4,0,0,1,2,1.161l1.865-.589a1.774,1.774,0,0,1,2.07.807l1.7,2.932a1.788,1.788,0,0,1-.329,2.183L21.421,11.12a10.382,10.382,0,0,1,0,2.31l1.438,1.322.007.006a1.783,1.783,0,0,1,.334,2.174l-1.706,2.951a1.769,1.769,0,0,1-2.063.8l-1.868-.59a9.415,9.415,0,0,1-2,1.161l-.432,1.917a1.77,1.77,0,0,1-1.717,1.381ZM6.021,18.472a.767.767,0,0,1,.488.175,7.879,7.879,0,0,0,2.28,1.323.767.767,0,0,1,.483.551l.521,2.312a.23.23,0,0,0,.222.182h3.4a.228.228,0,0,0,.221-.18l.522-2.314a.767.767,0,0,1,.483-.551,7.894,7.894,0,0,0,2.28-1.323.765.765,0,0,1,.719-.14l2.251.711a.23.23,0,0,0,.271-.094l1.706-2.951a.25.25,0,0,0-.049-.3L20.093,14.29a.767.767,0,0,1-.239-.678,8.884,8.884,0,0,0,0-2.676.768.768,0,0,1,.239-.678l1.731-1.592a.25.25,0,0,0,.04-.3l-1.7-2.933a.235.235,0,0,0-.278-.1l-2.248.71a.765.765,0,0,1-.719-.14,7.88,7.88,0,0,0-2.28-1.323.766.766,0,0,1-.483-.551l-.521-2.312a.234.234,0,0,0-.224-.18h-3.4a.228.228,0,0,0-.221.18L9.27,4.028a.768.768,0,0,1-.483.551A7.872,7.872,0,0,0,6.508,5.9a.769.769,0,0,1-.719.14L3.538,5.331a.232.232,0,0,0-.271.094L1.561,8.375a.251.251,0,0,0,.052.3l1.725,1.584a.767.767,0,0,1,.239.678,8.883,8.883,0,0,0,0,2.676.768.768,0,0,1-.239.678L1.607,15.882a.25.25,0,0,0-.04.3l1.7,2.932a.235.235,0,0,0,.278.1l2.248-.71a.747.747,0,0,1,.231-.036Zm0,0" transform="translate(0 0)" fill="#FFFFFF"/>
  </g>
</svg>
