<svg id="Group_2566" data-name="Group 2566" xmlns="http://www.w3.org/2000/svg" width="20.769" height="29.271" viewBox="0 0 20.769 29.271">
  <path id="Path_13585" data-name="Path 13585" d="M1653.913,701.921c-3.017,5.341-2.334,9.078,3.607,11.368a24.72,24.72,0,0,0-1.7-7.331c1.39,2.024,2.1,5.318,2.526,7.152C1661.861,708.035,1659.783,704.706,1653.913,701.921Z" transform="translate(-1647.652 -688.069)" fill="#1c76ce"/>
  <path id="Path_13586" data-name="Path 13586" d="M1655.1,656.058a.518.518,0,0,0-.536-.471h-3.684v-2.41a3.477,3.477,0,0,0-3.614-3.312,3.591,3.591,0,0,0-3.466,2.376,2.859,2.859,0,0,0-2.258,2.529v.816h-1.574a.554.554,0,0,0-.418.184.461.461,0,0,0-.11.388.452.452,0,0,0,.008.2l.246.9-3.3,1.439c-.01,0-.017.01-.027.015s-.035.018-.051.029l-.038.027c-.013.011-.026.022-.039.033s-.022.023-.033.035-.021.025-.031.039a.446.446,0,0,0-.024.038.475.475,0,0,0-.023.045.419.419,0,0,0-.016.042c0,.016-.009.031-.013.047s-.006.032-.008.048,0,.017,0,.026l-.879,19.5a.468.468,0,0,0,.149.36.56.56,0,0,0,.387.151H1652.1a.586.586,0,0,0,.1-.009l.024,0a.556.556,0,0,0,.085-.025l.006,0a.585.585,0,0,0,.084-.042l.019-.013a.524.524,0,0,0,.067-.052l.006-.005v0a.468.468,0,0,0,.06-.07l.013-.02c.006-.01.013-.019.019-.029l1.142-2.093,1.926-.736a.49.49,0,0,0,.33-.474Zm-10.371-3.009a3.68,3.68,0,0,1,.427-.025c1.4,0,2.541.784,2.541,1.746v.816h-2.972v-2.41C1644.728,653.134,1644.73,653.091,1644.732,653.049Zm2.538-2.2a2.445,2.445,0,0,1,2.541,2.329v2.41h-1.038v-.816c0-1.5-1.621-2.729-3.614-2.729l-.108,0A2.588,2.588,0,0,1,1647.27,650.848Zm-4.652,3.923a1.662,1.662,0,0,1,1.038-1.407v2.223h-1.038Zm-6.308,23.382.835-18.52h13.567l.835,18.52Zm16.821-2.218a.519.519,0,0,0-.273.234l-.3.553-.794-17.6s0-.007,0-.011a.42.42,0,0,0-.012-.078v-.008a.464.464,0,0,0-.03-.077c0-.007-.007-.015-.011-.022s-.007-.015-.011-.022l-.577-.952,2.952-1.015.826,18.324Z" transform="translate(-1635.214 -649.865)" fill="#1c76ce"/>
</svg>
