<svg id="Group_2485" data-name="Group 2485" xmlns="http://www.w3.org/2000/svg" width="28.433" height="29.271" viewBox="0 0 28.433 29.271">
  <path id="Path_13278" data-name="Path 13278" d="M277.776,82.576H250.963a.812.812,0,0,0-.81.81V98.848a.813.813,0,0,0,.81.81h9.527a.812.812,0,0,0,.81-.81V89.732c0-.161.364-.293.81-.293h4.521c.445,0,.81.132.81.293v9.116a.812.812,0,0,0,.81.81h9.526a.812.812,0,0,0,.81-.81V83.386A.812.812,0,0,0,277.776,82.576Zm-21.81,10.84a.813.813,0,0,1-.81.81H254a.812.812,0,0,1-.81-.81V91.74a.812.812,0,0,1,.81-.81h1.159a.813.813,0,0,1,.81.81Zm0-4.2a.813.813,0,0,1-.81.81H254a.812.812,0,0,1-.81-.81V87.668a.812.812,0,0,1,.81-.81h1.159a.813.813,0,0,1,.81.81Zm3.684,4.2a.812.812,0,0,1-.81.81h-1.159a.812.812,0,0,1-.81-.81V91.74a.812.812,0,0,1,.81-.81h1.159a.812.812,0,0,1,.81.81Zm0-4.2a.812.812,0,0,1-.81.81h-1.159a.812.812,0,0,1-.81-.81V87.668a.812.812,0,0,1,.81-.81h1.159a.812.812,0,0,1,.81.81Zm12.22,4.2a.812.812,0,0,1-.81.81H269.9a.812.812,0,0,1-.81-.81V91.74a.812.812,0,0,1,.81-.81h1.16a.812.812,0,0,1,.81.81Zm0-4.2a.812.812,0,0,1-.81.81H269.9a.812.812,0,0,1-.81-.81V87.668a.813.813,0,0,1,.81-.81h1.16a.813.813,0,0,1,.81.81Zm3.684,4.2a.812.812,0,0,1-.81.81h-1.159a.812.812,0,0,1-.81-.81V91.74a.813.813,0,0,1,.81-.81h1.159a.812.812,0,0,1,.81.81Zm0-4.2a.812.812,0,0,1-.81.81h-1.159a.813.813,0,0,1-.81-.81V87.668a.813.813,0,0,1,.81-.81h1.159a.812.812,0,0,1,.81.81Z" transform="translate(-250.153 -70.387)" fill="#1c76ce"/>
  <path id="Path_13279" data-name="Path 13279" d="M252.12,47.462h26.813c.446,0,.522-.223.169-.5l-12.934-9.994a1.106,1.106,0,0,0-1.282,0l-5.42,4.187a.567.567,0,0,1-.332.139c-.185,0-.308-.162-.308-.454V37.611a.813.813,0,0,0-.81-.811h-2.363a.813.813,0,0,0-.81.811v6.313a1.867,1.867,0,0,1-.64,1.3l-2.25,1.739C251.6,47.24,251.675,47.462,252.12,47.462Z" transform="translate(-251.31 -36.769)" fill="#1c76ce"/>
</svg>
