<svg xmlns="http://www.w3.org/2000/svg" width="86.36" height="78.91" viewBox="0 0 86.36 78.91">
  <g id="risk" transform="translate(0 -22.083)">
    <g id="Group_2479" data-name="Group 2479" transform="translate(0 22.083)">
      <path id="Path_13090" data-name="Path 13090" d="M0,64.759a42.576,42.576,0,0,0,20.4,36.235L32.834,81.213a19.333,19.333,0,0,1-9.262-16.454h0a19.609,19.609,0,0,1,39.215,0h0a19.333,19.333,0,0,1-9.262,16.454l12.438,19.781a42.576,42.576,0,0,0,20.4-36.235h0c0-23.531-19.37-42.675-43.18-42.675S0,41.228,0,64.759Z" transform="translate(0 -22.084)" fill="#bfd6ff"/>
      <g id="Group_2478" data-name="Group 2478" transform="translate(39.705)">
        <path id="Path_13091" data-name="Path 13091" d="M282.051,64.758c0-23.531-19.37-42.675-43.18-42.675q-1.755,0-3.475.138c22.191,1.755,39.7,20.162,39.7,42.537h0a42.406,42.406,0,0,1-15.6,32.808l2.155,3.427A42.576,42.576,0,0,0,282.051,64.758Z" transform="translate(-235.396 -22.083)" fill="#b3c5ff"/>
      </g>
      <ellipse id="Ellipse_18" data-name="Ellipse 18" cx="13.487" cy="13.35" rx="13.487" ry="13.35" transform="translate(29.692 29.314)" fill="#cce7f0"/>
    </g>
    <g id="Group_2480" data-name="Group 2480" transform="translate(0 37.159)">
      <path id="Path_13094" data-name="Path 13094" d="M255.551,274.556l-.114-.1-.114.1Z" transform="translate(-212.257 -246.968)" fill="none"/>
      <path id="Path_13095" data-name="Path 13095" d="M0,139.064A42.577,42.577,0,0,0,20.4,175.3l12.438-19.781a19.334,19.334,0,0,1-9.262-16.454h0A19.16,19.16,0,0,1,28.267,126.5L10.274,111.465A42.192,42.192,0,0,0,0,139.064Z" transform="translate(0 -111.465)" fill="#d9e5ff"/>
      <path id="Path_13096" data-name="Path 13096" d="M350.169,139.063a42.193,42.193,0,0,0-10.274-27.6L321.9,126.5a19.16,19.16,0,0,1,4.694,12.566h0a19.334,19.334,0,0,1-9.262,16.454L329.773,175.3a42.577,42.577,0,0,0,20.4-36.235Z" transform="translate(-263.81 -111.464)" fill="#ff5781"/>
      <path id="Path_13097" data-name="Path 13097" d="M400.85,139.063a42.193,42.193,0,0,0-10.274-27.6l-4.223,3.528a42.079,42.079,0,0,1,7.546,24.071h0a42.406,42.406,0,0,1-15.6,32.808l2.155,3.427A42.577,42.577,0,0,0,400.85,139.063Z" transform="translate(-314.491 -111.464)" fill="#ff4170"/>
    </g>
    <path id="Path_13098" data-name="Path 13098" d="M221.893,119.4a6.948,6.948,0,0,1-6.83-7.976l5.115-30.795a1.745,1.745,0,0,1,3.428,0l5.115,30.795A6.948,6.948,0,0,1,221.893,119.4Z" transform="matrix(-0.407, -0.914, 0.914, -0.407, 30.708, 312.915)" fill="#65b9d7"/>
    <path id="Path_13099" data-name="Path 13099" d="M245.7,111.426l-5.116-30.795a1.745,1.745,0,0,0-3.428,0l1.593,30.795a6.9,6.9,0,0,1-3.354,7.018,6.809,6.809,0,0,0,3.475.958A6.948,6.948,0,0,0,245.7,111.426Z" transform="matrix(-0.407, -0.914, 0.914, -0.407, 37.614, 328.425)" fill="#56aac7"/>
  </g>
</svg>
