<svg id="Group_2498" data-name="Group 2498" xmlns="http://www.w3.org/2000/svg" width="32.577" height="29.271" viewBox="0 0 32.577 29.271">
  <path id="Path_13322" data-name="Path 13322" d="M85.738,41.938h.781c.384,0,.707-.174.707-.38V39.43a.472.472,0,0,1,.465-.466H94.5a.472.472,0,0,1,.465.466v2.151c0,.191.33.357.706.357h.782c.376,0,.707-.167.707-.357V39.43a2.663,2.663,0,0,0-2.66-2.661h-6.81a2.664,2.664,0,0,0-2.66,2.661v2.093C85.031,41.748,85.355,41.938,85.738,41.938Z" transform="translate(-74.808 -36.769)" fill="#1c76ce"/>
  <path id="Rectangle_172" data-name="Rectangle 172" d="M1.108,0h1.35A1.109,1.109,0,0,1,3.567,1.109v0A1.108,1.108,0,0,1,2.459,2.217H1.109A1.109,1.109,0,0,1,0,1.108v0A1.108,1.108,0,0,1,1.108,0Z" transform="translate(14.505 18.044)" fill="#1c76ce"/>
  <path id="Rectangle_173" data-name="Rectangle 173" d="M1.237,0H2.329A1.237,1.237,0,0,1,3.567,1.237v0A1.237,1.237,0,0,1,2.33,2.474H1.238A1.238,1.238,0,0,1,0,1.237v0A1.237,1.237,0,0,1,1.237,0Z" transform="translate(14.505 21.482)" fill="#1c76ce"/>
  <path id="Path_13323" data-name="Path 13323" d="M79.147,106.91c-.191.071-.358.13-.514.183a41.973,41.973,0,0,1-11.055,2.159v1.371A2.181,2.181,0,0,1,65.4,112.8H63.963a2.18,2.18,0,0,1-2.178-2.177v-1.372a41.567,41.567,0,0,1-11.849-2.443c-.105-.03-.3-.1-.761-.29l-.06-.024-.077-.031V115.4a1.785,1.785,0,0,0,1.783,1.783h27.72a1.785,1.785,0,0,0,1.783-1.783v-8.945l-.4.159Z" transform="translate(-48.393 -87.91)" fill="#1c76ce"/>
  <path id="Path_13324" data-name="Path 13324" d="M77.461,61.247H48.342a1.731,1.731,0,0,0-1.729,1.73V70.7a.722.722,0,0,0,.348.534c.005,0,.319.14.829.343A40.57,40.57,0,0,0,60.01,74.25v-1.3c0-.862,1.3-1.449,2.173-1.449H63.62c1.014,0,2.171.666,2.148,1.677V74.25a40.949,40.949,0,0,0,10.684-2.09c1.051-.362,2.379-.927,2.392-.933a.7.7,0,0,0,.346-.523V62.977A1.732,1.732,0,0,0,77.461,61.247Z" transform="translate(-46.613 -54.733)" fill="#1c76ce"/>
</svg>
