<svg xmlns="http://www.w3.org/2000/svg" width="29.773" height="29.271" viewBox="0 0 29.773 29.271">
  <path id="Path_13590" data-name="Path 13590" d="M869.412,274.657c5.363,2.054,8.445,1.027,8.445,0s-.913-1.369-.913-2.625.685-3.2,2.739-3.2,2.739,1.94,2.739,3.2-.913,1.6-.913,2.625,5.42,1.442,10.783-.613a1.719,1.719,0,0,0,.93-1.007c-.465-5.037-1.121-7.108-2.148-7.108s-1.37.913-2.625.913-3.2-.684-3.2-2.739,1.94-2.739,3.2-2.739,1.6.913,2.625.913,2.3-3.732,1.141-9.389a.854.854,0,0,0-1.116-.5c-5.364,2.054-8.445,1.027-8.445,0s.913-1.369.913-2.625-.685-3.2-2.739-3.2-2.739,1.94-2.739,3.2.913,1.6.913,2.625-3.081,2.054-8.445,0c-.97-.433-1.606-.225-1.288.678,2.054,5.364,1.027,8.445,0,8.445s-1.37-.913-2.625-.913-3.2.685-3.2,2.739,1.94,2.739,3.2,2.739,1.6-.913,2.625-.913,2.054,3.081,0,8.444A.66.66,0,0,0,869.412,274.657Z" transform="translate(-863.448 -246.572)" fill="#1c76ce"/>
</svg>
