<svg id="Group_2536" data-name="Group 2536" xmlns="http://www.w3.org/2000/svg" width="35.748" height="26.257" viewBox="0 0 35.748 26.257">
  <path id="Path_13480" data-name="Path 13480" d="M1400.994,1475.825a.455.455,0,0,0,.431.311c5.457,0,11.1,0,16.7.014h0a.454.454,0,0,0,0-.909c-5.487-.014-11.016-.014-16.371-.014-.637-1.929-1.2-3.806-1.8-5.788-.314-1.043-.638-2.123-.972-3.2-.27-.97-.546-1.868-.923-3-.74-2.448-2.227-7.247-2.242-7.295a.455.455,0,0,0-.434-.32h-.883a1.015,1.015,0,0,0-1.015-.825h-4.917a1,1,0,0,0-1.03.977v.611a1,1,0,0,0,1.03.977h4.917a1.015,1.015,0,0,0,1.016-.83h.547c.346,1.119,1.516,4.9,2.143,6.975l0,.012c.374,1.122.647,2.01.914,2.969l0,.013c.333,1.077.658,2.158.971,3.2C1399.689,1471.7,1400.31,1473.773,1400.994,1475.825Z" transform="translate(-1387.542 -1454.796)" fill="#1c76ce"/>
  <path id="Path_13481" data-name="Path 13481" d="M1438.129,1544.975a2.365,2.365,0,1,0,2.366,2.365A2.368,2.368,0,0,0,1438.129,1544.975Z" transform="translate(-1424.253 -1523.449)" fill="#1c76ce"/>
  <path id="Path_13482" data-name="Path 13482" d="M1509.158,1544.975a2.365,2.365,0,1,0,2.366,2.365A2.368,2.368,0,0,0,1509.158,1544.975Z" transform="translate(-1478.327 -1523.449)" fill="#1c76ce"/>
  <path id="Path_13483" data-name="Path 13483" d="M1463.341,1468.884a.455.455,0,0,0,.041.475l4.661,6.305a.455.455,0,0,0,.731,0l4.661-6.305a.455.455,0,0,0-.365-.725h-1.962v-9.506a.454.454,0,0,0-.454-.454h-4.491a.454.454,0,0,0-.454.454v9.506h-1.962A.456.456,0,0,0,1463.341,1468.884Z" transform="translate(-1445.211 -1457.748)" fill="#1c76ce"/>
  <path id="Path_13484" data-name="Path 13484" d="M1456.215,1476.073h-7.851v4.838h.992a1.424,1.424,0,0,1,1.145,2.27l-4.661,6.306a1.424,1.424,0,0,1-2.29,0l-4.661-6.305a1.424,1.424,0,0,1,1.145-2.271h.992v-4.838h-7.852a1.006,1.006,0,0,0-1.03.977v.61a1.006,1.006,0,0,0,1.03.977h.327l3.459,11.76a.454.454,0,0,0,.436.326h14.6a.454.454,0,0,0,.436-.326l3.459-11.76h.327a1.006,1.006,0,0,0,1.03-.977v-.61A1.006,1.006,0,0,0,1456.215,1476.073Z" transform="translate(-1421.497 -1470.994)" fill="#1c76ce"/>
</svg>
