<svg xmlns="http://www.w3.org/2000/svg" width="78.912" height="78.91" viewBox="0 0 78.912 78.91">
  <g id="trusted" transform="translate(0 -0.006)">
    <path id="Path_13100" data-name="Path 13100" d="M52,190.048,32.82,170.865a2.312,2.312,0,0,0-3.269,0L1.357,199.058a4.623,4.623,0,0,0,1.925,7.693l9.844,2.99,2.99,9.844h0a4.623,4.623,0,0,0,7.693,1.925L52,193.318A2.311,2.311,0,0,0,52,190.048Z" transform="translate(0 -143.952)" fill="#1c76ce"/>
    <path id="Path_13101" data-name="Path 13101" d="M221.515,199.058l-28.194-28.194a2.312,2.312,0,0,0-3.269,0l-19.184,19.184a2.312,2.312,0,0,0,0,3.269l28.194,28.194a4.624,4.624,0,0,0,7.693-1.925l2.99-9.844,9.844-2.99a4.624,4.624,0,0,0,1.925-7.693Z" transform="translate(-143.96 -143.952)" fill="#c2126a"/>
    <path id="Path_13102" data-name="Path 13102" d="M78.374.006,91.6,33.428,78.374,64.736a32.365,32.365,0,0,1,0-64.73Z" transform="translate(-38.918 0)" fill="#d9e5ff"/>
    <path id="Path_13103" data-name="Path 13103" d="M288.364,32.371A32.4,32.4,0,0,1,256,64.736V.006a32.4,32.4,0,0,1,32.365,32.365Z" transform="translate(-216.543 0)" fill="#bfd6ff"/>
    <path id="Path_13104" data-name="Path 13104" d="M129.124,60l9.029,22.039-9.029,24.2a23.118,23.118,0,0,1,0-46.236Z" transform="translate(-89.668 -50.75)" fill="#f7f9fa"/>
    <path id="Path_13105" data-name="Path 13105" d="M279.117,83.121A23.144,23.144,0,0,1,256,106.239V60A23.144,23.144,0,0,1,279.117,83.121Z" transform="translate(-216.543 -50.75)" fill="#d9e5ff"/>
    <path id="Path_13106" data-name="Path 13106" d="M197.252,191.5l3.031,1.92-3.031,3.84-2.074,1.54a2.315,2.315,0,0,1-3.064-.274l-4.94-5.263a2.312,2.312,0,1,1,3.372-3.164l3.529,3.761Z" transform="translate(-157.796 -160.174)" fill="#d9e5ff"/>
    <path id="Path_13107" data-name="Path 13107" d="M265.769,170.646,256,177.9v-5.759l7.014-5.206a2.312,2.312,0,0,1,2.756,3.713Z" transform="translate(-216.543 -140.815)" fill="#b3c5ff"/>
  </g>
</svg>
