<svg xmlns="http://www.w3.org/2000/svg" width="25.647" height="20.843" viewBox="0 0 25.647 20.843">
  <path id="Path_362" data-name="Path 362" d="M154.112,383.994a14.965,14.965,0,0,0,23.021-13.289,10.664,10.664,0,0,0,2.626-2.723,10.519,10.519,0,0,1-3.021.828,5.272,5.272,0,0,0,2.312-2.911,10.524,10.524,0,0,1-3.34,1.277,5.265,5.265,0,0,0-8.966,4.8,14.937,14.937,0,0,1-10.846-5.5,5.268,5.268,0,0,0,1.629,7.025,5.244,5.244,0,0,1-2.384-.659,5.267,5.267,0,0,0,4.22,5.226,5.262,5.262,0,0,1-2.375.09,5.263,5.263,0,0,0,4.914,3.654A10.574,10.574,0,0,1,154.112,383.994Z" transform="translate(-154.112 -365.515)" fill="#fff" opacity="0.5"/>
</svg>
