<svg xmlns="http://www.w3.org/2000/svg" width="12.881" height="12.881" viewBox="0 0 12.881 12.881">
  <g id="Group_2811" data-name="Group 2811" transform="translate(-1228.059 -30)">
    <path id="Union_2" data-name="Union 2" d="M1.611,12.881A1.613,1.613,0,0,1,0,11.27v-.912A3.083,3.083,0,0,1,1.046,8.041,6.835,6.835,0,0,1,3.928,6.6a3.778,3.778,0,1,1,2.512.958A6.793,6.793,0,0,0,1.872,8.981a1.832,1.832,0,0,0-.62,1.377v.912a.36.36,0,0,0,.359.359H11.27a.36.36,0,0,0,.36-.359v-.912a1.832,1.832,0,0,0-.621-1.377A4.8,4.8,0,0,0,9.786,8.22a.626.626,0,1,1,.508-1.144,6.043,6.043,0,0,1,1.541.965,3.083,3.083,0,0,1,1.046,2.317v.912a1.613,1.613,0,0,1-1.611,1.611Zm2.3-9.1A2.528,2.528,0,1,0,6.441,1.252,2.531,2.531,0,0,0,3.913,3.78Z" transform="translate(1228.059 30)" fill="#fff"/>
  </g>
</svg>
