<svg xmlns="http://www.w3.org/2000/svg" width="72.981" height="78.91" viewBox="0 0 72.981 78.91">
  <g id="Group_2666" data-name="Group 2666" transform="translate(-1257.999 -677)">
    <g id="data-science" transform="translate(1238.765 677)">
      <path id="Path_13603" data-name="Path 13603" d="M68.455,71.808a58.922,58.922,0,0,0-12.715-5.4c-13.192-3.87-27.761-3.109-34.032,7.771-8.422,14.575,6.328,33.019,21.317,41.674a59,59,0,0,0,12.715,5.4c13.19,3.876,27.751,3.121,34.032-7.776C98.194,98.906,83.444,80.462,68.455,71.808ZM85.771,111.17c-5.255,9.107-18.565,8.883-30.031,5.221a53.978,53.978,0,0,1-10.4-4.541c-12.22-7.053-26.61-23.256-19.628-35.357,5.237-9.075,18.481-8.94,30.031-5.234a54.264,54.264,0,0,1,10.4,4.554C78.363,82.867,92.754,99.069,85.771,111.17Z" transform="translate(-0.015 -54.376)" fill="#80aaff"/>
      <path id="Path_13604" data-name="Path 13604" d="M290.032,125.153c8.422-14.576-6.328-33.019-21.317-41.674A58.923,58.923,0,0,0,256,78.081V82.93a54.265,54.265,0,0,1,10.4,4.554c12.22,7.053,26.61,23.256,19.628,35.357-5.255,9.107-18.565,8.883-30.031,5.221v4.867C269.19,136.8,283.751,136.05,290.032,125.153Z" transform="translate(-200.275 -66.047)" fill="#6680ff"/>
      <path id="Path_13605" data-name="Path 13605" d="M89.757,74.183C83.486,63.3,68.914,62.544,55.725,66.412a58.869,58.869,0,0,0-12.715,5.4C28.133,80.4,13.237,98.847,21.694,113.484c6.284,10.9,20.86,11.636,34.032,7.77a58.934,58.934,0,0,0,12.715-5.4C83.317,107.267,98.214,88.819,89.757,74.183ZM66.129,111.852a54.034,54.034,0,0,1-10.4,4.54c-11.475,3.665-24.779,3.883-30.031-5.22C18.7,99.056,33.133,82.851,45.322,75.815a54.163,54.163,0,0,1,10.4-4.549c11.5-3.682,24.777-3.878,30.031,5.228C92.747,88.61,78.318,104.816,66.129,111.852Z" transform="translate(0 -54.378)" fill="#e1e6f0"/>
      <path id="Path_13606" data-name="Path 13606" d="M290.032,74.183C283.76,63.3,269.189,62.544,256,66.412v4.854c11.5-3.682,24.777-3.878,30.031,5.228,6.991,12.116-7.439,28.321-19.628,35.357a54.035,54.035,0,0,1-10.4,4.54v4.863a58.935,58.935,0,0,0,12.715-5.4C283.592,107.267,298.489,88.819,290.032,74.183Z" transform="translate(-200.275 -54.378)" fill="#cfd7e6"/>
      <path id="Path_13607" data-name="Path 13607" d="M116.43,0C102.41,0,91,17.784,91,39.455S102.41,78.91,116.43,78.91s25.43-17.784,25.43-39.455S130.45,0,116.43,0Zm0,74.287c-11.473,0-20.806-15.709-20.806-34.831S104.957,4.624,116.43,4.624s20.806,15.709,20.806,34.831S127.9,74.287,116.43,74.287Z" transform="translate(-60.705)" fill="#9ef"/>
      <path id="Path_13608" data-name="Path 13608" d="M281.43,39.455C281.43,17.784,270.02,0,256,0V4.624c11.473,0,20.806,15.709,20.806,34.831S267.473,74.287,256,74.287V78.91C270.02,78.91,281.43,61.126,281.43,39.455Z" transform="translate(-200.275)" fill="#6cf"/>
    </g>
    <path id="Union_7" data-name="Union 7" d="M2.148,17.175A2.151,2.151,0,0,1,0,15.027V13.811a4.111,4.111,0,0,1,1.395-3.09A9.113,9.113,0,0,1,5.238,8.8a5.037,5.037,0,1,1,3.35,1.277,9.058,9.058,0,0,0-6.092,1.9,2.442,2.442,0,0,0-.827,1.836v1.215a.479.479,0,0,0,.479.479H15.027a.48.48,0,0,0,.48-.479V13.811a2.443,2.443,0,0,0-.827-1.836,6.4,6.4,0,0,0-1.63-1.015.835.835,0,1,1,.678-1.526,8.058,8.058,0,0,1,2.054,1.287,4.111,4.111,0,0,1,1.395,3.09v1.215a2.151,2.151,0,0,1-2.148,2.148ZM5.217,5.04a3.37,3.37,0,1,0,3.37-3.37A3.374,3.374,0,0,0,5.217,5.04Z" transform="translate(1285.903 707.868)" fill="#1c76ce"/>
  </g>
</svg>
